<?xml version="1.0" encoding="UTF-8"?>
<svg id="katman_1" xmlns="http://www.w3.org/2000/svg" version="1.1" viewBox="0 0 1728 624">
  <!-- Generator: Adobe Illustrator 30.2.1, SVG Export Plug-In . SVG Version: 2.1.1 Build 1)  -->
  <defs>
    <style>
      .st0 {
        fill: #fff;
      }
    </style>
  </defs>
  <path class="st0" d="M1494.91,312.48c0-.09,0-.18,0-.27,0-.06,0-.11,0-.16,0-.02,0-.03,0-.05,0-.02,0-.03,0-.05,0-.05,0-.11,0-.16,0-.09,0-.18,0-.27,0-.09,0-.17,0-.26,0-.05,0-.1,0-.16,0-.12,0-.24,0-.36,0-.17-.01-.34-.02-.51,0-.07-.01-.15-.02-.22-.02-.22-.04-.44-.06-.66,0-.01,0-.02,0-.03-.7-6.22-4.71-11.54-10.3-14.03-.05-.02-.09-.04-.14-.06-.09-.04-.17-.07-.26-.11-1.39-.59-2.87-1.02-4.42-1.24-15.36-3.24-36.96-10.64-57.13-26.74-8.48-6.77-16.37-15.11-21.23-24.91-4.47-9.02-5.29-21.13-7.42-31.09-1.83-8.55-3.98-17.14-6.24-25.59-8.85-33.04-16.93-52.03-53.07-59.91-29.27-6.38-56.85-5.72-86.48-2.64-5.69.59-11.36,1.52-17.03,2.23-1.24-7.62-3.46-15.38-7.39-22.05-11.41-19.41-39.36-26.85-59.68-18.1-2.45,1.05-4.73,2.36-6.9,3.84-2.12,1.45-4.13,3.06-6.07,4.79-9.63-14.03-28.7-18.29-44.64-20.62-32.51-4.74-68.12-3.13-100.86-1.64-35.75,1.62-65.01,5.19-99.55-7.71-12.3-4.6-27.85-12.49-29.88-26.93-1.13-4.84-5.05-8.47-9.8-9.36-.01,0-.02,0-.03,0-.32-.06-.65-.11-.98-.14-.06,0-.11-.02-.17-.02-.37-.03-.75-.05-1.13-.05,0,0,0,0,0,0h0s0,0,0,0c-.38,0-.76.02-1.13.05-.06,0-.11.02-.17.02-.33.03-.66.08-.98.14-.01,0-.02,0-.03,0-4.75.89-8.66,4.52-9.8,9.36-2.02,14.44-17.58,22.34-29.88,26.93-34.54,12.91-63.8,9.34-99.55,7.71-32.75-1.49-68.36-3.1-100.86,1.64-15.94,2.32-35.01,6.58-44.64,20.62-1.93-1.72-3.94-3.34-6.07-4.79-2.17-1.48-4.45-2.79-6.9-3.84-20.32-8.75-48.27-1.31-59.68,18.1-3.92,6.68-6.15,14.43-7.39,22.05-5.67-.7-11.34-1.64-17.03-2.23-29.63-3.08-57.21-3.74-86.48,2.64-36.14,7.88-44.23,26.87-53.07,59.91-2.26,8.44-4.41,17.04-6.24,25.59-2.13,9.96-2.95,22.07-7.42,31.09-4.86,9.81-12.76,18.15-21.23,24.91-20.17,16.1-41.77,23.5-57.13,26.74-1.55.22-3.04.65-4.42,1.24-.09.04-.17.07-.26.11-.05.02-.09.04-.14.06-5.59,2.49-9.6,7.82-10.3,14.03,0,.01,0,.02,0,.03-.02.22-.04.44-.06.66,0,.07-.01.15-.02.22,0,.17-.02.34-.02.51,0,.12,0,.24,0,.36,0,.05,0,.1,0,.16,0,.09,0,.17,0,.26,0,.09,0,.18,0,.27,0,.06,0,.11,0,.16,0,.02,0,.03,0,.05,0,.02,0,.03,0,.05,0,.05,0,.11,0,.16,0,.09,0,.18,0,.27,0,.09,0,.17,0,.26,0,.05,0,.1,0,.16,0,.12,0,.24,0,.36,0,.17.01.34.02.51,0,.07.01.15.02.22.02.22.04.44.06.66,0,.01,0,.02,0,.03.7,6.22,4.71,11.54,10.3,14.03.05.02.09.04.14.06.09.04.17.07.26.11,1.39.59,2.87,1.02,4.42,1.24,15.36,3.24,36.96,10.64,57.13,26.74,8.48,6.77,16.37,15.11,21.23,24.91,4.47,9.02,5.29,21.13,7.42,31.09,1.83,8.55,3.98,17.14,6.24,25.59,8.85,33.04,16.93,52.03,53.07,59.91,29.27,6.38,56.85,5.72,86.48,2.64,5.69-.59,11.36-1.52,17.03-2.23,1.24,7.62,3.46,15.38,7.39,22.05,11.41,19.41,39.36,26.85,59.68,18.1,2.45-1.05,4.73-2.36,6.9-3.84,2.12-1.45,4.13-3.06,6.07-4.79,9.63,14.03,28.7,18.29,44.64,20.62,32.51,4.74,68.12,3.13,100.86,1.64,35.75-1.62,65.01-5.19,99.55,7.71,12.3,4.6,27.85,12.49,29.88,26.93,1.13,4.84,5.05,8.47,9.8,9.36.01,0,.02,0,.03,0,.32.06.65.11.98.14.06,0,.11.02.17.02.37.03.75.05,1.13.05,0,0,0,0,0,0h0s0,0,0,0c.38,0,.76-.02,1.13-.05.06,0,.11-.02.17-.02.33-.03.66-.08.98-.14.01,0,.02,0,.03,0,4.75-.89,8.66-4.52,9.8-9.36,2.02-14.44,17.58-22.34,29.88-26.93,34.54-12.91,63.8-9.34,99.55-7.71,32.75,1.49,68.36,3.1,100.86-1.64,15.94-2.32,35.01-6.58,44.64-20.62,1.93,1.72,3.94,3.34,6.07,4.79,2.17,1.48,4.45,2.79,6.9,3.84,20.32,8.75,48.27,1.31,59.68-18.1,3.92-6.68,6.15-14.43,7.39-22.05,5.67.7,11.34,1.64,17.03,2.23,29.63,3.08,57.21,3.74,86.48-2.64,36.14-7.88,44.23-26.87,53.07-59.91,2.26-8.44,4.41-17.04,6.24-25.59,2.13-9.96,2.95-22.07,7.42-31.09,4.86-9.81,12.76-18.15,21.23-24.91,20.17-16.1,41.77-23.5,57.13-26.74,1.55-.22,3.04-.65,4.42-1.24.09-.04.18-.07.26-.11.05-.02.09-.04.14-.06,5.59-2.49,9.6-7.82,10.3-14.03,0-.01,0-.02,0-.03.02-.22.04-.44.06-.66,0-.07.01-.15.02-.22,0-.17.02-.34.02-.51,0-.12,0-.24,0-.36,0-.05,0-.1,0-.16,0-.09,0-.17,0-.26ZM1149.43,481.02c-9.56-2.64-17.48,3.66-18.93,13.06-.45,2.9.16,9.7-1.52,11.53-5.75,6.22-31.45,9.14-40.11,9.86-39.9,3.32-79.57-.6-119.38-1.89-18.72-.61-33.49.55-51.72,4.91-18.82,4.5-40.35,12.19-53.77,26.55-13.42-14.36-34.95-22.04-53.77-26.55-18.23-4.36-32.99-5.52-51.72-4.91-39.81,1.3-79.48,5.21-119.38,1.89-8.66-.72-34.36-3.64-40.11-9.86-1.69-1.82-1.07-8.62-1.52-11.53-1.46-9.4-9.37-15.7-18.93-13.06-1.78.49-3.35,1.31-4.78,2.36-6.58,4.77-10.2,14.35-17.08,18.97-1.2.8-2.5,1.44-3.93,1.89-9.59,2.97-23.12-.42-27.72-9.98-5.25-10.92-4.81-25.2-5.14-37.03-19.13,3.47-38.33,6.6-57.78,7.95-22.33,1.55-43.51,1.28-65.41-3.97-17.76-4.25-23.02-11.44-28.41-28.24-6.29-19.61-9.3-39.24-13.7-59.17-5.57-25.21-27.35-47.07-52.15-61.81,24.8-14.74,46.58-36.6,52.15-61.81,4.4-19.94,7.41-39.56,13.7-59.17,5.39-16.8,10.65-23.98,28.41-28.24,21.91-5.25,43.08-5.52,65.41-3.97,19.45,1.35,38.64,4.49,57.78,7.95.32-11.83-.11-26.11,5.14-37.03,4.6-9.56,18.13-12.95,27.72-9.98,1.43.44,2.73,1.09,3.93,1.89,6.88,4.62,10.5,14.2,17.08,18.97,1.43,1.05,3,1.87,4.78,2.36,9.56,2.64,17.48-3.66,18.93-13.06.45-2.9-.17-9.7,1.52-11.53,5.75-6.22,31.45-9.14,40.11-9.86,39.9-3.32,79.57.6,119.38,1.89,18.72.61,33.49-.55,51.72-4.91,18.82-4.5,40.35-12.19,53.77-26.55,13.42,14.36,34.95,22.04,53.77,26.55,18.23,4.36,32.99,5.52,51.72,4.91,39.81-1.3,79.48-5.21,119.38-1.89,8.66.72,34.36,3.64,40.11,9.86,1.69,1.82,1.07,8.62,1.52,11.53,1.46,9.4,9.37,15.7,18.93,13.06,1.78-.49,3.35-1.31,4.78-2.36,6.58-4.77,10.2-14.35,17.08-18.97,1.2-.8,2.5-1.44,3.93-1.89,9.59-2.97,23.12.42,27.72,9.98,5.25,10.92,4.81,25.2,5.14,37.03,19.13-3.47,38.33-6.6,57.78-7.95,22.33-1.55,43.51-1.28,65.41,3.97,17.76,4.25,23.02,11.44,28.41,28.24,6.29,19.61,9.3,39.24,13.7,59.17,5.57,25.21,27.35,47.07,52.15,61.81-24.8,14.74-46.58,36.6-52.15,61.81-4.4,19.94-7.41,39.56-13.7,59.17-5.39,16.8-10.65,23.98-28.41,28.24-21.91,5.25-43.08,5.52-65.41,3.97-19.45-1.35-38.64-4.49-57.78-7.95-.32,11.83.11,26.11-5.14,37.03-4.6,9.56-18.13,12.95-27.72,9.98-1.43-.44-2.73-1.09-3.93-1.89-6.88-4.62-10.5-14.2-17.08-18.97-1.43-1.05-3-1.87-4.78-2.36Z"/>
  <g>
    <g>
      <path class="st0" d="M882.83,232.78c3.83-1.83,7.52-4.07,11.15-6.29,9.07-5.57,17.8-11.79,26.39-18.05s16.69-13.22,25.19-18.86c1.12-.74,3.19-2.35,4.23-.51,1.08,1.93-.71,5.03-2.17,6.36-4.02,3.65-10.15,7.59-14.69,10.82-7.12,5.07-14.42,9.88-21.59,14.88.16.3.48-.06.66-.13,3.42-1.44,6.69-3.86,10.03-5.51l17.21-10.79c-.38,5.63-3.4,11.26-6.61,15.8-7.81,11.04-19.89,18.79-32.25,23.85-.05.37.4.15.61.11,1.69-.32,3.96-1.16,5.62-1.76,12.79-4.56,25.16-12.96,33.32-23.88,3.32-4.44,6.17-9.66,7.3-15.13.34-.05.21.47.2.69-.64,8.12-4.62,14.82-9.2,21.29-14.31,20.18-35.34,35.56-60.17,21.76-4.52-2.51-5.71-4.76-7.8-9.34-4.75-10.37-7.75-18.16-3.31-29.48,6.39-16.27,30.55-37.53,48.12-39.77,2.16-.28,4.4-.16,6.53-.45s6.14-2,7.89-.87c1,.65,1.02,2.21.29,3.07-15.23,17-29.7,34.78-42.03,54.03l-4.9,8.15Z"/>
      <path class="st0" d="M780.57,203.69l1.89,5.58c7.24,16.04,22.75,27.68,39.06,33.48,1.65.59,3.78,1.37,5.48,1.7.2.04.65.26.61-.11-12.46-5.01-24.65-12.95-32.45-24.05-3.29-4.68-6.03-10.04-6.61-15.81,9,5.86,18.03,11.84,27.64,16.71.18.09.53.42.67.13-12.54-8.67-25.27-17.09-37.25-26.53-1.64-1.68-3.1-6.78.63-6.61,17.87,12.81,34.99,26.77,53.79,38.3,3.63,2.22,7.31,4.46,11.15,6.29-13.16-22.77-30.04-43.08-47.35-62.76-.77-4.96,5.82-2,8.4-1.63,2.22.32,4.49.16,6.73.45,18.07,2.3,43.67,24.98,49.02,42.26,3,9.7.44,16.07-3.35,24.86-3.97,9.21-6.53,11.24-15.99,14.7-22.03,8.07-41.07-8.4-53.04-25.19-4.65-6.53-8.72-13.51-9.01-21.78Z"/>
      <path class="st0" d="M864.27,208.85h-.55c-5.55-13.9-17.06-24.96-29.22-33.26-.4-8.03.49-16.39,2.55-24.15,1.61-6.07,4.22-12.42,8.71-16.9,1.59,10.59,4.23,21.01,7.32,31.24l1.65,4.43c-2.14-10.95-4.61-21.91-5.95-33.01-.18-1.48-.61-3.76-.52-5.16.19-3.1,4.07-6.21,5.02-1.33,1.49,7.67,2.09,16.2,3.28,24.02,1.73,11.41,3.61,23.32,6.61,34.45.56,2.06,1.27,5.18,2.13,7.04.09.2.12.47.4.49,5.15-18.42,6.99-37.64,8.37-56.7.24-3.36.02-7.76.61-10.95.16-.85.96-1.54,1.84-1.46,1.94.16,3.32,3.74,4.37,5.2,1.98,2.76,4.09,4.53,5.85,7.7,5.58,10.07,6.82,23.21,6.87,34.57l-.38.61c-12.02,8.38-23.42,19.29-28.94,33.15Z"/>
    </g>
    <g>
      <path class="st0" d="M837.27,225.3c-1.02-.61-2.08-1.26-3.28-1.99-12.72-7.8-24.9-16.91-36.69-25.71-3.89-2.91-7.9-5.9-11.93-8.85l.29-.46.03-1c0-.45,0-.86-.03-1.26-.01-.27-.02-.52-.02-.75v-.03c0-.19,0-.33.02-.46,0-.08.03-.21.07-.39.07-.32.18-.68.32-1.08.14-.39.31-.8.5-1.21.27-.57.57-1.12.84-1.54,2.03-3.09,5.64-5.08,9.65-5.3l1-.06.51-.37c8.57,9.83,15.34,18.01,21.31,25.73,6.68,8.64,12.38,16.75,17.39,24.73Z"/>
      <path class="st0" d="M891.2,224.75c10.13-15.82,22.29-31.62,38.23-49.7l.62.42,1.09-.03c.11,0,.21,0,.32,0,.2,0,.4,0,.59.02.19.01.39.03.59.05.61.07,1.23.2,1.85.39,1.25.38,2.43.99,3.49,1.8.15.12.31.24.46.37.3.25.59.52.86.8.14.14.27.29.4.43.92,1.05,1.63,2.22,2.12,3.49.07.18.13.37.19.55.41,1.26.57,2.56.49,3.86l-.05.85.21.47c-4.22,2.97-8.42,6.24-12.48,9.4-3.22,2.51-6.54,5.1-9.79,7.46-7.75,5.65-16.81,12.16-26.23,17.95-1.2.74-2.27,1.39-3.29,2l.34-.56Z"/>
      <path class="st0" d="M865.45,185.72c-2.82-10.57-4.6-21.58-6.46-33.83-.47-3.12-.86-6.42-1.23-9.62-.45-3.81-.91-7.75-1.53-11.53l.45-.12.62-.56c1.73-1.56,4.13-2.45,6.6-2.45,1.35,0,2.7.27,3.92.77l4,2.31.14.04c-.03.91-.05,1.83-.07,2.73-.03,1.41-.05,2.72-.14,3.89-.62,8.53-1.43,18.57-2.76,28.44-.97,7.25-2.14,13.79-3.54,19.93Z"/>
    </g>
  </g>
  <g>
    <path class="st0" d="M386.02,300.71c0-21.85,0-25.88-.29-30.48-.29-4.89-1.44-7.19-6.18-8.19-1.15-.29-3.59-.43-5.61-.43-1.58,0-2.44-.29-2.44-1.29s1.01-1.29,3.16-1.29c7.62,0,16.68.43,19.55.43,7.04,0,12.65-.43,17.54-.43,26.02,0,30.62,13.94,30.62,21.56,0,11.79-6.76,18.83-14.66,25.16,11.79,4.03,26.16,14.23,26.16,31.05,0,15.38-11.93,31.34-38.38,31.34-1.72,0-5.89-.29-10.06-.43-4.31-.29-8.63-.43-10.78-.43-1.58,0-4.74,0-8.19.14-3.31,0-7.04.29-9.92.29-1.87,0-2.88-.43-2.88-1.44,0-.72.57-1.15,2.3-1.15,2.16,0,3.88-.29,5.18-.57,2.87-.58,3.59-3.74,4.17-7.91.72-6.04.72-17.39.72-30.62v-25.3ZM403.27,303.16c0,1.15.43,1.44,1.01,1.58,1.29.29,3.45.43,6.76.43,4.74,0,7.91-.57,10.35-2.73,3.74-3.02,5.89-8.19,5.89-15.24,0-9.63-5.61-22.28-17.97-22.28-2.01,0-3.31,0-4.74.29-1.01.29-1.29.86-1.29,2.44v35.51ZM422.25,314.66c-3.02-2.16-6.32-3.16-11.93-3.45-2.59-.14-4.03-.14-6.18-.14-.58,0-.86.29-.86,1.01v34.07c0,9.49.43,11.93,5.03,13.8,3.88,1.58,7.19,1.73,10.49,1.73,6.47,0,17.39-3.45,17.39-18.4,0-8.91-3.02-20.99-13.94-28.61Z"/>
    <path class="st0" d="M464.45,310.84c0-18.53,0-21.94-.24-25.84-.24-4.14-1.22-6.09-5.24-6.95-.97-.24-3.05-.37-4.75-.37-1.34,0-2.07-.24-2.07-1.1s.85-1.1,2.68-1.1c6.46,0,14.14.37,17.79.37,2.93,0,10.6-.37,14.99-.37,1.83,0,2.68.24,2.68,1.1s-.73,1.1-1.95,1.1c-1.34,0-2.07.12-3.53.37-3.29.61-4.27,2.68-4.51,6.95-.24,3.9-.24,7.31-.24,25.84v17.06c0,17.67,3.53,25.11,9.51,29.98,5.48,4.51,11.09,5,15.24,5,5.36,0,11.94-1.71,16.82-6.58,6.7-6.7,7.07-17.67,7.07-30.23v-15.23c0-18.53,0-21.94-.24-25.84-.24-4.14-1.22-6.09-5.24-6.95-.98-.24-3.05-.37-4.39-.37s-2.07-.24-2.07-1.1.85-1.1,2.56-1.1c6.22,0,13.89.37,14.02.37,1.46,0,9.14-.37,13.89-.37,1.71,0,2.56.24,2.56,1.1s-.73,1.1-2.19,1.1c-1.34,0-2.07.12-3.53.37-3.29.61-4.27,2.68-4.51,6.95-.24,3.9-.24,7.31-.24,25.84v13.04c0,13.53-1.34,27.91-11.58,36.69-8.65,7.43-17.43,8.77-25.35,8.77-6.46,0-18.16-.37-27.06-8.41-6.22-5.61-10.85-14.63-10.85-32.3v-17.79Z"/>
    <path class="st0" d="M576.58,332.29c0,15.6,0,24.01,2.56,26.2,2.07,1.83,5.24,2.68,14.75,2.68,6.46,0,11.21-.12,14.26-3.41,1.46-1.58,2.93-5,3.17-7.31.12-1.1.37-1.83,1.34-1.83.85,0,.98.61.98,2.07,0,1.34-.85,10.48-1.83,14.02-.73,2.68-1.34,3.29-7.68,3.29-8.78,0-15.11-.24-20.6-.37-5.48-.24-9.87-.37-14.87-.37-1.34,0-4.02,0-6.95.12-2.8,0-5.97.24-8.41.24-1.58,0-2.44-.37-2.44-1.22,0-.61.49-.98,1.95-.98,1.83,0,3.29-.24,4.39-.49,2.44-.49,3.05-3.17,3.53-6.7.61-5.12.61-14.75.61-25.96v-21.45c0-18.53,0-21.94-.24-25.84-.24-4.14-1.22-6.09-5.24-6.95-.98-.24-2.44-.37-4.02-.37-1.34,0-2.07-.24-2.07-1.1s.85-1.1,2.68-1.1c5.73,0,13.41.37,16.7.37,2.93,0,11.82-.37,16.58-.37,1.71,0,2.56.24,2.56,1.1s-.73,1.1-2.19,1.1c-1.34,0-3.29.12-4.75.37-3.29.61-4.27,2.68-4.51,6.95-.24,3.9-.24,7.31-.24,25.84v21.45Z"/>
    <path class="st0" d="M605.59,287.44c-2.8-6.7-4.88-8.04-9.26-9.26-1.83-.49-3.78-.49-4.75-.49-1.1,0-1.46-.37-1.46-1.1,0-.97,1.34-1.1,3.17-1.1,6.46,0,13.41.37,17.67.37,3.05,0,8.9-.37,14.99-.37,1.46,0,2.8.24,2.8,1.1s-.73,1.1-1.83,1.1c-1.95,0-3.78.12-4.75.85-.85.61-1.22,1.46-1.22,2.56,0,1.58,1.1,5,2.8,9.38l20.96,55.33h.49c5.24-13.41,21.09-52.65,24.01-60.7.61-1.58,1.1-3.41,1.1-4.51,0-.98-.49-1.95-1.58-2.32-1.46-.49-3.29-.61-4.88-.61-1.1,0-2.07-.12-2.07-.97,0-.98,1.1-1.22,3.41-1.22,6.09,0,11.21.37,12.8.37,2.07,0,7.8-.37,11.46-.37,1.58,0,2.56.24,2.56,1.1s-.73,1.1-1.95,1.1-3.78,0-5.97,1.46c-1.58,1.1-3.41,3.17-6.7,10.97-4.75,11.46-8.04,18.04-14.63,33.03-7.8,17.79-13.53,31.08-16.21,37.17-3.17,7.07-3.9,9.02-5.61,9.02-1.58,0-2.32-1.71-4.63-7.43l-30.71-74.47Z"/>
    <path class="st0" d="M691.04,335.83c-.61,0-.85.24-1.1.98l-6.58,17.43c-1.22,3.05-1.83,5.97-1.83,7.43,0,2.19,1.1,3.78,4.88,3.78h1.83c1.46,0,1.83.24,1.83.98,0,.97-.73,1.22-2.07,1.22-3.9,0-9.14-.37-12.92-.37-1.34,0-8.04.37-14.38.37-1.58,0-2.32-.24-2.32-1.22,0-.73.49-.98,1.46-.98,1.1,0,2.8-.12,3.78-.24,5.61-.73,7.92-4.88,10.36-10.97l30.59-76.54c1.46-3.53,2.19-4.87,3.41-4.87,1.1,0,1.83,1.1,3.05,3.9,2.93,6.7,22.43,56.43,30.23,74.96,4.63,10.97,8.17,12.68,10.73,13.28,1.83.37,3.66.49,5.12.49.98,0,1.58.12,1.58.98,0,.97-1.1,1.22-5.61,1.22s-13.29,0-23.04-.24c-2.19-.12-3.66-.12-3.66-.97,0-.73.49-.98,1.71-1.1.85-.24,1.71-1.34,1.1-2.8l-9.75-25.84c-.24-.61-.61-.85-1.22-.85h-27.18ZM715.9,329.73c.61,0,.73-.37.61-.73l-10.97-30.1c-.12-.49-.24-1.1-.61-1.1s-.61.61-.73,1.1l-11.21,29.98c-.12.49,0,.85.49.85h22.43Z"/>
    <path class="st0" d="M759.29,310.84c0-18.53,0-21.94-.24-25.84-.24-4.14-1.22-6.09-5.24-6.95-.98-.24-3.05-.37-4.75-.37-1.34,0-2.07-.24-2.07-1.1s.85-1.1,2.68-1.1c6.46,0,14.14.37,16.7.37,4.14,0,13.41-.37,17.18-.37,7.68,0,15.84.73,22.43,5.24,3.41,2.32,8.29,8.53,8.29,16.7,0,9.02-3.78,17.31-16.09,27.3,10.85,13.65,19.26,24.5,26.45,32.05,6.82,7.07,11.82,7.92,13.65,8.29,1.34.24,2.44.37,3.41.37s1.46.37,1.46.98c0,.97-.85,1.22-2.32,1.22h-11.58c-6.83,0-9.87-.61-13.04-2.32-5.24-2.8-9.87-8.53-16.7-17.92-4.88-6.7-10.48-14.99-12.07-16.82-.61-.73-1.34-.85-2.19-.85l-10.6-.24c-.61,0-.98.24-.98.98v1.71c0,11.33,0,20.96.61,26.08.37,3.53,1.1,6.22,4.75,6.7,1.83.24,4.51.49,5.97.49.98,0,1.46.37,1.46.98,0,.85-.85,1.22-2.44,1.22-7.07,0-16.09-.37-17.92-.37-2.32,0-9.99.37-14.87.37-1.58,0-2.44-.37-2.44-1.22,0-.61.49-.98,1.95-.98,1.83,0,3.29-.24,4.39-.49,2.44-.49,3.05-3.17,3.53-6.7.61-5.12.61-14.75.61-25.96v-21.45ZM773.67,320.47c0,1.34.24,1.83,1.1,2.19,2.56.85,6.22,1.22,9.26,1.22,4.88,0,6.46-.49,8.65-2.07,3.66-2.68,7.19-8.29,7.19-18.28,0-17.31-11.46-22.3-18.65-22.3-3.05,0-5.24.12-6.46.49-.85.24-1.1.73-1.1,1.71v37.05Z"/>
    <path class="st0" d="M909,307.04h.72c4.89-5.32,25.88-26.74,30.04-31.63,4.02-4.74,7.19-8.34,7.19-10.78,0-1.58-.57-2.59-2.01-2.88-1.29-.29-1.87-.57-1.87-1.44,0-1.01.72-1.29,2.3-1.29,3.02,0,10.93.43,14.81.43,4.46,0,12.36-.43,16.82-.43,1.44,0,2.44.29,2.44,1.29s-.72,1.29-2.16,1.29c-2.01,0-5.61.57-8.34,1.58-4.46,1.73-9.34,4.74-15.53,10.78-4.46,4.31-26.16,25.88-31.05,31.05,5.18,6.76,33.35,37.09,38.96,42.41,6.32,6.04,12.79,12.51,20.56,15.53,4.31,1.73,7.19,2.16,8.91,2.16,1.01,0,1.87.29,1.87,1.15,0,1.01-.72,1.44-3.45,1.44h-12.51c-4.31,0-6.9,0-9.92-.29-7.76-.72-11.64-3.88-17.83-9.34-6.33-5.61-34.64-38.81-37.66-42.98l-1.58-2.16h-.72v13.08c0,13.23,0,24.58.43,30.76.29,4.03,1.58,7.19,5.18,7.76,2.01.29,5.18.57,7.04.57,1.15,0,1.87.43,1.87,1.15,0,1.01-1.15,1.44-2.73,1.44-8.05,0-17.11-.43-20.7-.43-3.31,0-12.36.43-18.11.43-1.87,0-2.88-.43-2.88-1.44,0-.72.57-1.15,2.3-1.15,2.16,0,3.88-.29,5.18-.57,2.87-.58,3.59-3.74,4.17-7.91.72-6.04.72-17.39.72-30.62v-25.3c0-21.85,0-25.88-.29-30.48-.29-4.89-1.44-7.19-6.18-8.19-1.15-.29-3.59-.43-5.61-.43-1.58,0-2.44-.29-2.44-1.29s1.01-1.29,3.16-1.29c7.62,0,16.68.43,20.13.43s12.51-.43,17.39-.43c2.01,0,3.02.29,3.02,1.29s-.86,1.29-2.01,1.29c-1.44,0-2.3.14-4.03.43-3.88.72-5.03,3.16-5.32,8.19-.29,4.6-.29,8.63-.29,30.48v6.32Z"/>
    <path class="st0" d="M978.66,310.84c0-18.53,0-21.94-.24-25.84-.24-4.14-1.22-6.09-5.24-6.95-.98-.24-3.05-.37-4.75-.37-1.34,0-2.07-.24-2.07-1.1s.85-1.1,2.68-1.1c6.46,0,14.14.37,17.79.37,2.93,0,10.6-.37,14.99-.37,1.83,0,2.68.24,2.68,1.1s-.73,1.1-1.95,1.1c-1.34,0-2.07.12-3.53.37-3.29.61-4.27,2.68-4.51,6.95-.24,3.9-.24,7.31-.24,25.84v17.06c0,17.67,3.53,25.11,9.51,29.98,5.48,4.51,11.09,5,15.23,5,5.36,0,11.94-1.71,16.82-6.58,6.7-6.7,7.07-17.67,7.07-30.23v-15.23c0-18.53,0-21.94-.24-25.84-.24-4.14-1.22-6.09-5.24-6.95-.98-.24-3.05-.37-4.39-.37s-2.07-.24-2.07-1.1.85-1.1,2.56-1.1c6.22,0,13.89.37,14.02.37,1.46,0,9.14-.37,13.89-.37,1.71,0,2.56.24,2.56,1.1s-.73,1.1-2.19,1.1c-1.34,0-2.07.12-3.53.37-3.29.61-4.27,2.68-4.51,6.95-.24,3.9-.24,7.31-.24,25.84v13.04c0,13.53-1.34,27.91-11.58,36.69-8.65,7.43-17.43,8.77-25.35,8.77-6.46,0-18.16-.37-27.06-8.41-6.22-5.61-10.85-14.63-10.85-32.3v-17.79ZM999.75,260.38c0-2.32,1.71-5.61,5.61-5.61,3.17,0,5.73,1.95,5.73,5.24s-2.32,6.09-5.85,6.09c-3.9,0-5.48-3.17-5.48-5.73ZM1025.46,260.38c0-2.44,1.71-5.73,5.61-5.73,3.17,0,5.73,1.95,5.73,5.36s-2.32,6.09-5.85,6.09c-3.9,0-5.48-3.17-5.48-5.73Z"/>
    <path class="st0" d="M1082.38,351.06c.24,9.51,1.83,12.68,4.27,13.53,2.07.73,4.39.85,6.34.85,1.34,0,2.07.24,2.07.98,0,.97-1.1,1.22-2.8,1.22-7.92,0-12.8-.37-15.11-.37-1.1,0-6.83.37-13.16.37-1.58,0-2.68-.12-2.68-1.22,0-.73.73-.98,1.95-.98,1.58,0,3.78-.12,5.48-.61,3.17-.98,3.66-4.51,3.78-15.11l1.1-72.15c0-2.44.37-4.14,1.58-4.14,1.34,0,2.44,1.58,4.51,3.78,1.46,1.58,19.99,21.45,37.78,39.12,8.29,8.29,24.74,25.84,26.81,27.79h.61l-1.22-54.72c-.12-7.43-1.22-9.75-4.14-10.97-1.83-.73-4.75-.73-6.46-.73-1.46,0-1.95-.37-1.95-1.1,0-.97,1.34-1.1,3.17-1.1,6.34,0,12.19.37,14.75.37,1.34,0,5.97-.37,11.94-.37,1.58,0,2.8.12,2.8,1.1,0,.73-.73,1.1-2.19,1.1-1.22,0-2.19,0-3.66.37-3.41.98-4.39,3.53-4.51,10.36l-1.34,76.91c0,2.68-.49,3.78-1.58,3.78-1.34,0-2.8-1.34-4.14-2.68-7.68-7.31-23.28-23.28-35.95-35.83-13.28-13.16-26.81-28.4-29.01-30.71h-.37l1.34,51.19Z"/>
    <path class="st0" d="M1178.79,310.84c0-18.53,0-21.94-.24-25.84-.24-4.14-1.22-6.09-5.24-6.95-.98-.24-3.05-.37-4.75-.37-1.34,0-2.07-.24-2.07-1.1s.85-1.1,2.68-1.1c3.29,0,6.83.12,9.87.12,3.17.12,5.97.24,7.68.24,3.9,0,28.15,0,30.47-.12,2.32-.24,4.27-.49,5.24-.73.61-.12,1.34-.49,1.95-.49s.73.49.73,1.1c0,.85-.61,2.32-.98,7.92-.12,1.22-.37,6.58-.61,8.04-.12.61-.37,1.34-1.22,1.34s-1.1-.61-1.1-1.71c0-.85-.12-2.93-.73-4.39-.85-2.19-2.07-3.66-8.17-4.39-2.07-.24-14.87-.49-17.31-.49-.61,0-.85.37-.85,1.22v30.84c0,.85.12,1.34.85,1.34,2.68,0,16.7,0,19.5-.24,2.93-.24,4.75-.61,5.85-1.83.85-.98,1.34-1.59,1.95-1.59.49,0,.85.24.85.98s-.49,2.68-.98,8.9c-.12,2.44-.49,7.31-.49,8.17,0,.97,0,2.32-1.1,2.32-.85,0-1.1-.49-1.1-1.1-.12-1.22-.12-2.8-.49-4.39-.61-2.44-2.32-4.27-6.83-4.75-2.32-.24-14.38-.37-17.31-.37-.61,0-.73.49-.73,1.22v9.63c0,4.14-.12,15.36,0,18.89.24,8.41,2.19,10.24,14.63,10.24,3.17,0,8.29,0,11.46-1.46s4.63-4.02,5.48-9.02c.24-1.34.49-1.83,1.34-1.83.98,0,.98.98.98,2.19,0,2.8-.98,11.09-1.58,13.53-.85,3.17-1.95,3.17-6.58,3.17-9.14,0-15.84-.24-21.09-.37-5.24-.24-9.02-.37-12.68-.37-1.34,0-4.02,0-6.95.12-2.8,0-5.97.24-8.41.24-1.58,0-2.44-.37-2.44-1.22,0-.61.49-.98,1.95-.98,1.83,0,3.29-.24,4.39-.49,2.44-.49,3.05-3.17,3.53-6.7.61-5.12.61-14.75.61-25.96v-21.45Z"/>
    <path class="st0" d="M1258.99,332.29c0,11.7,0,20.84.61,25.96.37,3.53,1.1,6.22,4.75,6.7,1.71.24,4.39.49,6.09.49,1.58,0,2.07.37,2.07.98,0,.85-.85,1.22-2.68,1.22-7.68,0-15.36-.37-18.53-.37s-10.85.37-15.48.37c-1.71,0-2.56-.24-2.56-1.22,0-.61.49-.98,1.83-.98,1.83,0,3.29-.24,4.39-.49,2.44-.49,3.05-3.17,3.53-6.7.61-5.12.61-14.26.61-25.96v-21.45c0-18.53,0-21.94-.24-25.84-.24-4.14-1.22-6.09-5.24-6.95-.98-.24-3.05-.37-4.75-.37-1.22,0-2.07-.24-2.07-.97,0-.98.98-1.22,2.8-1.22,3.17,0,6.7.12,9.87.12,3.17.12,5.97.24,7.68.24,4.63,0,29.37,0,32.18-.12,2.32-.12,3.78-.12,5-.49.73-.24,1.34-.73,1.95-.73.49,0,.85.49.85,1.1,0,.85-.61,2.32-.98,5.48-.12,1.22-.37,8.41-.61,9.87-.12.98-.37,1.71-1.22,1.71s-1.1-.61-1.22-1.95c0-.98,0-2.93-.73-4.63-.85-1.71-3.41-3.53-8.04-3.66l-18.77-.37c-.73,0-1.1.37-1.1,1.71v30.47c0,.73.12,1.1.85,1.1l15.6-.12c2.07,0,3.78,0,5.48-.12,2.32-.12,4.02-.61,5.24-2.19.61-.73.85-1.22,1.58-1.22.49,0,.73.37.73,1.1s-.61,3.78-.97,7.56c-.24,2.44-.49,8.04-.49,8.9,0,1.1,0,2.32-1.22,2.32-.73,0-.98-.85-.98-1.71s-.24-2.32-.73-3.78c-.61-1.71-2.44-3.9-6.22-4.39-3.05-.37-15.97-.37-18.04-.37-.61,0-.85.24-.85,1.1v9.87Z"/>
    <path class="st0" d="M1307.26,310.84c0-18.53,0-21.94-.24-25.84-.24-4.14-1.22-6.09-5.24-6.95-.98-.24-3.05-.37-4.75-.37-1.34,0-2.07-.24-2.07-1.1s.85-1.1,2.68-1.1c3.29,0,6.83.12,9.87.12,3.17.12,5.97.24,7.68.24,3.9,0,28.15,0,30.47-.12,2.32-.24,4.27-.49,5.24-.73.61-.12,1.34-.49,1.95-.49s.73.49.73,1.1c0,.85-.61,2.32-.97,7.92-.12,1.22-.37,6.58-.61,8.04-.12.61-.37,1.34-1.22,1.34s-1.1-.61-1.1-1.71c0-.85-.12-2.93-.73-4.39-.85-2.19-2.07-3.66-8.17-4.39-2.07-.24-14.87-.49-17.31-.49-.61,0-.85.37-.85,1.22v30.84c0,.85.12,1.34.85,1.34,2.68,0,16.7,0,19.5-.24,2.92-.24,4.75-.61,5.85-1.83.85-.98,1.34-1.59,1.95-1.59.49,0,.85.24.85.98s-.49,2.68-.98,8.9c-.12,2.44-.49,7.31-.49,8.17,0,.97,0,2.32-1.1,2.32-.85,0-1.1-.49-1.1-1.1-.12-1.22-.12-2.8-.49-4.39-.61-2.44-2.32-4.27-6.82-4.75-2.32-.24-14.38-.37-17.31-.37-.61,0-.73.49-.73,1.22v9.63c0,4.14-.12,15.36,0,18.89.24,8.41,2.19,10.24,14.63,10.24,3.17,0,8.29,0,11.46-1.46,3.17-1.46,4.63-4.02,5.48-9.02.24-1.34.49-1.83,1.34-1.83.98,0,.98.98.98,2.19,0,2.8-.98,11.09-1.59,13.53-.85,3.17-1.95,3.17-6.58,3.17-9.14,0-15.84-.24-21.09-.37-5.24-.24-9.02-.37-12.68-.37-1.34,0-4.02,0-6.95.12-2.8,0-5.97.24-8.41.24-1.58,0-2.44-.37-2.44-1.22,0-.61.49-.98,1.95-.98,1.83,0,3.29-.24,4.39-.49,2.44-.49,3.05-3.17,3.53-6.7.61-5.12.61-14.75.61-25.96v-21.45Z"/>
  </g>
  <g>
    <g>
      <path class="st0" d="M742.65,428.07c0-11.4,0-13.52-.09-15.91-.18-2.56-.88-3.36-3.36-4.07-.62-.18-1.94-.26-3.09-.26-.8,0-1.33-.27-1.33-.8s.62-.71,1.77-.71c4.07,0,9.02.18,11.22.18,2.39,0,7.95-.18,12.64-.18,9.72,0,22.8,0,31.29,8.57,3.89,3.89,7.34,10.16,7.34,19.09,0,9.46-4.07,16.62-8.48,20.95-3.54,3.53-11.75,8.84-26.07,8.84-2.83,0-6.19-.26-9.28-.44-3.09-.26-5.92-.44-7.87-.44-.88,0-2.56.09-4.42.09-1.86.09-3.8.18-5.39.18-.97,0-1.5-.26-1.5-.8,0-.35.26-.79,1.24-.79,1.15,0,2.03-.09,2.74-.27,1.59-.35,2.03-1.77,2.3-3.98.35-3.18.35-9.1.35-16v-13.26ZM753.08,436.38c0,7.95.09,13.7.18,15.2.09,1.86.27,4.51.88,5.3.97,1.41,4.07,3,10.16,3,7.07,0,12.29-1.24,16.97-5.13,5.04-4.15,6.63-10.87,6.63-18.65,0-9.55-3.8-15.73-7.25-18.74-7.16-6.36-15.64-7.16-21.74-7.16-1.59,0-4.15.18-4.77.53-.71.26-.97.62-.97,1.5-.09,2.56-.09,8.75-.09,14.67v9.46Z"/>
      <path class="st0" d="M806.37,428.07c0-11.4,0-13.52-.09-15.91-.18-2.56-.97-3.45-2.65-3.98-.88-.26-1.86-.35-2.83-.35-.8,0-1.24-.18-1.24-.88,0-.44.62-.62,1.86-.62,2.92,0,8.22.18,10.43.18,1.94,0,6.98-.18,9.99-.18.97,0,1.59.18,1.59.62,0,.71-.44.88-1.24.88s-1.41.09-2.3.26c-2.12.35-2.74,1.41-2.92,4.07-.18,2.39-.18,4.51-.18,15.91v13.26c0,7.25,0,13.26.35,16.44.26,2.03.8,3.18,3.09,3.53,1.06.18,2.83.27,3.98.27.88,0,1.24.44,1.24.79,0,.53-.62.8-1.5.8-5.13,0-10.43-.26-12.55-.26-1.77,0-7.07.26-10.16.26-.97,0-1.5-.26-1.5-.8,0-.35.27-.79,1.24-.79,1.15,0,2.03-.09,2.74-.27,1.59-.35,2.03-1.41,2.3-3.62.35-3.09.35-9.1.35-16.35v-13.26Z"/>
      <path class="st0" d="M833.51,428.07c0-11.4,0-13.52-.09-15.91-.18-2.56-.88-3.36-3.36-4.07-.62-.18-1.94-.26-3.09-.26-.8,0-1.33-.27-1.33-.8s.62-.71,1.77-.71c4.07,0,9.02.18,11.22.18,2.39,0,7.95-.18,12.64-.18,9.72,0,22.8,0,31.29,8.57,3.89,3.89,7.34,10.16,7.34,19.09,0,9.46-4.07,16.62-8.48,20.95-3.54,3.53-11.75,8.84-26.07,8.84-2.83,0-6.19-.26-9.28-.44-3.09-.26-5.92-.44-7.87-.44-.88,0-2.56.09-4.42.09-1.86.09-3.8.18-5.39.18-.97,0-1.5-.26-1.5-.8,0-.35.27-.79,1.24-.79,1.15,0,2.03-.09,2.74-.27,1.59-.35,2.03-1.77,2.3-3.98.35-3.18.35-9.1.35-16v-13.26ZM843.94,436.38c0,7.95.09,13.7.18,15.2.09,1.86.26,4.51.88,5.3.97,1.41,4.07,3,10.16,3,7.07,0,12.29-1.24,16.97-5.13,5.04-4.15,6.63-10.87,6.63-18.65,0-9.55-3.8-15.73-7.25-18.74-7.16-6.36-15.64-7.16-21.74-7.16-1.59,0-4.15.18-4.77.53-.71.26-.97.62-.97,1.5-.09,2.56-.09,8.75-.09,14.67v9.46Z"/>
      <path class="st0" d="M897.23,428.07c0-11.4,0-13.52-.09-15.91-.18-2.56-.97-3.45-2.65-3.98-.88-.26-1.86-.35-2.83-.35-.8,0-1.24-.18-1.24-.88,0-.44.62-.62,1.86-.62,2.92,0,8.22.18,10.43.18,1.94,0,6.98-.18,9.99-.18.97,0,1.59.18,1.59.62,0,.71-.44.88-1.24.88s-1.41.09-2.3.26c-2.12.35-2.74,1.41-2.92,4.07-.18,2.39-.18,4.51-.18,15.91v13.26c0,7.25,0,13.26.35,16.44.26,2.03.8,3.18,3.09,3.53,1.06.18,2.83.27,3.98.27.88,0,1.24.44,1.24.79,0,.53-.62.8-1.5.8-5.13,0-10.43-.26-12.55-.26-1.77,0-7.07.26-10.16.26-.97,0-1.5-.26-1.5-.8,0-.35.27-.79,1.24-.79,1.15,0,2.03-.09,2.74-.27,1.59-.35,2.03-1.41,2.3-3.62.35-3.09.35-9.1.35-16.35v-13.26Z"/>
      <path class="st0" d="M927.28,406.6c.18-1.24.88-1.94,1.5-1.94.8,0,1.33.35,2.39,2.39l20.86,41.89,20.86-42.42c.62-1.24,1.33-1.86,2.03-1.86.62,0,1.5.8,1.77,2.39l7.07,46.4c.71,4.68,1.41,6.72,3.8,7.42,2.21.62,3.45.71,4.42.71.71,0,1.24.26,1.24.71,0,.62-.88.88-2.03.88-1.94,0-12.99-.35-16.09-.53-1.86-.09-2.3-.44-2.3-.88,0-.35.35-.62.88-.8.44-.18.62-1.06.35-3.18l-4.33-32.53h-.26l-16.7,33.59c-1.77,3.53-2.21,4.24-3.09,4.24-.97,0-1.86-1.5-3.09-3.8-1.86-3.45-8.04-14.94-8.93-17.06-.62-1.41-5.21-10.87-7.78-16.09h-.27l-3.71,29.34c-.18,1.33-.26,2.3-.26,3.54,0,1.41,1.06,1.94,2.39,2.21s2.03.35,2.74.35,1.24.35,1.24.71c0,.71-.71.88-1.86.88-3.27,0-6.81-.26-8.22-.26-1.5,0-5.21.26-7.69.26-.8,0-1.41-.18-1.41-.88,0-.35.44-.71,1.24-.71.62,0,1.15,0,2.39-.18,2.12-.26,2.83-3.27,3.18-5.74l7.69-49.05Z"/>
    </g>
    <path class="st0" d="M806.12,396.97c0-2.32,1.71-5.61,5.61-5.61,3.17,0,5.73,1.95,5.73,5.24s-2.32,6.09-5.85,6.09c-3.9,0-5.48-3.17-5.48-5.73Z"/>
    <path class="st0" d="M897.11,396.97c0-2.32,1.71-5.61,5.61-5.61,3.17,0,5.73,1.95,5.73,5.24s-2.32,6.09-5.85,6.09c-3.9,0-5.48-3.17-5.48-5.73Z"/>
  </g>
</svg>