<?xml version="1.0" encoding="UTF-8"?>
<svg id="katman_1" xmlns="http://www.w3.org/2000/svg" version="1.1" viewBox="0 0 1728 624">
  <!-- Generator: Adobe Illustrator 30.2.1, SVG Export Plug-In . SVG Version: 2.1.1 Build 1)  -->
  <defs>
    <style>
      .st0 {
        fill: #fff;
      }
    </style>
  </defs>
  <path class="st0" d="M268.79,139.11c32.28,3.52,64.07,8.41,94.66,22.27,33.75,15.29,62.36,38.77,82.98,70.73l-137.25,78.77,72.06-116.65c-65.85-40.68-150.38-20.2-190.97,43.49-40.23,63.12-22.84,147.24,39.03,189.36,62.19,42.34,146.83,28.09,191.91-34.3,2.79,6.8,4.43,13.23,5.37,20.36-71.01,82.84-214.45,91.39-305.16,38.73-55.93-32.47-89.93-92.62-82.27-157.68,6.1-51.75,37.53-95.22,82.01-121.38,36.31-21.36,75.64-29.42,116.24-33.7h31.39Z"/>
  <path class="st0" d="M954.46,276.25c.83-15.02-10.1-26.52-24.31-27.12-13.75-.58-26.12,10.32-26.16,25.62l-.02,201.74-101.1.05-.06-227.36c-21.43-.37-41.11.45-65.4-1.24l97.11-45.39c29.28-13.68,62.37,5.9,68.98,37.98l80.67-37.33c16.27-7.53,34.43-5.83,49.21,4.03,13.52,9.02,22.52,24.48,22.3,42.7v226.55s-101.14.07-101.14.07l-.08-200.3Z"/>
  <path class="st0" d="M1588.75,276.32c.71-15.03-10.01-26.55-24.23-27.19s-26.14,10.1-26.32,25.5v201.85s-101.04.06-101.04.06l-.06-227.36-65.36-1.27,97.11-45.39c29.37-13.73,62.48,6.26,68.86,38.02l80.79-37.41c15.32-7.1,32.33-5.97,47.08,2.77,12.95,7.67,22.62,21.63,24.32,39.05l.02,231.53-101.08.07-.09-200.23Z"/>
  <path class="st0" d="M458.22,444.2c-29.07-33.6-25.6-81.11,6.85-111.06,44.93-41.49,114.4-41.4,161.88-2.93l-21.27-81.01-125.11-1.14,123.32-45.01c45.44-16.58,93.57,11.27,105.9,57.36l57.82,216.05-101.07-.07-12.95-47.11c-36.61,48.84-99.32,66.6-155.16,43.8-15.7-6.41-28.73-15.61-40.21-28.88ZM577.66,343.38c-28.66,7.19-43.62,35.97-36.23,62.62,7.29,26.3,34.42,41.86,60.67,35.37,27.28-6.74,43.72-34.22,37.02-61.12-6.63-26.62-33.15-43.98-61.46-36.87Z"/>
  <path class="st0" d="M1228.59,199.14c79.69-7.08,147.98,52.24,155.18,129.28,7.38,79-51.21,148.8-129.69,155.88-78.35,7.07-147.94-50.52-155.56-128.62-7.64-78.22,49.69-149.4,130.07-156.54ZM1296.22,425.27l-48.92-182.67c-4.81-17.95-22.42-27.57-39.65-22.62-16.36,4.69-26.12,21.66-21.34,39.45l48.9,182.01c4.74,17.66,22.63,27.06,39.5,22.1,15.01-4.41,26.27-20.48,21.51-38.25Z"/>
</svg>