<svg xmlns="http://www.w3.org/2000/svg" xmlns:xlink="http://www.w3.org/1999/xlink" width="1024" zoomAndPan="magnify" viewBox="0 0 768 767.999994" height="1024" preserveAspectRatio="xMidYMid meet" version="1.0"><defs><g/></defs><g fill="#fffffd" fill-opacity="1"><g transform="translate(143.159116, 405)"><g><path d="M 15.640625 0.5625 C 13.066406 0.5625 10.769531 -0.09375 8.75 -1.40625 C 6.738281 -2.71875 5.148438 -4.617188 3.984375 -7.109375 C 2.816406 -9.597656 2.234375 -12.628906 2.234375 -16.203125 C 2.234375 -19.828125 2.832031 -22.878906 4.03125 -25.359375 C 5.226562 -27.835938 6.832031 -29.71875 8.84375 -31 C 10.863281 -32.28125 13.109375 -32.921875 15.578125 -32.921875 C 17.328125 -32.921875 18.804688 -32.632812 20.015625 -32.0625 C 21.234375 -31.5 22.238281 -30.78125 23.03125 -29.90625 C 23.820312 -29.039062 24.445312 -28.132812 24.90625 -27.1875 L 25.140625 -27.1875 L 25.140625 -43.796875 L 33.890625 -43.796875 L 33.890625 0 L 25.25 0 L 25.25 -5.140625 L 24.921875 -5.140625 C 24.472656 -4.203125 23.84375 -3.296875 23.03125 -2.421875 C 22.21875 -1.546875 21.207031 -0.828125 20 -0.265625 C 18.800781 0.285156 17.347656 0.5625 15.640625 0.5625 Z M 18.21875 -6.5 C 19.726562 -6.5 21.007812 -6.90625 22.0625 -7.71875 C 23.125 -8.53125 23.941406 -9.660156 24.515625 -11.109375 C 25.085938 -12.554688 25.375 -14.265625 25.375 -16.234375 C 25.375 -18.191406 25.09375 -19.890625 24.53125 -21.328125 C 23.96875 -22.765625 23.148438 -23.878906 22.078125 -24.671875 C 21.015625 -25.472656 19.726562 -25.875 18.21875 -25.875 C 16.726562 -25.875 15.457031 -25.46875 14.40625 -24.65625 C 13.363281 -23.851562 12.570312 -22.726562 12.03125 -21.28125 C 11.5 -19.832031 11.234375 -18.148438 11.234375 -16.234375 C 11.234375 -14.285156 11.5 -12.582031 12.03125 -11.125 C 12.570312 -9.664062 13.363281 -8.53125 14.40625 -7.71875 C 15.457031 -6.90625 16.726562 -6.5 18.21875 -6.5 Z M 18.21875 -6.5 "/></g></g></g><g fill="#fffffd" fill-opacity="1"><g transform="translate(180.66605, 405)"><g><path d="M 12.84375 0.625 C 10.769531 0.625 8.910156 0.257812 7.265625 -0.46875 C 5.617188 -1.195312 4.320312 -2.28125 3.375 -3.71875 C 2.4375 -5.15625 1.96875 -6.941406 1.96875 -9.078125 C 1.96875 -10.898438 2.300781 -12.421875 2.96875 -13.640625 C 3.632812 -14.859375 4.546875 -15.835938 5.703125 -16.578125 C 6.859375 -17.328125 8.175781 -17.890625 9.65625 -18.265625 C 11.132812 -18.648438 12.6875 -18.921875 14.3125 -19.078125 C 16.21875 -19.273438 17.75 -19.457031 18.90625 -19.625 C 20.0625 -19.789062 20.898438 -20.050781 21.421875 -20.40625 C 21.953125 -20.757812 22.21875 -21.285156 22.21875 -21.984375 L 22.21875 -22.140625 C 22.21875 -23.035156 22.015625 -23.800781 21.609375 -24.4375 C 21.210938 -25.070312 20.628906 -25.5625 19.859375 -25.90625 C 19.097656 -26.25 18.171875 -26.421875 17.078125 -26.421875 C 15.960938 -26.421875 14.988281 -26.25 14.15625 -25.90625 C 13.320312 -25.5625 12.644531 -25.097656 12.125 -24.515625 C 11.601562 -23.941406 11.238281 -23.296875 11.03125 -22.578125 L 2.9375 -23.609375 C 3.382812 -25.566406 4.242188 -27.238281 5.515625 -28.625 C 6.796875 -30.019531 8.425781 -31.082031 10.40625 -31.8125 C 12.382812 -32.550781 14.640625 -32.921875 17.171875 -32.921875 C 19.015625 -32.921875 20.765625 -32.703125 22.421875 -32.265625 C 24.078125 -31.835938 25.550781 -31.171875 26.84375 -30.265625 C 28.132812 -29.367188 29.144531 -28.226562 29.875 -26.84375 C 30.613281 -25.46875 30.984375 -23.820312 30.984375 -21.90625 L 30.984375 0 L 22.609375 0 L 22.609375 -4.53125 L 22.34375 -4.53125 C 21.8125 -3.507812 21.109375 -2.609375 20.234375 -1.828125 C 19.367188 -1.054688 18.328125 -0.453125 17.109375 -0.015625 C 15.890625 0.410156 14.46875 0.625 12.84375 0.625 Z M 15.3125 -5.53125 C 16.707031 -5.53125 17.921875 -5.800781 18.953125 -6.34375 C 19.992188 -6.894531 20.804688 -7.628906 21.390625 -8.546875 C 21.984375 -9.472656 22.28125 -10.515625 22.28125 -11.671875 L 22.28125 -15.109375 C 22.007812 -14.953125 21.628906 -14.796875 21.140625 -14.640625 C 20.648438 -14.484375 20.085938 -14.34375 19.453125 -14.21875 C 18.828125 -14.101562 18.195312 -13.992188 17.5625 -13.890625 C 16.925781 -13.796875 16.34375 -13.710938 15.8125 -13.640625 C 14.757812 -13.484375 13.820312 -13.234375 13 -12.890625 C 12.175781 -12.546875 11.535156 -12.082031 11.078125 -11.5 C 10.628906 -10.925781 10.40625 -10.207031 10.40625 -9.34375 C 10.40625 -8.519531 10.613281 -7.820312 11.03125 -7.25 C 11.457031 -6.6875 12.035156 -6.257812 12.765625 -5.96875 C 13.503906 -5.675781 14.351562 -5.53125 15.3125 -5.53125 Z M 15.3125 -5.53125 "/></g></g></g><g fill="#fffffd" fill-opacity="1"><g transform="translate(215.233568, 405)"><g><path d="M 12.375 -18.640625 L 12.375 0 L 3.609375 0 L 3.609375 -32.453125 L 11.96875 -32.453125 L 12.078125 -24.28125 L 11.34375 -24.28125 C 12.226562 -27.019531 13.554688 -29.144531 15.328125 -30.65625 C 17.097656 -32.164062 19.378906 -32.921875 22.171875 -32.921875 C 24.421875 -32.921875 26.382812 -32.429688 28.0625 -31.453125 C 29.75 -30.472656 31.050781 -29.0625 31.96875 -27.21875 C 32.894531 -25.375 33.359375 -23.160156 33.359375 -20.578125 L 33.359375 0 L 24.609375 0 L 24.609375 -19.015625 C 24.609375 -21.078125 24.085938 -22.679688 23.046875 -23.828125 C 22.003906 -24.972656 20.554688 -25.546875 18.703125 -25.546875 C 17.460938 -25.546875 16.367188 -25.273438 15.421875 -24.734375 C 14.472656 -24.191406 13.726562 -23.410156 13.1875 -22.390625 C 12.644531 -21.378906 12.375 -20.128906 12.375 -18.640625 Z M 12.375 -18.640625 "/></g></g></g><g fill="#fffffd" fill-opacity="1"><g transform="translate(252.211407, 405)"><g><path d="M 3.609375 0 L 3.609375 -32.453125 L 12.375 -32.453125 L 12.375 0 Z M 8 -36.65625 C 6.644531 -36.65625 5.488281 -37.09375 4.53125 -37.96875 C 3.582031 -38.851562 3.109375 -39.9375 3.109375 -41.21875 C 3.109375 -42.488281 3.582031 -43.5625 4.53125 -44.4375 C 5.488281 -45.320312 6.644531 -45.765625 8 -45.765625 C 9.351562 -45.765625 10.5 -45.320312 11.4375 -44.4375 C 12.375 -43.5625 12.84375 -42.488281 12.84375 -41.21875 C 12.84375 -39.9375 12.375 -38.851562 11.4375 -37.96875 C 10.5 -37.09375 9.351562 -36.65625 8 -36.65625 Z M 8 -36.65625 "/></g></g></g><g fill="#fffffd" fill-opacity="1"><g transform="translate(268.201824, 405)"><g><path d="M 16.609375 0.671875 C 13.960938 0.671875 11.613281 0.285156 9.5625 -0.484375 C 7.519531 -1.253906 5.851562 -2.375 4.5625 -3.84375 C 3.28125 -5.320312 2.472656 -7.085938 2.140625 -9.140625 L 10.40625 -10.265625 C 10.78125 -8.773438 11.492188 -7.644531 12.546875 -6.875 C 13.609375 -6.113281 15.019531 -5.734375 16.78125 -5.734375 C 18.445312 -5.734375 19.757812 -6.050781 20.71875 -6.6875 C 21.6875 -7.320312 22.171875 -8.128906 22.171875 -9.109375 C 22.171875 -9.953125 21.820312 -10.644531 21.125 -11.1875 C 20.425781 -11.726562 19.378906 -12.144531 17.984375 -12.4375 L 12.375 -13.546875 C 9.238281 -14.191406 6.882812 -15.289062 5.3125 -16.84375 C 3.75 -18.394531 2.96875 -20.394531 2.96875 -22.84375 C 2.96875 -24.894531 3.53125 -26.675781 4.65625 -28.1875 C 5.78125 -29.695312 7.367188 -30.863281 9.421875 -31.6875 C 11.472656 -32.507812 13.867188 -32.921875 16.609375 -32.921875 C 19.234375 -32.921875 21.503906 -32.546875 23.421875 -31.796875 C 25.347656 -31.054688 26.894531 -30 28.0625 -28.625 C 29.226562 -27.257812 29.96875 -25.644531 30.28125 -23.78125 L 22.421875 -22.6875 C 22.148438 -23.84375 21.539062 -24.789062 20.59375 -25.53125 C 19.644531 -26.269531 18.375 -26.640625 16.78125 -26.640625 C 15.3125 -26.640625 14.101562 -26.328125 13.15625 -25.703125 C 12.207031 -25.085938 11.734375 -24.289062 11.734375 -23.3125 C 11.734375 -22.488281 12.054688 -21.796875 12.703125 -21.234375 C 13.347656 -20.679688 14.40625 -20.253906 15.875 -19.953125 L 21.75 -18.78125 C 24.925781 -18.15625 27.28125 -17.117188 28.8125 -15.671875 C 30.351562 -14.222656 31.125 -12.332031 31.125 -10 C 31.125 -7.863281 30.503906 -5.992188 29.265625 -4.390625 C 28.035156 -2.796875 26.328125 -1.550781 24.140625 -0.65625 C 21.960938 0.226562 19.453125 0.671875 16.609375 0.671875 Z M 16.609375 0.671875 "/></g></g></g><g fill="#fffffd" fill-opacity="1"><g transform="translate(301.387823, 405)"><g><path d="M 3.609375 0 L 3.609375 -32.453125 L 11.8125 -32.453125 L 12.171875 -24.546875 L 11.546875 -24.546875 C 12.054688 -26.503906 12.804688 -28.101562 13.796875 -29.34375 C 14.785156 -30.59375 15.945312 -31.507812 17.28125 -32.09375 C 18.613281 -32.6875 20.015625 -32.984375 21.484375 -32.984375 C 23.835938 -32.984375 25.773438 -32.25 27.296875 -30.78125 C 28.816406 -29.3125 29.890625 -27.097656 30.515625 -24.140625 L 29.515625 -24.140625 C 29.960938 -26.128906 30.726562 -27.773438 31.8125 -29.078125 C 32.90625 -30.390625 34.203125 -31.367188 35.703125 -32.015625 C 37.203125 -32.660156 38.796875 -32.984375 40.484375 -32.984375 C 42.484375 -32.984375 44.269531 -32.546875 45.84375 -31.671875 C 47.414062 -30.796875 48.65625 -29.53125 49.5625 -27.875 C 50.476562 -26.21875 50.9375 -24.195312 50.9375 -21.8125 L 50.9375 0 L 42.15625 0 L 42.15625 -20.140625 C 42.15625 -21.992188 41.65625 -23.375 40.65625 -24.28125 C 39.65625 -25.195312 38.421875 -25.65625 36.953125 -25.65625 C 35.835938 -25.65625 34.867188 -25.414062 34.046875 -24.9375 C 33.234375 -24.457031 32.609375 -23.785156 32.171875 -22.921875 C 31.734375 -22.066406 31.515625 -21.050781 31.515625 -19.875 L 31.515625 0 L 23.015625 0 L 23.015625 -20.40625 C 23.015625 -22.007812 22.539062 -23.285156 21.59375 -24.234375 C 20.644531 -25.179688 19.414062 -25.65625 17.90625 -25.65625 C 16.863281 -25.65625 15.925781 -25.421875 15.09375 -24.953125 C 14.257812 -24.484375 13.597656 -23.789062 13.109375 -22.875 C 12.617188 -21.96875 12.375 -20.847656 12.375 -19.515625 L 12.375 0 Z M 3.609375 0 "/></g></g></g><g fill="#fffffd" fill-opacity="1"><g transform="translate(355.913974, 405)"><g><path d="M 12.84375 0.625 C 10.769531 0.625 8.910156 0.257812 7.265625 -0.46875 C 5.617188 -1.195312 4.320312 -2.28125 3.375 -3.71875 C 2.4375 -5.15625 1.96875 -6.941406 1.96875 -9.078125 C 1.96875 -10.898438 2.300781 -12.421875 2.96875 -13.640625 C 3.632812 -14.859375 4.546875 -15.835938 5.703125 -16.578125 C 6.859375 -17.328125 8.175781 -17.890625 9.65625 -18.265625 C 11.132812 -18.648438 12.6875 -18.921875 14.3125 -19.078125 C 16.21875 -19.273438 17.75 -19.457031 18.90625 -19.625 C 20.0625 -19.789062 20.898438 -20.050781 21.421875 -20.40625 C 21.953125 -20.757812 22.21875 -21.285156 22.21875 -21.984375 L 22.21875 -22.140625 C 22.21875 -23.035156 22.015625 -23.800781 21.609375 -24.4375 C 21.210938 -25.070312 20.628906 -25.5625 19.859375 -25.90625 C 19.097656 -26.25 18.171875 -26.421875 17.078125 -26.421875 C 15.960938 -26.421875 14.988281 -26.25 14.15625 -25.90625 C 13.320312 -25.5625 12.644531 -25.097656 12.125 -24.515625 C 11.601562 -23.941406 11.238281 -23.296875 11.03125 -22.578125 L 2.9375 -23.609375 C 3.382812 -25.566406 4.242188 -27.238281 5.515625 -28.625 C 6.796875 -30.019531 8.425781 -31.082031 10.40625 -31.8125 C 12.382812 -32.550781 14.640625 -32.921875 17.171875 -32.921875 C 19.015625 -32.921875 20.765625 -32.703125 22.421875 -32.265625 C 24.078125 -31.835938 25.550781 -31.171875 26.84375 -30.265625 C 28.132812 -29.367188 29.144531 -28.226562 29.875 -26.84375 C 30.613281 -25.46875 30.984375 -23.820312 30.984375 -21.90625 L 30.984375 0 L 22.609375 0 L 22.609375 -4.53125 L 22.34375 -4.53125 C 21.8125 -3.507812 21.109375 -2.609375 20.234375 -1.828125 C 19.367188 -1.054688 18.328125 -0.453125 17.109375 -0.015625 C 15.890625 0.410156 14.46875 0.625 12.84375 0.625 Z M 15.3125 -5.53125 C 16.707031 -5.53125 17.921875 -5.800781 18.953125 -6.34375 C 19.992188 -6.894531 20.804688 -7.628906 21.390625 -8.546875 C 21.984375 -9.472656 22.28125 -10.515625 22.28125 -11.671875 L 22.28125 -15.109375 C 22.007812 -14.953125 21.628906 -14.796875 21.140625 -14.640625 C 20.648438 -14.484375 20.085938 -14.34375 19.453125 -14.21875 C 18.828125 -14.101562 18.195312 -13.992188 17.5625 -13.890625 C 16.925781 -13.796875 16.34375 -13.710938 15.8125 -13.640625 C 14.757812 -13.484375 13.820312 -13.234375 13 -12.890625 C 12.175781 -12.546875 11.535156 -12.082031 11.078125 -11.5 C 10.628906 -10.925781 10.40625 -10.207031 10.40625 -9.34375 C 10.40625 -8.519531 10.613281 -7.820312 11.03125 -7.25 C 11.457031 -6.6875 12.035156 -6.257812 12.765625 -5.96875 C 13.503906 -5.675781 14.351562 -5.53125 15.3125 -5.53125 Z M 15.3125 -5.53125 "/></g></g></g><g fill="#fffffd" fill-opacity="1"><g transform="translate(390.481492, 405)"><g><path d="M 12.375 -18.640625 L 12.375 0 L 3.609375 0 L 3.609375 -32.453125 L 11.96875 -32.453125 L 12.078125 -24.28125 L 11.34375 -24.28125 C 12.226562 -27.019531 13.554688 -29.144531 15.328125 -30.65625 C 17.097656 -32.164062 19.378906 -32.921875 22.171875 -32.921875 C 24.421875 -32.921875 26.382812 -32.429688 28.0625 -31.453125 C 29.75 -30.472656 31.050781 -29.0625 31.96875 -27.21875 C 32.894531 -25.375 33.359375 -23.160156 33.359375 -20.578125 L 33.359375 0 L 24.609375 0 L 24.609375 -19.015625 C 24.609375 -21.078125 24.085938 -22.679688 23.046875 -23.828125 C 22.003906 -24.972656 20.554688 -25.546875 18.703125 -25.546875 C 17.460938 -25.546875 16.367188 -25.273438 15.421875 -24.734375 C 14.472656 -24.191406 13.726562 -23.410156 13.1875 -22.390625 C 12.644531 -21.378906 12.375 -20.128906 12.375 -18.640625 Z M 12.375 -18.640625 "/></g></g></g><g fill="#fffffd" fill-opacity="1"><g transform="translate(427.459319, 405)"><g><path d="M 18.25 0.640625 C 14.976562 0.640625 12.140625 -0.0546875 9.734375 -1.453125 C 7.335938 -2.859375 5.488281 -4.816406 4.1875 -7.328125 C 2.882812 -9.847656 2.234375 -12.773438 2.234375 -16.109375 C 2.234375 -19.484375 2.882812 -22.425781 4.1875 -24.9375 C 5.488281 -27.457031 7.335938 -29.414062 9.734375 -30.8125 C 12.140625 -32.21875 14.976562 -32.921875 18.25 -32.921875 C 21.507812 -32.921875 24.335938 -32.21875 26.734375 -30.8125 C 29.140625 -29.414062 30.992188 -27.457031 32.296875 -24.9375 C 33.597656 -22.425781 34.25 -19.484375 34.25 -16.109375 C 34.25 -12.773438 33.597656 -9.847656 32.296875 -7.328125 C 30.992188 -4.816406 29.140625 -2.859375 26.734375 -1.453125 C 24.335938 -0.0546875 21.507812 0.640625 18.25 0.640625 Z M 18.25 -6.296875 C 19.78125 -6.296875 21.066406 -6.710938 22.109375 -7.546875 C 23.160156 -8.390625 23.960938 -9.550781 24.515625 -11.03125 C 25.066406 -12.507812 25.34375 -14.210938 25.34375 -16.140625 C 25.34375 -18.078125 25.066406 -19.78125 24.515625 -21.25 C 23.960938 -22.71875 23.160156 -23.875 22.109375 -24.71875 C 21.066406 -25.5625 19.78125 -25.984375 18.25 -25.984375 C 16.726562 -25.984375 15.4375 -25.5625 14.375 -24.71875 C 13.3125 -23.875 12.507812 -22.71875 11.96875 -21.25 C 11.4375 -19.78125 11.171875 -18.078125 11.171875 -16.140625 C 11.171875 -14.210938 11.4375 -12.507812 11.96875 -11.03125 C 12.507812 -9.550781 13.304688 -8.390625 14.359375 -7.546875 C 15.410156 -6.710938 16.707031 -6.296875 18.25 -6.296875 Z M 18.25 -6.296875 "/></g></g></g><g fill="#fffffd" fill-opacity="1"><g transform="translate(463.937475, 405)"><g><path d="M 12.375 -43.796875 L 12.375 0 L 3.609375 0 L 3.609375 -43.796875 Z M 12.375 -43.796875 "/></g></g></g><g fill="#fffffd" fill-opacity="1"><g transform="translate(479.927892, 405)"><g><path d="M 9.46875 0.5625 C 8.03125 0.5625 6.820312 0.078125 5.84375 -0.890625 C 4.863281 -1.867188 4.375 -3.070312 4.375 -4.5 C 4.375 -5.90625 4.863281 -7.09375 5.84375 -8.0625 C 6.820312 -9.039062 8.03125 -9.53125 9.46875 -9.53125 C 10.875 -9.53125 12.066406 -9.039062 13.046875 -8.0625 C 14.023438 -7.09375 14.515625 -5.90625 14.515625 -4.5 C 14.515625 -3.070312 14.023438 -1.867188 13.046875 -0.890625 C 12.066406 0.078125 10.875 0.5625 9.46875 0.5625 Z M 9.46875 0.5625 "/></g></g></g><g fill="#fffffd" fill-opacity="1"><g transform="translate(498.828335, 405)"><g><path d="M 18.203125 0.640625 C 14.941406 0.640625 12.113281 -0.0546875 9.71875 -1.453125 C 7.332031 -2.859375 5.488281 -4.816406 4.1875 -7.328125 C 2.882812 -9.847656 2.234375 -12.773438 2.234375 -16.109375 C 2.234375 -19.460938 2.882812 -22.398438 4.1875 -24.921875 C 5.488281 -27.453125 7.332031 -29.414062 9.71875 -30.8125 C 12.113281 -32.21875 14.941406 -32.921875 18.203125 -32.921875 C 20.179688 -32.921875 22 -32.660156 23.65625 -32.140625 C 25.3125 -31.617188 26.773438 -30.867188 28.046875 -29.890625 C 29.316406 -28.910156 30.359375 -27.726562 31.171875 -26.34375 C 31.984375 -24.96875 32.53125 -23.414062 32.8125 -21.6875 L 24.578125 -20.515625 C 24.398438 -21.359375 24.132812 -22.113281 23.78125 -22.78125 C 23.425781 -23.445312 22.984375 -24.019531 22.453125 -24.5 C 21.929688 -24.976562 21.320312 -25.34375 20.625 -25.59375 C 19.925781 -25.851562 19.144531 -25.984375 18.28125 -25.984375 C 16.738281 -25.984375 15.441406 -25.570312 14.390625 -24.75 C 13.335938 -23.925781 12.535156 -22.773438 11.984375 -21.296875 C 11.441406 -19.816406 11.171875 -18.097656 11.171875 -16.140625 C 11.171875 -14.203125 11.441406 -12.492188 11.984375 -11.015625 C 12.535156 -9.535156 13.335938 -8.378906 14.390625 -7.546875 C 15.441406 -6.710938 16.738281 -6.296875 18.28125 -6.296875 C 19.144531 -6.296875 19.925781 -6.425781 20.625 -6.6875 C 21.320312 -6.945312 21.9375 -7.320312 22.46875 -7.8125 C 23.007812 -8.300781 23.460938 -8.894531 23.828125 -9.59375 C 24.191406 -10.289062 24.453125 -11.082031 24.609375 -11.96875 L 32.828125 -10.765625 C 32.578125 -9.015625 32.046875 -7.441406 31.234375 -6.046875 C 30.421875 -4.660156 29.375 -3.460938 28.09375 -2.453125 C 26.820312 -1.441406 25.347656 -0.671875 23.671875 -0.140625 C 22.003906 0.378906 20.179688 0.640625 18.203125 0.640625 Z M 18.203125 0.640625 "/></g></g></g><g fill="#fffffd" fill-opacity="1"><g transform="translate(533.807383, 405)"><g><path d="M 18.25 0.640625 C 14.976562 0.640625 12.140625 -0.0546875 9.734375 -1.453125 C 7.335938 -2.859375 5.488281 -4.816406 4.1875 -7.328125 C 2.882812 -9.847656 2.234375 -12.773438 2.234375 -16.109375 C 2.234375 -19.484375 2.882812 -22.425781 4.1875 -24.9375 C 5.488281 -27.457031 7.335938 -29.414062 9.734375 -30.8125 C 12.140625 -32.21875 14.976562 -32.921875 18.25 -32.921875 C 21.507812 -32.921875 24.335938 -32.21875 26.734375 -30.8125 C 29.140625 -29.414062 30.992188 -27.457031 32.296875 -24.9375 C 33.597656 -22.425781 34.25 -19.484375 34.25 -16.109375 C 34.25 -12.773438 33.597656 -9.847656 32.296875 -7.328125 C 30.992188 -4.816406 29.140625 -2.859375 26.734375 -1.453125 C 24.335938 -0.0546875 21.507812 0.640625 18.25 0.640625 Z M 18.25 -6.296875 C 19.78125 -6.296875 21.066406 -6.710938 22.109375 -7.546875 C 23.160156 -8.390625 23.960938 -9.550781 24.515625 -11.03125 C 25.066406 -12.507812 25.34375 -14.210938 25.34375 -16.140625 C 25.34375 -18.078125 25.066406 -19.78125 24.515625 -21.25 C 23.960938 -22.71875 23.160156 -23.875 22.109375 -24.71875 C 21.066406 -25.5625 19.78125 -25.984375 18.25 -25.984375 C 16.726562 -25.984375 15.4375 -25.5625 14.375 -24.71875 C 13.3125 -23.875 12.507812 -22.71875 11.96875 -21.25 C 11.4375 -19.78125 11.171875 -18.078125 11.171875 -16.140625 C 11.171875 -14.210938 11.4375 -12.507812 11.96875 -11.03125 C 12.507812 -9.550781 13.304688 -8.390625 14.359375 -7.546875 C 15.410156 -6.710938 16.707031 -6.296875 18.25 -6.296875 Z M 18.25 -6.296875 "/></g></g></g><g fill="#fffffd" fill-opacity="1"><g transform="translate(570.285515, 405)"><g><path d="M 3.609375 0 L 3.609375 -32.453125 L 11.8125 -32.453125 L 12.171875 -24.546875 L 11.546875 -24.546875 C 12.054688 -26.503906 12.804688 -28.101562 13.796875 -29.34375 C 14.785156 -30.59375 15.945312 -31.507812 17.28125 -32.09375 C 18.613281 -32.6875 20.015625 -32.984375 21.484375 -32.984375 C 23.835938 -32.984375 25.773438 -32.25 27.296875 -30.78125 C 28.816406 -29.3125 29.890625 -27.097656 30.515625 -24.140625 L 29.515625 -24.140625 C 29.960938 -26.128906 30.726562 -27.773438 31.8125 -29.078125 C 32.90625 -30.390625 34.203125 -31.367188 35.703125 -32.015625 C 37.203125 -32.660156 38.796875 -32.984375 40.484375 -32.984375 C 42.484375 -32.984375 44.269531 -32.546875 45.84375 -31.671875 C 47.414062 -30.796875 48.65625 -29.53125 49.5625 -27.875 C 50.476562 -26.21875 50.9375 -24.195312 50.9375 -21.8125 L 50.9375 0 L 42.15625 0 L 42.15625 -20.140625 C 42.15625 -21.992188 41.65625 -23.375 40.65625 -24.28125 C 39.65625 -25.195312 38.421875 -25.65625 36.953125 -25.65625 C 35.835938 -25.65625 34.867188 -25.414062 34.046875 -24.9375 C 33.234375 -24.457031 32.609375 -23.785156 32.171875 -22.921875 C 31.734375 -22.066406 31.515625 -21.050781 31.515625 -19.875 L 31.515625 0 L 23.015625 0 L 23.015625 -20.40625 C 23.015625 -22.007812 22.539062 -23.285156 21.59375 -24.234375 C 20.644531 -25.179688 19.414062 -25.65625 17.90625 -25.65625 C 16.863281 -25.65625 15.925781 -25.421875 15.09375 -24.953125 C 14.257812 -24.484375 13.597656 -23.789062 13.109375 -22.875 C 12.617188 -21.96875 12.375 -20.847656 12.375 -19.515625 L 12.375 0 Z M 3.609375 0 "/></g></g></g></svg>