<?xml version="1.0" encoding="UTF-8"?>
<svg id="katman_1" xmlns="http://www.w3.org/2000/svg" version="1.1" viewBox="0 0 1728 624">
  <!-- Generator: Adobe Illustrator 30.2.1, SVG Export Plug-In . SVG Version: 2.1.1 Build 1)  -->
  <defs>
    <style>
      .st0 {
        fill: #fff;
      }
    </style>
  </defs>
  <g>
    <g>
      <path class="st0" d="M300.96,179.74v70.43h-47.45v-70.43h-55.84v198.79h55.84v-73.27h47.45v73.27h55.84v-198.79h-55.84Z"/>
      <path class="st0" d="M485.2,179.74h-65.32l-62.26,198.79h60.02l6.7-25.56h56.39l6.7,25.56h60.02l-62.25-198.79ZM436.35,307.53l16.19-61.06,16.19,61.06h-32.38Z"/>
      <path class="st0" d="M604.12,323.44v-143.7h-55.83v198.79h120.03v-55.09h-64.2Z"/>
      <path class="st0" d="M730.57,179.74h-55.83v198.79h55.83v-147.27c-11.64-6.38-23.29-12.76-34.93-19.14,11.64-4.48,23.29-8.96,34.93-13.44v-18.94Z"/>
      <path class="st0" d="M803.99,323.44v-143.7h-55.83v198.79h120.03v-55.09h-64.2Z"/>
    </g>
    <g>
      <path class="st0" d="M1048.8,179.74v130.92c0,14.01-4.1,25.13-12.28,33.36-8.19,8.24-19.91,12.35-35.18,12.35s-26.98-4.11-35.17-12.35c-8.19-8.24-12.28-19.35-12.28-33.36v-130.92h-25.96v132.05c0,21.4,6.85,38.48,20.52,51.26,13.68,12.77,31.32,19.16,52.9,19.16s39.18-6.39,52.77-19.16c13.58-12.78,20.37-29.86,20.37-51.26v-132.05h-25.68Z"/>
      <path class="st0" d="M1233.18,313.34c-.84-3.7-1.82-6.98-2.93-9.82-1.12-2.84-2.93-5.64-5.44-8.39-2.52-2.75-4.7-5.07-6.56-6.97-1.86-1.89-4.69-3.89-8.51-5.97-3.81-2.08-6.83-3.7-9.07-4.84-2.23-1.13-5.72-2.56-10.48-4.27-4.75-1.71-8.28-2.98-10.56-3.81-2.29-.82-6.08-2.19-11.36-4.09-15.08-4.92-25.7-9.65-31.83-14.19-6.15-4.54-9.21-11.16-9.21-19.86s3.26-16.27,9.77-21.57c6.52-5.3,15.07-7.95,25.69-7.95,21.21,0,36.01,10.23,44.38,30.67l21.77-12.77c-5.77-13.06-14.37-23.57-25.82-31.52-11.45-7.95-24.89-11.93-40.34-11.93-17.12,0-31.64,5.07-43.55,15.2-11.91,10.13-17.87,23.81-17.87,41.03,0,7.2,1.26,13.64,3.77,19.32,2.52,5.68,5.35,10.27,8.51,13.77,3.16,3.51,7.96,6.91,14.38,10.23,6.42,3.31,11.79,5.73,16.11,7.23,4.31,1.51,10.54,3.69,18.64,6.53,16.56,5.3,28.38,10.32,35.45,15.06,7.07,4.74,10.61,11.83,10.61,21.31s-3.54,16.71-10.61,22.29c-7.07,5.59-17.3,8.38-30.7,8.38-27.17,0-44.57-12.01-52.21-36.06l-22.33,13.06c5.2,15.15,14.28,27.08,27.21,35.78,12.94,8.71,28.52,13.06,46.76,13.06,20.1,0,36.38-5.15,48.85-15.47,12.46-10.32,18.7-24.18,18.7-41.61,0-4.17-.41-8.1-1.25-11.8Z"/>
      <path class="st0" d="M1231.91,179.74v25h57.5v173.79h25.69v-173.79h57.78v-25h-140.97Z"/>
      <path class="st0" d="M1457.47,179.74h-29.31l-72.86,198.79h27.64l15.95-44.58h87.87l15.94,44.58h27.63l-72.86-198.79ZM1407.71,309.24l35.1-98.14,35.1,98.14h-70.2Z"/>
    </g>
  </g>
  <g>
    <path class="st0" d="M219.32,414.38h-16.65v12.19h15.95v4.73h-15.95v15.95h-5v-37.6h21.65v4.73Z"/>
    <path class="st0" d="M315.12,442.26c-3.78,3.8-8.39,5.69-13.83,5.69s-10.05-1.9-13.81-5.69c-3.76-3.8-5.64-8.4-5.64-13.81s1.88-10.05,5.64-13.83c3.76-3.78,8.36-5.67,13.81-5.67s10.05,1.89,13.83,5.67c3.78,3.78,5.67,8.39,5.67,13.83s-1.89,10.01-5.67,13.81ZM290.95,438.84c2.77,2.81,6.22,4.22,10.34,4.22s7.56-1.41,10.34-4.22c2.77-2.81,4.16-6.28,4.16-10.39s-1.39-7.64-4.16-10.45c-2.78-2.81-6.22-4.22-10.34-4.22s-7.57,1.41-10.34,4.22c-2.78,2.81-4.16,6.29-4.16,10.45s1.39,7.58,4.16,10.39Z"/>
    <path class="st0" d="M407.54,447.25l-8.42-14.4h-8.87v14.4h-5v-37.6h15.04c3.22,0,5.98,1.14,8.27,3.41,2.29,2.27,3.44,5.02,3.44,8.25,0,2.44-.73,4.66-2.18,6.66-1.45,2.01-3.32,3.42-5.61,4.24l8.86,15.04h-5.53ZM390.25,414.32v14.02h10.04c1.86,0,3.45-.69,4.75-2.07,1.31-1.38,1.96-3.04,1.96-4.97s-.65-3.58-1.96-4.94c-1.31-1.36-2.89-2.04-4.75-2.04h-10.04Z"/>
    <path class="st0" d="M491.18,409.65c5.12,0,9.37,1.82,12.76,5.45,3.38,3.64,5.08,8.08,5.08,13.35s-1.69,9.71-5.08,13.35c-3.38,3.64-7.64,5.45-12.76,5.45h-14.66v-37.6h14.66ZM491.18,442.52c3.83,0,6.96-1.34,9.4-4.03,2.43-2.69,3.65-6.03,3.65-10.05s-1.22-7.36-3.65-10.04c-2.44-2.69-5.57-4.03-9.4-4.03h-9.67v28.15h9.67Z"/>
    <path class="st0" d="M676.69,442.26c-3.78,3.8-8.39,5.69-13.83,5.69s-10.05-1.9-13.81-5.69c-3.76-3.8-5.64-8.4-5.64-13.81s1.88-10.05,5.64-13.83c3.76-3.78,8.36-5.67,13.81-5.67s10.05,1.89,13.83,5.67c3.78,3.78,5.67,8.39,5.67,13.83s-1.89,10.01-5.67,13.81ZM652.52,438.84c2.77,2.81,6.22,4.22,10.34,4.22s7.56-1.41,10.34-4.22c2.77-2.81,4.16-6.28,4.16-10.39s-1.39-7.64-4.16-10.45c-2.78-2.81-6.22-4.22-10.34-4.22s-7.57,1.41-10.34,4.22c-2.78,2.81-4.16,6.29-4.16,10.45s1.39,7.58,4.16,10.39ZM659.74,405.11c-.54.56-1.2.83-1.99.83s-1.46-.28-2.01-.83c-.56-.55-.83-1.23-.83-2.01s.28-1.45.83-1.99c.55-.54,1.23-.81,2.01-.81s1.45.27,1.99.81.81,1.2.81,1.99-.27,1.46-.81,2.01ZM669.95,405.11c-.54.56-1.2.83-1.99.83s-1.46-.28-2.01-.83c-.56-.55-.83-1.23-.83-2.01s.28-1.45.83-1.99c.55-.54,1.23-.81,2.01-.81s1.45.27,1.99.81c.54.54.81,1.2.81,1.99s-.27,1.46-.81,2.01Z"/>
    <path class="st0" d="M749.53,442.52h18.64v4.73h-24.54v-4.36l18.17-28.51h-17.67v-4.73h23.62v4.29l-18.22,28.59Z"/>
    <path class="st0" d="M837.22,442.52h17.46v4.73h-22.45v-37.6h22.19v4.73h-17.19v11.55h15.85v4.67h-15.85v11.93Z"/>
    <path class="st0" d="M924.14,442.52h16.22v4.73h-21.22v-37.6h5v32.87Z"/>
    <path class="st0" d="M1087.81,447.95c-3.51,0-6.51-.82-9-2.47-2.49-1.65-4.24-3.9-5.24-6.77l4.3-2.47c1.47,4.55,4.82,6.82,10.05,6.82,2.58,0,4.55-.53,5.91-1.58,1.36-1.06,2.04-2.46,2.04-4.22s-.68-3.13-2.04-4.03c-1.36-.9-3.64-1.85-6.82-2.85-1.56-.54-2.76-.95-3.59-1.23-.83-.29-1.86-.74-3.1-1.37-1.24-.63-2.16-1.27-2.77-1.93-.61-.66-1.16-1.53-1.64-2.61-.48-1.07-.73-2.29-.73-3.65,0-3.26,1.15-5.85,3.44-7.76,2.29-1.92,5.08-2.87,8.38-2.87,2.97,0,5.56.75,7.76,2.26,2.2,1.5,3.86,3.49,4.97,5.96l-4.19,2.42c-1.61-3.87-4.46-5.8-8.54-5.8-2.04,0-3.69.5-4.94,1.5-1.25,1-1.88,2.36-1.88,4.08s.59,2.9,1.77,3.76c1.18.86,3.22,1.75,6.13,2.68,1.02.36,1.75.62,2.18.77.44.16,1.12.4,2.03.72s1.59.59,2.02.81c.43.21,1.01.52,1.75.91.73.39,1.28.77,1.64,1.13.36.36.78.8,1.26,1.32.48.52.83,1.05,1.05,1.59.22.54.4,1.16.56,1.86.16.7.24,1.44.24,2.23,0,3.29-1.2,5.92-3.6,7.87-2.4,1.95-5.53,2.93-9.4,2.93Z"/>
    <path class="st0" d="M1169.89,442.52h17.46v4.73h-22.45v-37.6h22.19v4.73h-17.19v11.55h15.85v4.67h-15.85v11.93Z"/>
    <path class="st0" d="M1274.1,447.25l-8.42-14.4h-8.87v14.4h-5v-37.6h15.04c3.22,0,5.98,1.14,8.27,3.41,2.29,2.27,3.44,5.02,3.44,8.25,0,2.44-.73,4.66-2.18,6.66-1.45,2.01-3.32,3.42-5.61,4.24l8.86,15.04h-5.53ZM1256.8,414.32v14.02h10.04c1.86,0,3.45-.69,4.75-2.07,1.31-1.38,1.96-3.04,1.96-4.97s-.65-3.58-1.96-4.94c-1.31-1.36-2.89-2.04-4.75-2.04h-10.04Z"/>
    <path class="st0" d="M1352.31,447.25l-13.43-37.6h5.37l10.91,31.35,10.84-31.35h5.43l-13.48,37.6h-5.64Z"/>
    <path class="st0" d="M1436.75,406.21c-.93,0-1.73-.32-2.39-.97-.66-.64-.99-1.43-.99-2.36s.33-1.73.99-2.39,1.46-.99,2.39-.99,1.72.33,2.36.99c.64.66.97,1.46.97,2.39s-.33,1.72-.99,2.36c-.66.64-1.44.97-2.34.97ZM1434.28,409.65h5v37.6h-5v-37.6Z"/>
    <path class="st0" d="M1517.33,447.95c-3.51,0-6.51-.82-9-2.47-2.49-1.65-4.24-3.9-5.24-6.77l4.3-2.47c1.47,4.55,4.82,6.82,10.05,6.82,2.58,0,4.55-.53,5.91-1.58,1.36-1.06,2.04-2.46,2.04-4.22s-.68-3.13-2.04-4.03c-1.36-.9-3.64-1.85-6.82-2.85-1.56-.54-2.76-.95-3.59-1.23-.83-.29-1.86-.74-3.1-1.37-1.24-.63-2.16-1.27-2.77-1.93-.61-.66-1.16-1.53-1.64-2.61-.48-1.07-.73-2.29-.73-3.65,0-3.26,1.15-5.85,3.44-7.76,2.29-1.92,5.08-2.87,8.38-2.87,2.97,0,5.56.75,7.76,2.26,2.2,1.5,3.86,3.49,4.97,5.96l-4.19,2.42c-1.61-3.87-4.46-5.8-8.54-5.8-2.04,0-3.69.5-4.94,1.5-1.25,1-1.88,2.36-1.88,4.08s.59,2.9,1.77,3.76c1.18.86,3.22,1.75,6.13,2.68,1.02.36,1.75.62,2.18.77.44.16,1.12.4,2.03.72s1.59.59,2.02.81c.43.21,1.01.52,1.75.91.73.39,1.28.77,1.64,1.13.36.36.78.8,1.26,1.32.48.52.83,1.05,1.05,1.59.22.54.4,1.16.56,1.86.16.7.24,1.44.24,2.23,0,3.29-1.2,5.92-3.6,7.87-2.4,1.95-5.53,2.93-9.4,2.93Z"/>
  </g>
</svg>