<?xml version="1.0" encoding="UTF-8"?>
<svg id="katman_1" xmlns="http://www.w3.org/2000/svg" version="1.1" viewBox="0 0 1728 624">
  <!-- Generator: Adobe Illustrator 30.2.1, SVG Export Plug-In . SVG Version: 2.1.1 Build 1)  -->
  <defs>
    <style>
      .st0 {
        fill: #fff;
      }
    </style>
  </defs>
  <path class="st0" d="M536.99,247.86c-15.57,5.12-24.14,20.51-27.19,35.79l-16.88,84.5-46.78-.04,17.54-88.35c2.19-13.69.04-29.55-15.59-33.08-7.52-1.69-15.28-1.29-22.69,1.03-16.4,5.15-24.23,20.66-28.01,36.49l-16.56,83.96-46.77-.06,31.94-160.51h44.27s-3.16,16.06-3.16,16.06c14.28-12.48,31.5-18.7,50.1-18.39,19.17-.17,39.47,7.42,49.02,26.02,10.51-11.34,23.26-19.27,38.09-23.15,13.01-3.41,26.37-3.93,39.54-1.27,10.28,2.08,19.43,6.69,26.8,14.03,14.36,14.29,15.68,35.52,12.65,54.68l-18.32,92.59-46.77-.05,17.35-87.42c.91-6.19,1.27-11.91.12-17.89-1.54-8.06-7.15-14.17-15.21-16.03-7.77-1.8-15.84-1.41-23.5,1.11Z"/>
  <path class="st0" d="M1123.07,368.15l2.59-15.14c-12.66,10.9-27.26,16.47-43.59,17.39-16.7.94-32.97-3.01-46.54-12.87-14.74-10.71-24.09-26.88-26.77-44.9-1.51-10.16-1.37-19.88.11-30.1,6.33-43.73,41.87-77.23,86.63-77.31,20.95-.04,40.42,4.98,52.91,23.67l4.22-21.32,46.71.07-31.93,160.49-44.34.03ZM1091.57,331.81c18.28.13,33.95-10.2,41.36-26.64,4.94-10.95,6.56-23.3,4.4-35.18s-9.93-20.29-20.77-23.91c-5.19-1.74-10.14-2.14-15.66-2.15-17.8-.03-33.44,10.21-40.8,26.5-4.98,11.02-6.59,23.47-4.39,35.43s10.25,20.45,21.25,23.93c4.75,1.5,9.25,1.98,14.61,2.01Z"/>
  <path class="st0" d="M968.68,393.52l-87.76-87.73v307.08c-2.72,7.7-22.68,5.9-22.68-.49V11.63c0-2.01,2.26-3.44,3.67-4.05,4.89-2.09,10.05-1.9,15.06-.24,1.11.83,3.88,1.81,3.94,3.81v270.91s79.38-79.35,79.38-79.35l12.76,12.77-78.43,78.42,86.8,86.81-12.75,12.8Z"/>
  <path class="st0" d="M722.05,331.1c19.83,4.73,43.43.86,59.61-13.03l19.48,30.92c-24.17,19.56-58.66,24.69-88.09,19.82-9.41-1.75-17.91-4.5-26.26-8.94-18.03-9.59-30.28-26.46-33.7-46.77-2.71-16.1-1.11-32.7,4.31-48.09,9.58-27.2,31.31-47.56,58.99-55.65,16.14-4.72,33.12-5.34,49.71-2.39,24.05,4.27,44.02,19.18,52.36,42.42,5.97,16.58,5.15,33.97,1.68,51.13h-122.66c.46,8.19,2.92,15.27,7.88,21.08,4.52,4.81,10.15,7.95,16.7,9.52ZM779.91,273.13c.12-6.9-1.35-12.5-4.37-17.79-8.48-13.62-24.86-16.65-39.85-14.36-17.28,2.64-29.96,15.23-34.91,32.15h79.13Z"/>
  <path class="st0" d="M1344.85,263.22c-3.83-17.87-23.43-19.49-38.17-16.27-19.51,4.26-29.9,20.37-33.63,39.11l-16.23,82.08-46.78-.02,31.93-160.54h44.28s-3.1,16.51-3.1,16.51c10.5-8.82,21.67-14.67,34.77-17.21,17.88-3.47,38.78-2.16,54.39,8.06,20.91,13.7,24,37.69,20.25,60.86l-18.62,92.36-46.78-.04,18.02-89.36c.64-5.45.78-10.37-.33-15.54Z"/>
</svg>