<?xml version="1.0" encoding="UTF-8"?>
<svg id="katman_1" xmlns="http://www.w3.org/2000/svg" version="1.1" viewBox="0 0 1728 624">
  <!-- Generator: Adobe Illustrator 30.2.1, SVG Export Plug-In . SVG Version: 2.1.1 Build 1)  -->
  <defs>
    <style>
      .st0 {
        fill: #fff;
      }
    </style>
  </defs>
  <path class="st0" d="M1478.61,492.1H456.87s.05-119.68.05-119.68l1021.58-.02.12,119.7ZM1077.91,400.9c5.07-.65,8.59-4.74,7.82-9.1-.69-3.94-4.4-6.93-8.88-6.69-5.13.27-8.77,3.76-8.52,8.61.22,4.18,4.26,7.87,9.58,7.19ZM953.27,388.53c-4.07,1.16-6.03,5.43-4.77,8.53,1.41,3.48,4.91,4.9,8.64,3.96,2.77-.7,4.97-4.61,4.08-7.8-.84-3.02-4.67-5.63-7.95-4.69ZM973.14,388.59c-3.97,1.27-5.39,5.4-4.23,8.84,1.08,3.2,5.14,4.88,8.7,3.36,2.87-1.23,5.19-4.97,3.55-8.48-1.17-2.5-4.91-4.71-8.02-3.71ZM645.8,459.5l-.05-69.71-14.54-.1.36,15.48.28,54.48,13.95-.15ZM772.73,459.03l-22.25-29.45,20.64-20.58-15.37-.78-22.83,21.03-.21-39.53-13.95.16.08,69.83,13.78-.05.44-14.03,7.26-6.83,16.58,21.04c5.27.18,10.36.07,15.83-.8ZM1151.53,459.03l-21.8-29.39,20.07-20.8-15.67-.42-22.12,20.61-.22-39.65-13.97.45.02,69.75c5.3.44,9.87.27,14.51-.59-.55-13.26-2.82-11.65,7.45-20.24l15.67,20.76c5.17.39,10.11.47,16.06-.48ZM549.25,459.23l-.15-53.68,21.01-.29-.28-11.85-55.64.02c-.73,4.26-.74,8.61-.09,12.1l20.71-.06.17,53.89,14.27-.13ZM610.27,443.75c-5.05,4.12-8.35,4.72-13.34,4.65-6.68-.09-12.62-3.39-14-10.3l38.5-.25c2.46-16.38-9.32-29.63-25.5-29.84-9.22-.12-17.67,3.72-22.5,10.52-5.3,7.47-6.16,17.11-2.58,25.76,4.41,10.66,15.66,16.26,27.05,15.97,7.83-.2,14.76-1.92,20.07-8.15l-7.69-8.36ZM697.3,443.6c-5.09,4.19-8.44,4.88-13.48,4.76-6.5-.16-12.24-3.67-13.91-10.22l38.53-.29c1.64-8.69-1.13-16.42-6.61-22.16-5.3-5.55-12.93-8.07-21.11-7.57-10.58.65-20.26,6.93-23.51,17.15-2.68,8.43-1.24,17.59,4.08,24.63,9.66,12.76,33.64,14.27,43.84,2.21-2.33-3.19-5.18-6.31-7.84-8.52ZM803.41,460.34c11.17-.23,20.48-6.49,24.26-15.16,4.34-9.97,3.05-21.64-4.75-29.1-11.15-10.67-29.29-11.01-40.62-.52-8.33,7.71-9.5,20.19-4.84,30,4.44,9.35,14.16,15.03,25.95,14.78ZM911.65,431.55l.19,28.13,13.93-.06-.27-33.14c-.09-11.44-9.76-19.02-20.64-18.61-7.26.28-13.27,2.57-18.12,8.8-8.06-11.71-23.15-10.61-32.4-3.48l-1.58-4.95-12.75.27.45,14.64c.29,9.64.08,19.11-.01,28.69l-.08,8.1,14.29-.25.04-28.59c0-6.15,4-10.45,9.74-10.99,4.66-.44,11.04,2.2,11.14,8.26l.51,31.25,13.74.07.23-29.37c.05-6.28,6.06-10.12,11.21-10.18,5.84-.07,10.34,4.66,10.38,11.41ZM990.62,459.25l-.06-49.99c-4.83-1.22-9.83-1.07-13.88.38l-.33,25.92c-.08,6.54-4.31,11.55-10.28,12.39-5.26.74-12.02-2.67-12.12-9.06l-.47-30.37-14.4-.08.27,16.77c.12,7.29-.71,14.71,1.38,21.64,2.62,8.7,10.2,13.2,19.02,13.59,6.74.3,12.27-2.25,17.32-6.54l1.58,6.06,11.98-.7ZM1055.97,459.13l-.21-32.98c-.07-11.07-9.52-18.32-19.96-18.25-6.91.05-12.6,1.55-17.56,6.12l-1.13-5.62h-12.53s.11,51.33.11,51.33l13.89.02.12-27.66c.03-6.39,3.99-10.94,9.77-11.91,4.97-.83,12.78,1.69,12.91,8.14l.63,31.3,13.95-.51ZM1083.84,459.06v-50.67s-13.84.04-13.84.04v51.08s13.84-.45,13.84-.45ZM1166.08,459.13c8.39,2.42,16.75,1.49,22.55-5.34l1.59,5.71,12.42-.39-.36-32.74c-.08-7.06-5-14.01-11.43-16.21-11.41-3.9-23.44-2.34-33.74,3.46l4.39,9.9c6.43-3.1,12.32-5.1,18.79-3.88,4.74.9,9.1,5.68,7.16,10.07-6.53.35-13.86.07-20.25.94-7.49,1.02-12.47,7.42-12.49,13.9s4.25,12.53,11.37,14.59ZM1256.49,446.1c1.22-6.9-3.07-13.33-9.99-14.76l-16.93-3.49c-1.44-.3-3.84-2.67-3.71-4.06.67-7.48,18.78-5.14,24.34-1.65l4.6-9.89c-11.78-5.84-36.47-7.62-41.31,7.77-2.41,7.64,1.2,15.33,9.15,17.44,8.81,2.34,20,3.02,20.77,7.19,1.38,7.5-21.23,4.75-27.56.15l-4.31,10.18c12.64,7.49,41.78,9.17,44.97-8.87ZM1293.33,460.03l21.41-51.19c-5.2-.55-9.08-.56-13.57-.23l-14.32,34.85-14.47-34.89-14.62.1,22,51.46c-.81,3.12-4.29,6.69-6.86,7.01-3.13.39-6.95-.81-10.51-2.33l-4.04,10.5c8.47,4.75,18.86,5.23,26.45-1.24,3.92-3.34,6.33-8.77,8.53-14.04ZM1364.23,416.06c-6.11-6.27-14.36-8.49-22.64-7.98-14.63.9-25.29,12.65-25.05,26.51s11.3,25.02,26,25.73c11.39.55,21.49-4.99,26.15-14.67s3.53-21.38-4.46-29.6ZM1432.56,459.09l-.27-32.84c-.09-10.92-9.31-18.01-19.65-18.3-6.85-.2-12.76,1.39-17.59,5.94l-1.1-5.51-12.47-.04.05,51.12,13.92-.38.11-28.08c.03-6.44,5-10.54,10.64-10.96,4.76-.36,11.75,2.29,11.86,8.44l.57,30.81,13.92-.21Z"/>
  <path class="st0" d="M142.57,488.9c-7.57-.16-11.56-7.38-10.45-13.88,1.72-10.01-13.43-.76-35.69-5.55-7.46-1.61-14.04-9.45-14.02-17.3.04-18.23-1.08-35.59.5-53.64.81-9.2,13.05-15.61,21.26-15.79l34.62-.74-16.87-67.19c-2.18-8.67-4.83-16.99-6.03-25.65-1.09-7.81,5.91-14.4,12.13-15.64,7.24-1.45,16.9,1.04,18.98,8.96l26.26,99.83,43.81.18c4.08.64,7.96.51,12.08-.31l70.95-.07,24.58-96.98c2.35-9.27,10.84-14.17,19.69-12.34,8.28,1.71,14.59,10.39,12.36,19.54l-21.88,89.58,46.11.66c9.83.14,12.84,11.5,12.63,19.8l-1.21,48.4c-.25,9.87-12.72,18.83-22.1,19.03l-26.8.56c-.11,6.25-.22,18.41-9.43,18.52l-19.98.23c-7.64.09-13.06-5.83-12.35-13.34.14-1.5-.3-3.7-1.09-5.69l-125.06.19c-1.59,0-2.64,3.64-2.39,4.86,1.22,5.78-2.4,13.36-9.02,13.65-6.98.31-13.99.3-21.6.13ZM122.19,407.94c-10.63,3.93-15.01,15.82-10.93,25.37s14.74,13.84,23.87,10.33c9.96-3.84,15.34-14.5,11.83-23.98-3.64-9.83-14.24-15.61-24.77-11.72ZM322.21,420.89l-.45-11.51c-2.75-1.48-9.14-2.26-10.77.46-1.72,2.86-.9,7.19-.52,11,4.34.26,6.91.25,11.75.05ZM343.03,420.22l.59-10.32c-3.93-1.99-8.47-2.58-12.14-.32-.64,2.9-.58,7.98,0,10.94,3.5,1.16,8.78,1.22,11.55-.29ZM364.12,420.9c.01-5.08.06-8-.49-11.53-2.3-1.57-9.23-2.08-10.64.22-1.87,3.03-.98,7.26-.55,11.24l11.69.07ZM322.39,444.22l-.52-11.83c-2.71-1.57-9.26-2.31-10.85.41-1.74,2.99-.9,7.1-.55,11.15l11.92.26ZM343.23,444.05l-.22-11.83c-3.85-1.09-8.09-1.97-11.5.48-.43,2.82-.46,6.86-.46,10.66,4.2,1.52,7.48,1.66,12.19.69ZM364.34,444.23l-.5-11.95c-2.93-1.36-9.2-2.23-10.83.5-1.81,3.03-.97,7.2-.56,11.23l11.9.22Z"/>
  <polygon class="st0" points="638.93 346.32 638.49 237.47 586.68 324.27 560.67 324.49 508.85 239.96 508.87 346.32 456.12 346.29 456.07 142.79 503.83 142.73 573.84 260.01 643.72 142.71 691.86 142.7 691.81 346.25 638.93 346.32"/>
  <polygon class="st0" points="1431.52 275.07 1487.05 346.29 1419.54 346.26 1373.6 288.58 1356.61 305.11 1356.67 346.29 1301.82 346.27 1301.71 132.22 1356.48 131.89 1356.67 243.76 1412.18 188.71 1478.19 188.71 1454.06 214.04 1415.26 253.9 1431.52 275.07"/>
  <path class="st0" d="M1588.89,373.14c-13.07,22.89-36.63,31.97-61.67,29.53-13.15-1.28-26.77-4.75-36.78-12.82l18.14-38.98c7.72,4.77,14.92,8.47,24.05,8.54,8.04.07,18.87-5.69,17.88-14.71-.75-6.83-5.49-13.03-7.82-19.75l-58.43-136.32,55.47.05,37.54,90.68,36.99-90.68,52.72-.06-29.94,71.41-35.08,84.61c-4.1,9.88-7.65,19.01-13.07,28.5Z"/>
  <path class="st0" d="M839.75,292.04c3.99,3.12,7.29,6.35,10.56,9.86l18.89,20.32c-8.14,9.18-17.15,15.13-28.49,19.24-29,10.51-61.75,9.43-89.32-4.56-15.85-8.05-28.38-20.09-35.56-36.25-13.31-29.99-7.56-70.14,17.52-92.52,19.4-17.31,44.91-23.59,70.6-21.93,14.44.93,28.1,4.27,40.51,11.94,20.01,12.36,32.49,33.07,34.94,56.54.89,8.56.51,16.68.08,25.78l-54.89.5-60.06.42c2.21,10.3,9.57,17.63,19.14,21.34,18.97,7.36,39.63,3.07,56.07-10.67ZM826.89,251.45c-2.45-17.16-16.24-26.47-32.05-26.12-15.56.35-29.11,10.36-30.83,26.22l62.88-.1Z"/>
  <path class="st0" d="M1277.58,328.86c-20.38,17.12-47.27,20.21-72.51,19.04-20.31-1.81-39.5-5.62-58.33-15.39l16.03-38.33c19.24,11.05,40.49,15.69,62.22,13.85,5.47-.95,14.75-2.9,14.89-9.17.18-8-14.22-10.01-20.62-10.95-28.88-4.24-70.16-8.84-70.96-47.4-.79-38.21,35.59-53.22,68.35-54.24,21.38-1.24,49.79,1,69.13,11.36l-16.29,39.15c-12.63-7.42-26.26-11.15-40.61-11.74l-10.35-.04c-6.78.48-18.73,3.33-18.83,10.9-.24,18.77,88.02,2.67,93.15,52.41,1.6,15.49-2.94,30.18-15.27,40.54Z"/>
  <path class="st0" d="M1128.2,301.35l13.63,37.49c-18.29,12.39-49.93,11.79-70.28,3.82-18.12-7.1-30.17-22.21-32.45-41.54-.34-2.92-1.19-6.84-1.2-9.78l-.19-55.85-22.82-.23-.04-41.7,22.89-.15.06-38.89h55.99s.02,38.68.02,38.68l34.85.47-.14,41.27-8.93.2-25.81.35.32,51.11c.04,5.81,1.71,11.66,5.55,15.3,6.75,6.4,18.26,5.41,28.53-.56Z"/>
  <path class="st0" d="M954.57,346.29h-55.91s0-157.66,0-157.66l51.95-.09.69,16.41c15.13-14.38,33.62-21.55,53.25-19.11l-.03,49.36c-8.04-.75-14.66-.95-22.27-.26-14.77,3.34-27.15,14.62-27.24,30.74l-.45,80.61Z"/>
  <path class="st0" d="M181.85,202.61c-8.95-6.87-19.62-10.65-30.63-6.89-14.57,4.98-22.85,19.39-20.78,35.49-33.17.57-57.49,29.36-53.41,62.3,2.89,23.33,19.26,42.23,42.18,47.49l3.9,15.82c-36.5-3.86-62.79-34.88-62.07-71.4.64-32.62,22.21-60.49,54.35-67.73,3.15-17.32,14.46-30.96,30.92-36.91,9.84-3.55,19.93-2.66,29.84,1.14,16.5-21.36,40.62-33.9,67.63-34.66,42.4-1.19,80.5,27.66,90.57,69.3,26.17-.71,49.56,12.96,61.83,35.96,10.86,20.35,11.83,43.27,2.39,64.57-9.03,19.76-26.47,33.88-48.51,38.51l3.61-17.08c22.34-7.81,36.01-28.35,35.75-52.08-.29-26.46-18.07-49.53-44.29-53.9-8.24-1.37-15.65-.85-23.74,1.29-2.53-36.41-28.98-65.47-64.71-70.65-30.64-4.44-59.95,11.25-74.83,39.44Z"/>
  <path class="st0" d="M296.64,266.48c-33.57-34.3-88.25-34.96-122.62-.34-3.84-3.11-6.89-6.05-10.52-9.92,39.57-40.18,104.59-39.96,143.45.58l-10.32,9.69Z"/>
  <polygon class="st0" points="297.48 357.33 176.17 357.39 172.04 342.22 301.11 342.19 297.48 357.33"/>
  <path class="st0" d="M276.93,285.84c-22.77-23.36-59.43-23.76-82.66-.77-3.9-2.95-6.98-5.98-10.14-9.55,25.7-28.31,77.49-29.11,102.63.62l-9.82,9.7Z"/>
  <path class="st0" d="M256.5,304.33c-12.12-12.21-30.05-12.27-42.25-.2l-9.5-9.72c15.47-17.19,45.67-18.12,60.76.03l-9.01,9.89Z"/>
  <path class="st0" d="M231,308.91c7.66-2.68,14.71.82,17.31,7.56,2.48,6.44-.89,14.34-7.57,16.92-6.36,2.46-13.8-.57-16.66-6.6-3.13-6.61-.56-15.27,6.92-17.89Z"/>
  <path class="st0" d="M695.31,428.91l-25.03.43c.4-5.86,5.56-9.86,10.89-10.54,5.86-.75,12.14,1.48,14.14,10.11Z"/>
  <path class="st0" d="M815.9,433.57c.26,8.77-5.88,14.79-13.29,14.96-8.17.19-14.03-7.05-13.65-15.29.37-7.81,5.88-13.84,13.39-13.85s13.31,5.93,13.55,14.17Z"/>
  <path class="st0" d="M608.07,429.86l-24.91.04c-.34-4.75,2.43-7.55,6.21-9.54,3.56-1.87,7.84-2.32,11.48-.69,3.63,1.63,6.82,4.48,7.22,10.19Z"/>
  <path class="st0" d="M1357.24,435.45c-.8,8.35-6.96,13.33-14.2,12.94s-12.38-6.47-12.43-14.28c-.04-8.08,5.65-14.74,13.5-14.69,7.96.05,13.98,7.24,13.13,16.03Z"/>
  <path class="st0" d="M1187.87,445.02c-3.92,6.1-11.06,7.72-17.23,3.85-1.34-.84-2.27-4.37-1.98-6.01s2.91-4.56,4.86-4.59l14.12-.24c.89,1.7,1.14,5.57.23,6.99Z"/>
  <path class="st0" d="M125.13,417.79c4.93-2.24,9.91.25,11.57,4.33,1.81,4.44.42,9.83-4.25,11.63-4.12,1.58-9.16.41-11.45-3.9-1.94-3.65-.86-9.79,4.13-12.06Z"/>
</svg>