<?xml version="1.0" encoding="UTF-8"?>
<svg id="katman_1" xmlns="http://www.w3.org/2000/svg" version="1.1" viewBox="0 0 1728 624">
  <!-- Generator: Adobe Illustrator 30.2.1, SVG Export Plug-In . SVG Version: 2.1.1 Build 1)  -->
  <defs>
    <style>
      .st0 {
        fill: #fff;
      }
    </style>
  </defs>
  <g>
    <path class="st0" d="M752.75,354.7c-13.54.68-26.95,1.45-40.25-.9-12.4-2.19-20.51-17.02-21.64-29.57l-14.73-163.26-44.88,105.11c-12.78,29.93-25.37,58.3-39.56,87.58-.88,1.81-5.11,4.5-7.03,4.42-2.19-.1-5.32-3.18-6.7-6.11l-91.38-194.43-4.65,196.47c-4.31,1.26-8.9,1.28-13.98.42l2.93-61.18,4.05-151.09c.33-12.47-11.39-17.19-20.73-25.52l41.14.39c7.14.07,14.89,5.63,17.92,12.17l49.64,107.25c11.71,25.29,21.78,49.59,37.65,74.9l76.19-181.07c4.48-8.78,12.16-13.42,21.82-13.5,11.53-.09,22.71-.18,35.48.58-13.5,7.51-22.79,14.55-21.55,29.75l12.88,157.89c.78,9.61,2.84,18.6,5.78,27.11,3.63,10.51,11.08,15.01,21.59,22.6Z"/>
    <path class="st0" d="M977.05,356.13l-65.04-77.05-107.94-123.96-.13,198.37c-1.48,2.63-9.19,2.6-11.28.31l-.29-74.43-.43-136.8c-.04-11.51-13.4-16.83-20.74-25.77l49.02,1.01,153.2,177.39V120.23c.01-4.22,8.55-4.15,11.95-2.12l.23,22.59-.37,213.27c0,3.28-5.21,3.73-8.16,2.16Z"/>
    <path class="st0" d="M1127.35,160.29l-47.04,106.36-36.41,84.39c-1.01,2.33-3.81,4.57-5.81,4.89-2.24.36-6.77-.52-7.65-3.71l92.46-209.71-5.76-15.15,33.47-13.51,99.3,214.75c5.31,11.48,13.17,17.72,23.9,25.99-14.09.65-26.6.97-40.03-.11-8.19-.65-16.68-8.35-20.34-16.33l-80.29-175.37c-.71-1.56-5.16-3.97-5.8-2.51Z"/>
  </g>
  <g>
    <path class="st0" d="M726.82,430.98c.67-2.05,6.51-2.25,7.98-.05l-25.25,77.1c-2.48.68-5.75.7-8.27-.03l-22.46-66.14-22.24,65.84c-.68,2-8.05,1.58-8.83-.79l-24.81-75.36c-.57-2.84,6.87-3.29,7.56-1.2l21.92,66.13,22.35-65.92c1.44-1.55,7.69-1.81,8.38.22l22.17,65.74,21.5-65.53Z"/>
    <path class="st0" d="M1173.51,507.62l-18.91-27.59-25.82.36-.31,28.16-8.09-.46v-78.62c21.31.46,57.97-7.13,61.46,21.26,1.56,12.72-4.01,23.38-18.59,27.94l19.6,29.13c-1.71,1.27-8,1.76-9.34-.19ZM1155.23,472.14c11.71-.01,19.18-7.69,18.96-17.97-.48-22.11-29.23-17.21-45.53-17.33l.07,35.33,26.5-.03Z"/>
    <path class="st0" d="M586.61,471.97l-40.82.38-.37,28.09,46.22.25c2.06.01,2.43,6.82.48,8.15l-55.18-.44v-79.11s54.54-.1,54.54-.1l.18,7.45-46.32.36.14,27.39,41.07.34c1.79.01,2.23,7.24.07,7.26Z"/>
    <path class="st0" d="M819.37,472.07l-40.23.27-.41,28.45,46.49.33c1.78.21,1.91,5.92.79,7.37l-55.6.08-.23-78.96,54.37-.17.6,7.1-46.23.34-.22,27.56,42.49.33c.43,1.83-.04,7.29-1.82,7.3Z"/>
    <path class="st0" d="M1077.82,472.05l-41.29.25-.23,28.36,44.19.18c1.59,0,4.25,1.72,4.49,3.08s-1.57,4.94-3.12,4.92l-53.73-.39-.1-79.05,54.84-.2.06,7.38-46.51.31-.04,27.6,40.19.38c1.66.02,2.19,5.4,1.24,7.2Z"/>
    <path class="st0" d="M1280.35,430.3l-31.43,50.06-.14,27.11c-.01,2.08-7.65,2.19-7.69-.16l-.49-27.62-31.15-49.23c2.82-1.59,7.8-1.68,9.13.41l26.46,41.73,26.1-42.04c1.15-1.85,6.52-1.68,9.22-.27Z"/>
    <path class="st0" d="M911.7,501.15c1.8.02,2.38,6.56.6,7.22l-47.72-.06-.14-78.07c1.39-1.32,8.18-1.18,8.18.79l.16,69.72,38.92.4Z"/>
    <path class="st0" d="M993.81,501.28c1.87.03,1.86,6.22.42,7.22l-47.9-.27-.05-77.06c0-1.83,6.17-2.06,8.05-1.2l.26,70.69,39.22.61Z"/>
    <path class="st0" d="M471.11,510.14c-18.15-.47-28.23-19.76-21.22-19.05s8.31,12.3,22.69,11.31c5.37-.37,15.26-3.9,15.36-12.13l.76-59.35c.84-1.83,6.06-1.91,8.11-.81v54.95c0,14.17-10.8,25.46-25.69,25.07Z"/>
  </g>
</svg>