<?xml version="1.0" encoding="UTF-8"?>
<svg id="katman_1" xmlns="http://www.w3.org/2000/svg" version="1.1" viewBox="0 0 1728 624">
  <!-- Generator: Adobe Illustrator 30.2.1, SVG Export Plug-In . SVG Version: 2.1.1 Build 1)  -->
  <defs>
    <style>
      .st0 {
        fill: #fff;
      }
    </style>
  </defs>
  <g>
    <polygon class="st0" points="1335.65 154.28 1232.8 472.64 1174.89 472.65 1216.39 346.9 1159.8 346.64 1085.53 152.19 1142.88 151.98 1216.15 341.9 1280.2 153.55 1335.65 154.28"/>
    <path class="st0" d="M770.45,330.32c-35.24,50.79-103.27,67.71-159.95,43.88-21.31-8.96-39.44-23.22-52.9-41.76-27.01-37.19-28.64-86.53-3.94-125.27,13-20.39,31.6-36.19,53.82-46.23,56.42-25.5,125.72-9.56,162.01,41.17,27.46,38.4,27.87,89.42.96,128.22ZM710.14,323.66c12.46-6.03,22.24-14.18,29.84-24.89,13.79-19.44,13.59-44.27-.41-63.57-7.92-10.93-18.25-19.1-30.8-24.94-28.71-13.37-62.39-13.36-91.12-.13-12.75,5.87-23.26,14.21-31.28,25.38-13.53,18.85-13.97,43.03-.89,62.26,8.13,11.95,19.32,20.88,32.78,26.96,28.98,13.09,62.87,12.97,91.87-1.07Z"/>
    <polygon class="st0" points="1638.26 380.77 1572.75 381.18 1501.35 303.23 1434.85 381.03 1370.74 380.85 1470.62 266.95 1370.8 152.23 1434.3 152.04 1503.67 230.2 1570.86 152.01 1640.71 152.17 1538.53 266.83 1638.26 380.77"/>
    <path class="st0" d="M981.77,188.99c-19.98-14.2-48.58-19.78-69.45-3.26-16.75,13.26-27.49,36.52-32.51,57.07l.02,138.27-48.62-.02v-226.67s48.53-.02,48.53-.02l.28,54.21c9.71-14.47,20.39-26.76,33.89-37.17,30.02-22.48,65.79-30.08,100.52-13.31,30.32,14.63,47.89,48.48,52.2,80.8l-.09,142.19h-49.01s-.08-125.2-.08-125.2c1.56-26.12-15.22-52.35-35.69-66.89Z"/>
    <path class="st0" d="M1499.65,515.16c1.37-1.9,3.15-2.85,5.41-3.55,7.75,13.48,24.26,15.98,37.65,11.55,13.23-4.38,15.72-16.66,13.95-29.96-6.69,8.55-15.76,12.94-26.41,13.15-20.06.39-35.57-15.74-34.55-35.75.97-19.16,16.92-33.14,36.11-32.07,10.11.57,18.85,4.84,24.92,13.19l.6-11.97c2.3-.14,4.36-.32,6.61.17l-.26,63.52c-.05,12.28-8.18,22.21-19.48,26.04-15.92,5.39-34.87,1.66-44.53-14.32ZM1532.11,499.76c15.13-1.12,25.53-13.01,25.38-27.61-.14-14.47-10.53-25.76-24.96-27.05-16.04-1.43-29.51,10.14-30.13,26.26-.64,16.58,12.67,29.67,29.71,28.4Z"/>
    <path class="st0" d="M1607.87,501.12c10.86-.08,19.71-4.44,25.04-13.66,2.07.7,3.48,1.89,5.3,3.37-6.25,11.38-17.84,16.89-30.66,16.92-19.93.06-35.34-14.91-35.24-34.87.11-20.54,16.9-35.99,37.53-34.28,18.83,1.56,33,17.29,30.74,36.83l-60.97.15c.54,15.37,13.15,25.63,28.25,25.53ZM1633.72,469.09c-1.53-14.44-12.7-23.86-26.23-24.1-13.98-.19-26.16,9.2-27.98,24.05l54.21.05Z"/>
    <path class="st0" d="M1324.75,507.63c-20.2.86-35.91-14.3-36.24-33.96-.32-19.23,14.32-34.58,33.57-35.15,19.74-.59,35.56,14.59,35.67,34.39.11,18.65-13.9,33.91-33,34.72ZM1340.33,495.4c14.49-11.51,14.17-33.42,0-44.62-10.22-8.08-25.18-7.81-35.16.61-13.43,11.32-13.3,32.48.24,43.62,9.85,8.11,24.56,8.62,34.91.4Z"/>
    <path class="st0" d="M1461.77,444.95c-12.35-.66-22.64,7.34-22.75,19.68l-.36,42.06c-2.26.26-4.34.29-6.7-.01v-66.57c1.93-.83,4.07-.49,6.46-.3l.96,8.48c5.86-7.08,13.18-9.84,21.99-9.82,13.76.04,25.44,9.72,25.51,23.93l.22,44.23c-2.52.27-4.54.58-6.63-.13l-.36-43.55c-.09-10.35-7.92-17.44-18.35-18Z"/>
    <path class="st0" d="M1421.32,439.97v66.49c-2.16.66-4.4.51-6.46.13l-.58-8.83c-5.45,7.13-13.16,9.89-21.8,10.05-14.15.27-25.94-9.67-26.03-24.16l-.3-43.79c2.43-.41,4.4-.38,6.71.05l.32,42.77c.08,11.22,8.45,18.48,19.27,18.73,11.72.27,21.87-7.53,21.97-19.77l.35-41.73c1.97-.41,4.16-.5,6.55.07Z"/>
    <path class="st0" d="M1279.98,506.27c-2.09,1.17-4.18.49-6.64.39l-.05-91.6c2.29-.46,4.27-.43,6.66,0l.03,91.21Z"/>
  </g>
  <g>
    <path class="st0" d="M219.34,347.85l-44.89,77.69c-26.35-15.92-47.94-37.74-62.95-63.86l77.72-43.53c7.77,12.29,17.45,21.87,30.12,29.7ZM198.47,359.92c.96-2.41,1.56-8.79-2.01-9.43-10.95-1.21-22.35,1.64-32.03,6.32-11.54,5.58-16.31,17.78-11.93,29.53,15.47,16.56,40.85-13.52,45.97-26.42Z"/>
    <path class="st0" d="M275.8,360.09c4.45,9.3,16.25,29.54,28.96,24.01,5.91-2.57,7.99-8.3,5.4-14.1s-6.98-10.79-12.22-15.72l12.14-6.26,45.77,79.19c-26.15,15.04-55.4,23.04-85.65,23.64l-.03-89.93c1.61-1.42,3.62-1.14,5.64-.83ZM332.38,417.13c-7.36-7.21-14.77-13.3-23.91-16.68-10.03-3.71-20.69-.84-26.13,8.37,1.95,6.07,4.59,11.47,8.76,16,12.41,13.51,31.03,2.96,41.29-7.69Z"/>
    <path class="st0" d="M88.17,253.35c18.9,13.04,46.04,13.87,67.22,9.17,4.54-1.01,8.42-3.88,11.86-6.68,7.47-6.1,7.39-16.51,1.09-23.13-22.5,18.51-52.58,22.63-79.06,11.15,3.29-21.08,10.09-41.04,20.9-60.34l77.23,44.45c-6.77,12.4-10.75,25.57-11.28,40.03l-88.8.04c-.2-4.93.19-9.63.84-14.67ZM141.56,222.72c-10.11-5.38-30.26-5.23-41.81-4.79,9.97,10.6,28.56,23.23,42.05,12.41,1.32-1.03,2.18-2.31,2.19-3.67,0-1.46-.88-2.72-2.43-3.95Z"/>
    <path class="st0" d="M237.83,410.48c-5.17-6.9-14.46-8.37-21.73-4.33-10.16,5.64-17.33,18.66-21.83,29.44-4.84-1.75-9.07-4.08-13.71-6.61l44.98-77.8c12.28,5.97,24.53,8.76,37.58,9.16v90.52c-16.41-.41-32.61-2.57-48.46-7.73,8.3-6.48,15.48-12.31,20.81-20.33,2.35-3.71,4-7.7,2.36-12.32ZM256.58,417.1c2.4-9.83,1.22-19.19-3.03-27.91-2.56-5.26-10.45-21.46-18.1-17.93-2.56,1.18-5.5,5.23-5.28,8.15,13.32,18.19,22.95,36.27,12.91,58.06,7.49-5.32,10.61-12.66,13.49-20.37ZM243.07,438.37c0-.34-.28-.62-.62-.62s-.62.28-.62.62.28.62.62.62.62-.28.62-.62Z"/>
    <path class="st0" d="M162.36,295.19c-7.17-3.32-14.59-4.5-22.41-4.48,1.03,6.95,3.17,13.22,6.99,18.85,5.32,8.15,14.05,11.71,24.05,10.73l-62.99,35.32c-13.35-25.23-20.24-52.25-20.82-80.5l88.87-.04c.66,12.82,3.66,24.93,9.69,36.81-4.46,2.75-8.64,5.19-13.91,7.74,3.45-10.25.35-19.9-9.47-24.44ZM132.34,335.64c.78-13.23-.34-32.37-7.52-42.7-3.52-5.1-9.27-7.57-15.32-5.95-4.87,5.92-7.69,13.24-6.85,21.04,1.87,13.93,17,22.92,29.69,27.61Z"/>
    <path class="st0" d="M263.15,182.67c-12.56.57-24.22,3.07-35.75,8.35l-44.98-77.91c25.12-13.35,52.36-20.28,80.68-20.88l.04,90.44ZM234.62,159.74c5.84-4.53,17.78-9.08,19.89-14.36,2.91-7.29,1.8-15.8-1.12-22.87-3.44-8.33-11.19-11.84-20.12-10.59-7.54,1.05-17.49,4.72-19.29,13.38-2.47,11.91,2.68,50.37,20.75,54.66-3.28-7.14-7.66-14.36-.11-20.22Z"/>
    <path class="st0" d="M308.36,193.92c-12.16-6.3-24.64-10.25-38.18-10.99l.02-90.71c29.66.69,57.77,8.14,83.8,22.59l-45.64,79.11ZM300.51,172.47c9.92-8.8,43.04-42.71,29.81-56.21-7.39-7.54-18.6-8.8-27.9-3.96-7.23,3.76-12.94,9.25-17.51,16.04-2.16,11.62-4.28,28.72.43,39.46,2.69,6.12,9.47,8.16,15.17,4.67Z"/>
    <path class="st0" d="M379.71,359.78c-8.79,5.2-16.47,11.78-27.35,10.38.96-8.05,2.19-27.64-5.95-32.05-5.6-3.03-11.78.19-14.4,5.78-3.23,6.89-3.04,14.21-3.16,22.22l-12.83-21.98c10.58-7.46,18.62-16.4,25.36-27.32l79.84,46.06c-14.87,24.99-34.72,45.25-59.27,60.75l-14.59-25.19c9.5-.34,29.18-.21,36.69-6.92,3.92-3.51,6.77-8.25,8.38-13.22,2.99-9.22-4-16.5-12.71-18.5Z"/>
    <path class="st0" d="M221.18,194.14c-12.01,7.2-22.12,16.03-30.02,27.92l-77.39-44.61c15.65-25.31,36.9-45.95,62.52-60.91l44.89,77.61ZM203.83,191.51c2.24-4.37.93-8.59-2.56-11.58-5.03-4.31-11.37-5.51-18.44-5.89,2.53-3.25,4.85-6.01,6.15-9.73,1.79-5.1.24-10.43-4.54-13.43-13.22-8.29-34.63-9.08-42.68,4.11-2.61,4.28-3.13,9.78-3.05,14.68.14,9.05,5.71,16.39,14.09,19.53l25.51,9.54c8.56,3.2,20.84,1.89,25.52-7.23Z"/>
    <path class="st0" d="M428.84,266.54c4.02-.02,5.36-27.94,4.93-33.57s-3.31-11.12-8.59-13.11-11.58-1.27-16.8,1.07c-.61,5.92-2.52,18.8-8.44,20.47-6.12,1.73-9.34-7.47-24.58-11.97-10.68-3.16-21.11.94-27.23,10.47-1.58-3.07-2.66-5.53-3.87-8.7l80.33-45.06c13.68,25.23,20.91,52.84,21.54,81.83l-45.95-.03-46.46.04c.32-4.4-1.87-8.75-.87-12.67,2.13-6.65,35.44,2.34,41.02,4.37,1.95,1.21,1.52,4.63,1.42,7.03l33.55-.17Z"/>
    <path class="st0" d="M361.83,308.87c1.28,5.3,5.34,8.74,9.76,11.39,7.3,3.82,15.06,5.6,23.32,6.84,14.03,2.01,27.79,1.93,42.02,1.33-3.25,10.13-7.27,18.97-12.22,28.35l-79.97-46.09c5.37-11.33,8.43-23.02,8.94-35.59h92.4c-.08,10.22-1.2,19.9-3.06,30.07-2.95-1.9-5.59-3.45-8.82-4.9-16.74-6.86-45.42-14.72-62.7-8.93-7.46,2.5-11.63,9.4-9.67,17.53Z"/>
    <path class="st0" d="M421.02,180.1l-80.17,45c-1.88-2.33-3.1-4.26-4.81-7.01,10.7-2.64,20.3-15.53,20.5-26.81.02-1.32-.18-2.55-.77-3.36-2.17-2.98-11.25.9-14.39,2.39-7.19,3.41-13.37,7.89-19.92,12.62-2.68-1.78-4.83-3.41-7.13-5.43l45.64-78.98c3.74,1.76,6.68,3.94,10.06,6.45-7.55,4.76-14.8,9.55-20.03,16.82-4.68,6.51-5.56,14.77-.13,20.97,3.61,4.12,17.49-.88,22.17-2.99-.11,12.6,3.09,28.33,17.32,30.86,13.5,2.4,22.37-6.62,25.29-20.4,2.6,2.87,3.92,5.59,6.37,9.87Z"/>
    <circle class="st0" cx="242.46" cy="438.37" r=".62"/>
  </g>
</svg>