<?xml version="1.0" encoding="UTF-8"?>
<svg id="katman_1" xmlns="http://www.w3.org/2000/svg" version="1.1" viewBox="0 0 1728 624">
  <!-- Generator: Adobe Illustrator 30.2.1, SVG Export Plug-In . SVG Version: 2.1.1 Build 1)  -->
  <defs>
    <style>
      .st0 {
        fill: #fff;
      }
    </style>
  </defs>
  <path class="st0" d="M1190.08,98.39c-.13,2.05.81,3.85,1.89,6.06l32.91,67.47,34.69-73.53h44.83l-.35,154.55-39.07.03-.23-90.93-23.67,48.27-33.4.22-23.9-47.49-.23,89.93h-39.42s0-154.59,0-154.59h45.95Z"/>
  <path class="st0" d="M504.23,98.39c7.12,0,15.83,4,22.7,6.27,11.3,3.74,17.87,13.04,21.19,23.92,5.15,26.42,4.48,54.95-23.84,66.7l32.66,57.63-45.36-.02-25.43-50.02c-7.13-.11-13.61-.59-20.21.27l-.32,49.94-41.41-.21-.66-154.48h80.69ZM505.63,163.06c4.07-7.66,3.86-17.49-.14-24.55-5.04-8.9-29.38-5.32-39.56-5.79v36.52c9.95-.49,34.68,3.28,39.7-6.18Z"/>
  <path class="st0" d="M744.05,98.39l.58,59.69,45.37-59.69h48.19c-.25,1.59-1.17,2.78-2.47,4.42l-54.92,69.16,64.82,80.86-53.46.25-47.49-60.9-.49,60.81-42.05-.1-.66-154.5h42.59Z"/>
  <polygon class="st0" points="685.78 98.39 679.36 132.15 610.23 132.36 610.28 157.88 677.95 158.16 671.6 191.47 610.22 191.67 610.26 219.43 687.12 219.67 680.56 253.08 568.89 253.05 569.23 98.39 685.78 98.39"/>
  <path class="st0" d="M1078.01,98.39l53.7,154.53-44.41.03-10.64-33.63h-51.1s-10.5,33.69-10.5,33.69l-42.42-.41,53.82-154.21h51.55ZM1066.98,186.56l-16-50.1-16.01,50.28,32.01-.17Z"/>
  <polygon class="st0" points="898.7 98.39 898.69 217.21 968.98 217.38 962.09 253.03 856.45 253.04 856.12 98.39 898.7 98.39"/>
  <path class="st0" d="M1400.76,452.08v1.82c-2.86,4.89-17.34,18.69-22.69,13.59-4.46-4.25,1.55-13.93,1.12-18.83l-30.14,30.19c-2.3,2.31-.9,5.7-1.71,8.6-2.61,9.35-15.39,15.07-18.59,11.19-4.37-5.29,7.98-15.36,9.63-19.97l-7.5-18.66c-6.9,4.47-16.27,16.72-22.98,12.44-1.25-.8-1.16-3.83-.59-5.72l6.24-20.65c-7.25,5.15-12.12,11.08-18.45,16.74-2.21,1.98-8.09,3.89-8.61-.08-.68-5.16,2.85-10.28,3.44-15.39.33-2.9,2.83-3.22,4.82-2.77,4.69,1.07-1.78,10.07,1.3,10.83,6.44-5.14,16.26-17.96,23.67-14.6,5.58,2.53-6.7,21.76-5.64,27.08,5.78-4.2,12.07-7.32,16.59-12.08,3.6-10.81,15.56-20.88,27.34-15.67,3.34,1.48-1,10.43-5.24,9.48-1.32-1.68,1.02-4.35-.33-7.2-6.76,1.47-12.89,7.69-13.58,15.08-.56,5.93,2.5,11.09,5.5,15.78,7.91-5.33,34.47-36.94,41.43-32.41s-2.75,13.94-1.19,19.35c7.83-1.82,11.32-9.32,16.18-8.16ZM1336,495.35c3.25-1.17,5.89-3.68,5.27-7.46-2.55,2.07-4.48,4.2-5.27,7.46Z"/>
  <path class="st0" d="M1350.32,99.01c9.89,1.66,15.48,8.44,16.72,10.01,1.25,1.59,5.63,7.36,5.73,15.88.02,1.79-.16,6.45-2.61,11.57-3.79,7.93-11.35,13.59-20.21,14.83-13.45,1.89-25.75-6.65-29.11-18.47-2.38-8.37-.86-16.66,3.58-23.01,4.26-6.09,10-8.61,11.97-9.38,1.94-.75,7.23-2.55,13.93-1.43ZM1341.34,103.42c-12.85,2.97-19.74,15.46-16.53,27.49,2.95,11.07,14.63,18.47,26.16,15.81,11.89-2.75,19.58-14.27,17.02-26.23-2.46-11.48-13.87-20.02-26.65-17.07Z"/>
  <path class="st0" d="M506.39,425.14c-8.3-3.75-20.61-5.63-25.73,3.05-2.24,3.79-1.88,7.65.1,11.68-5.56,4.19-8.75-12.89-26.52-.1-3.35,2.41-7.95-.67-11.56-.53-9.66.38-6.83,5.13-18.55-4.1l-.05-152.91,76.77.04c9.76,0,18.82,1.47,27.89,4.13,33.55,9.5,37.16,43.63,35.59,73.95-.64,12.35,2.48,27.32-3.84,38.59-19.99,35.62-19.87,37.52-59.97,41.55.75-6.09,4.22-9.12,5.87-15.36ZM518.66,383.82c1.54-15.39,1.57-30.65-.06-45.44-3.12-25.51-33.34-18.74-51.9-19.27l.1,84.67c19.64-1.01,48.65,5.97,51.87-19.96Z"/>
  <path class="st0" d="M1060.99,439.07c-5.54-8.38-16.72-8.8-23.69-1.85-2.59,2.59-8.04,5.24-10.36,2.15l5.91-33.75,62.59-.09c3.04,0,6.17-1.57,7.58-3.15,1.85-2.07,2.04-5.72,2.14-8.51.22-6.36-2.96-10.54-9.03-11.61l-29.4-5.17c-17.54-3.08-34.39-10.22-38.34-29.02-2.15-10.24-2.4-20.88-.7-31.35,4.37-27.01,29.72-34.3,53.74-35l65.06.38-6.1,34.69-58.88.03c-3.1,0-6.22,1.27-7.87,2.68-2.34,1.99-2.43,5.22-2.61,8.16-.36,5.83,2.38,9.46,7.9,10.48l32.95,6.06c16.77,3.08,32.71,10.56,36.91,28.41,2.86,12.16,2.81,24.8.2,37.02-6.34,29.68-39.17,31.01-64.23,31.14-1.55-5.33-5.18-8.17-9.71-8.62-5.49-.55-9.57,1.36-14.05,6.93Z"/>
  <path class="st0" d="M836.92,376.97c-10.81,16.3-53.63,15.28-71.63,14.78,1.49-6.58,12.13-22.81,8.48-27.32-2.54-3.13-8.01-3.69-11.86-2.88-3.1.65-6.53,3.98-8.65,7.94-11.84,22.15-20.61,45.34-29.16,69.07-.47,1.32-.95,1.88-1.88,1.92s-1.68-.38-1.68-2.12v-156.07s74.56.04,74.56.04c10.01,0,19.3,1.85,28.69,4.89,13.39,4.74,23.08,15.41,25.18,30.01,1.63,11.3,3.56,24.64-.15,35.89-2.69,8.14-7.12,16.69-11.88,23.86ZM806.27,344.55c.93-5.26.7-10.44.04-15.24-2.4-17.47-28.43-11.32-41.97-12.39l-.12,40.11c12.59-.97,40.81,5,42.04-12.48Z"/>
  <path class="st0" d="M952.93,315.6c-9.32-2.11-18.45-1.85-27.22-.28-21.98,3.93-14.85,35.43-16.42,53.24-15.93-10.06-30.38-2.65-44.37,8.29-2.66-22.98,8-6.63,6.9-26.53-2.37-1.88-4.52-2.04-7.22-3.35-.12-28.27,7.26-56.96,38.71-65.04,23.24-5.97,48.11-5.89,71.29.08,29.56,7.62,38.55,35.04,38.53,62.56l-.02,33.53c0,11.05-1.72,21.54-5.37,31.8-8.01,22.52-27.34,31.51-51.1,33.25,7.21-22.1,14.69-42.7,24-63.58,1.8-4.03,5.72-10.28,3.63-14.57-2.43-4.98-11.34-4.28-16.12-2.11-1.63-15.32,4.41-42.85-15.23-47.29Z"/>
  <path class="st0" d="M689.43,377.18l-40.08-.23c-2.4-3.72-5.1-7.1-9.55-8.07-7.23-1.57-13.38.39-19.33,4.6-11,7.77-19.41,17.78-28.32,28.06.24-6.72-1.38-12.04-7.79-14.34l-.03-105.01,119.54.07-6.37,34.23-71.11.1.03,26.16,69.4.23-6.4,34.2Z"/>
  <path class="st0" d="M1261.62,439.98c-.08.25.14.59-.75.65-5.35.04-9.98,2.58-16.53,3.6-.22-1.9-2.1-5.46-1.02-7.57l9.91-19.36c-5.62-.26-10.27-.07-15.23.68-7.61,1.16-13.92,7.86-12.72,15.6.32,2.05,2.39,3.87.19,5.73-3.69-9.01-12.85-5.89-21.56-5.58l5.72-44.67c2.21,6.62,3.17,13.27,9.62,15.99,9.34,3.94,20.26,3.75,29.82.84,10.85-3.3,11.37-17.04,11.84-26.77l.12-96.87h43.07s.03,103.62.03,103.62c-1.37,19.86-6.23,41.26-25.68,50.5-5.61-2.95-14.61-3.45-16.81,3.59Z"/>
  <path class="st0" d="M1260.87,440.64c.89-.06.67-.41.75-.65l8.18-3.37c1.84-.76,4.24,0,5.5,1.21,1.17,1.13.72,3.31,1.85,4.99,18.16-13.66-3.18,30.45,5.69,39.89-11.61,3.52-6.36-23.33-6.38-30.1-7.16,6.44-11.51,13.25-19.28,18.16-2.54,1.61-8.88,3.63-10.18-.23-2.55-7.61,3.95-13.84,6.32-21.22-5.89,2.88-9.92,7.25-14.88,10.55-2.88,1.92-4.89,4.8-5.62,8.28-4.18,19.9-12.03,38.15-26.77,52.2-3.11,2.96-7.44,2.08-11.19,3.31-2.54.83-4.32,2.69-7.26,1.62-6.76-2.47-5.51-30.28-5.06-37.55l2.36-37.58-36.2,12.93-14.68,37.48c-9.08,1.76,3.87-27.15,4.83-32.42-4.34-1.41-14.33,7.8-18.17,1.77,5.53-7.43,16.31-7.48,22.2-13.57,5.7-5.89,8.07-15.25,11.84-22.76,10.62-21.17,22.3-40.74,37.79-58.61,2.33-2.69,7.04-5.78,9.91-2.35,1.88,2.25.69,7.47.29,10.63l-7.11,57.32c4,.11,25.12-6.09,22.4,1.05-8.06,1.46-15.51,2.9-23.38,5.83l-4.56,61.01c7.33-17.07,17.57-31.23,31.94-42.34,3.8-2.94,6.43-6.72,6.7-11.68,1.08-3.45,2.06-17.82,6.74-15.63,2.91,1.36-.72,12.1.42,15.83,4.03-1.37,6.92-3.73,10.59-5.58,5.82-2.93,5.89,5.09,14.39-8.44ZM1186.54,442.85l8.65-58.02c-.11-1-1.65-1.39-1.81-.84,2.13-7.26-39.64,61.26-39.12,68.2l32.28-9.34ZM1269.64,441.38c-8.54,6.85-14.8,15.74-17.28,26.71,7.89-2.96,23.24-17.49,17.28-26.71ZM1198.1,521.1c5.58-2.17,6.61-6.09,9.74-9.1,7.18-11.5,13.22-23.51,15.86-38.13-6.66,3.9-34.63,41.04-25.6,47.23Z"/>
  <path class="st0" d="M1209.17,370.22c-17.34-15.88-31.57,16.71-41.28,27.54-1.62-6.08-1.79-11.18-1.8-16.84l-.13-98.61,43.42-.08-.22,87.99Z"/>
  <path class="st0" d="M917.94,473.59c3.18,9.52,14.19,34.31,21.39,41.07-7.39,5.28-17.63-16.83-21.09-22.75-3.82-6.53-7.17-12.72-9.01-20.72-3.1,2.04-2.82,4.75-5.31,5.99-1.23.61-2.75.66-3.72-.25-1.94-1.83,1.66-6.56-1.33-7.42-6.38,3.5-12.05,6.28-19.13,4.45-4.68-1.21-8.54-4.34-9.05-9.56-1.06-10.81,6.25-28.58,18.39-24.5,2.23.75,4.31,3.19,3.68,6.42-2.81,14.5-20.14,11.42-13.09,21.71,5.04,7.36,21.53-4.42,22.38-8.15l9.98-44.18c2.77-12.26,21.38-69.36,38.72-59.84,9.83,5.39-.13,29.7-4.04,38.07-7.94,16.99-20.32,30.36-33.18,43.77-3.07,4.79-2.82,12.26-3.68,18.02,5.8-4.5,21.97-23.39,29.76-12.55,8.66-24.53,17.59-48.55,29.8-71.69,1.67-3.16,3.97-6.35,7.9-4.5-4.27,9.18-54.96,126.18-27.65,115.99,13.86-5.17,15.72-17.84,20.26-14.04-3.88,10.72-14.49,18.82-25.98,18.19-19.7-1.07-7.22-31.46-4.78-43.77-9.5,11.6-26.28,15.11-21.23,30.23ZM921.34,422.87c9.39-8.77,33.62-50.9,25.4-65.06-17.29,11.31-28.4,53.93-32.61,73.83,3.64-1.64,4.8-4.91,7.21-8.77ZM879.88,454.17c3.75-2.45,5.68-5.22,5.49-9.23-3.73,1.97-5.11,5.33-5.49,9.23Z"/>
  <path class="st0" d="M605.36,440.8c-.11-.33-.07-.72-.21-1.04,7.18-11.63,12.21-24.65,18.59-37.36,3.23-6.43,6.39-12.65,7.42-20.58-12.01,9.85-20.39,21.31-30.15,32.47-13.08,14.95-24.86,29.94-38.74,44.17-3.8,3.9-9.31,7.53-14.42,3.36-4.38-3.58,16.59-36.7,18.1-44.9-8.12,7.83-12.52,17.55-18.15,27.76-11.18-4.48,20.82-45.13,25.2-50.37,2.43-2.91,8.66-3.68,10.74-.83,2.12,2.92.18,6.84-1.04,9.58l-17.07,38.45,38.11-44.55c7.21-8.43,25.48-29.31,36.84-21.7,6.1,4.09-10.09,34.95-13.45,41.82-13.14,26.84-31.86,64.61-37.77,93.14-.39,1.88,2.81,2.29,3.24,3.33-.82,2.45-4.87,2.51-6.91,1.81-11.18-3.83,15.18-65.53,19.68-74.56Z"/>
  <path class="st0" d="M640.36,474.24c-6.25.89-13.74-.92-15.67-6.9-3.25-10.08,1.81-21.97,10.33-27.57,2.38-1.56,5.38-.48,7.37.23s4.12,3.14,3.56,6.23c-2.66,14.44-20.34,11.63-13.03,21.96,5.09,7.19,22.76-5.04,24.23-10.06,3.44-11.77,14.3-23.13,27.91-18.15,3.55,1.3-.75,10.4-4.97,9.69-1.45-1.63.77-3.98-.25-7.22-7.28,1.34-13.66,8.25-13.82,16.17-.11,5.48,2.53,10.13,5.6,14.71l28.22-26.34c1.05-.98.95-3.31,2.55-3.33,1.13-.01,4.5-.21,3.96,1.71l-5.28,18.87c-3.73,13.33,22.61-6.87,26.29-16.44,10.17-26.48,18.69-52.79,32.42-77.41,1.54-2.75,3.97-5.41,7.18-3.23-13.42,29.61-24.24,58.87-33.01,89.38-1.62,5.63-7.31,31.3,5.24,26.5,14.68-5.61,15.65-17.95,20.44-14.08-3.84,10.43-14.1,18.53-25.38,18.23-6.08-.16-10.66-3.6-11.34-9.41-.72-6.17,1.02-11.74,1.07-18.29-7.31,6.78-20.05,18.2-28.99,11.86-2.15-1.53-1.36-3.83-3.02-8.23-4.19,5.97-13.21,10.56-16.25,17.92-2.37,5.75-.89,12.53-8.95,16.16-2.62,1.18-7.61,4.83-10.75,1.2-4.4-5.08,8.6-16.01,10.14-20.35-2.85-4.81-4.83-9.31-7.07-14.71-6.1,4.72-10.61,9.74-18.71,10.9ZM633.23,453.96c3.53-2.15,5.5-5.05,5.44-9.28-3.34,1.83-5.39,5.15-5.44,9.28Z"/>
  <path class="st0" d="M355.61,514.15c-6.09,3.07-14.55,4.07-18.24-1.62-6.28-9.67,33.12-37.67,40.99-42.85,10.01-6.58,13.6-60.9,9.96-74.29-10.6,17.59-21.92,45.52-44.24,46.48-6.96.73-13.14-2.84-14.65-9.74-.76-3.48-2.48-7.73-2.14-11.5.79-8.64,7.16-44.56,13.05-46.77,1.28-.48,4.03-.89,4.37,1.18.24,1.45-2.52,2.83-2.96,4.56-3.81,15.04-11.15,45.09-.62,57.24,1.88,2.17,6.02.25,7.99-.84,6.77-3.73,11.85-9.27,15.98-15.76,6.69-10.51,12.27-21.28,17.93-32.34,1.8-3.52,4.95-4.57,8.6-4.18,3.35.36,5.53,3.65,6.17,7.87,3.89,25.62,2.35,51.63-5.39,76.31-6.23,19.88-17.75,36.65-36.8,46.24ZM347.65,511.7c14.48-8.02,25.57-19.97,30.19-35.68-4.26,1.48-39.08,32.08-30.19,35.68Z"/>
  <path class="st0" d="M696.56,439.85c-4.87,2.81-3.01-4.58-12.96-6.11-16.78-2.59-17.36,9.67-32.26,6.55-6.3-7.77-15.79-8.56-24.87-1.63l14.98-32.73,63.57-.08c-.59,6.42-1.93,11.67-3.11,17.56-6.62,3.04-8.91,10.42-5.36,16.45Z"/>
  <path class="st0" d="M478.81,456.65c2.15-1.89,4.6-12.87,8.28-13.03.94-.04,4.03-.03,3.59,1.5l-5.44,19.34c-.4,1.42-.06,3.04.79,3.87.94.92,2.34.21,3.67-.37,10.9-4.68,17.1-14.11,25.77-22.81-1.36,11.78-22.47,32.7-35.82,26.46-2.26-1.06-2.34-4.45-3.56-7.81-5.51,2.5-12.32,12.52-18.91,8.77-1.09-.62-1.37-3.13-.86-4.86l6.42-21.67c-5.72,4.26-10.77,9.03-15.16,14.14-3.64,4.23-7.98,3.75-12.08,5.91-6.75,3.55-11.99,9.54-20.31,8.41-5.21-.71-10.89-2.75-11.99-8.66-2.21-11.87,6.25-29.84,17.61-26.12,1.78.58,4.6,2.65,4.29,5.63-.8,7.68-7.64,11.98-13.84,15.82-2.52,1.56-.3,5.08.54,6.73,3.75,7.36,19.98-2.75,23.58-8.48,2.62-4.16,2.2-9.39,4.56-13.76.83-1.53,4.59-1.74,5.34-.05,1.62,3.69-1.6,6.42-1.5,10.88,6.51-4.59,17.86-19.57,25.13-15.62,5.33,2.89-6,19.86-5.41,26.43,5.86-3.08,10.72-6.61,15.3-10.65ZM417.62,445.19c-3.47.98-5.29,4.88-5.17,8.84,2.59-2.13,5.06-3.84,5.17-8.84Z"/>
  <path class="st0" d="M1065.73,451.04c-2.47-1.02-18.44,17.15-22.47,9-2.14-4.33,1.33-8.61.98-13.87-1.11,1.61-3.06,2.25-4.41,3.48l-20.57,18.55c-1.65,1.48-7.52,3.77-8.02.3-.9-6.25,5.64-21.61,9.21-21.73,5.11-.17-3.74,12.77-2.64,17.16,9.09-8.29,15.87-17,25.23-24.46,2.61-2.08,9.24-3.13,10.26.47,1.55,5.5-3.73,10.3-2.69,16.18,11.76-6.14,15.3-18.82,23.45-18.85,1.55,0,3.68,1.12,3.01,3.52l-6.5,23.41,17.19-12.58c-1.34,5.11-18.44,25.91-24.69,16.68-1.72-5.79,1.72-9.46,2.66-17.27Z"/>
  <path class="st0" d="M1008.3,482.76c-13.59,3.59-3.37-32.92-7.53-28.96-6.05,5.75-18.99,23.15-27.39,17.94-7.12-4.42,13.5-41.43,27.13-34.14,1.63.87,1.38,3.64,3.1,4.32,16.59-10.45-3.66,30.46,4.69,40.85ZM995.19,441.37c-8.47,6.99-14.7,15.76-17.3,26.81,7.54-2.7,23.62-17.76,17.3-26.81Z"/>
  <path class="st0" d="M605.21,434.89c.12.25.08.57.17.83-1.52-.36-3.27.02-5.14-.68l5.76-13.84-12.69,14.02c-.73.81-2.52.07-3.61.17-.76.07-1.04-.67-1.4-2.42l28.75-33.73c1.49-1.75,2.9-4.04,5.55-4.08l-16.43,35.11c-.78,1.67-1.68,3.03-.96,4.61Z"/>
  <path class="st0" d="M764.35,439.82c-5.54,1.49-10.88.51-17.06.47l16.61-45.68.45,45.21Z"/>
  <path class="st0" d="M900.09,438.79c-6.6-1.33-11.05-4.22-16.42-8.4,9.67-7.65,16.16-16.67,23.93-25.52l-7.51,33.92Z"/>
  <path class="st0" d="M495.6,427.59c1.12,1.01-1.64,6.77-3.46,7.24s-4.29.66-5.17-1.12c-.8-1.61-.44-3.43.53-4.63,1.76-2.18,6.93-2.55,8.1-1.5Z"/>
  <path class="st0" d="M935.75,433.9c-.89,1.7-4.65,1.43-7.06.86l11-13.21c.07,4.36-1.73,8.11-3.94,12.35Z"/>
  <path class="st0" d="M711.66,427.39c.07,2.81-1.27,5.92-3.75,7.35-1.7.98-4,.37-4.83-.69-.94-1.19-1.04-3.35.22-4.82,1.78-2.07,4.1-2.49,8.36-1.85Z"/>
  <path class="st0" d="M1237.15,429.86c-.77,1.5-4.37,2.13-4.67.16-.62-4.05,3.84-7.29,8-7.08-.52,2.75-2.07,4.47-3.32,6.92Z"/>
  <path class="st0" d="M904.68,372.72c-7.23-7.92-21.91-2.31-30.8,4.31-13.66,10.18-24.39,23.06-34.75,36.61-1.87,2.45-3.25,5.13-6.71,5.7l27.51-61.75,4.01-4.3c-4.77-5.71-11.33,6.43-13.18,10.49l-55.64,122.76c.84,2.95,2.99,2.7,5.47,2.4,1.41-.17,2.7-1.58,3.82-3.49l21.58-36.62c4.84,12.25,10.59,22.65,16.4,33.71,3.86,7.33,7.18,14.57,12.83,20.65,1.29,1.69,3.8,3.13,5.47,1.34-8.93-18.15-16.66-36.34-23.83-54.93-.7-1.82-.31-4.78,2.14-5.45,22.22-6.11,40.4-18.97,54.78-36.22,6.77-8.12,19-26.33,10.88-35.24ZM894.27,392.33c-12.71,24.72-35.44,43.79-63.64,48.91,12.73-21.89,39.25-56.78,60.87-67.04,1.22-.3,2.17-.55,3.06-.25,4.7,1.6,2.56,12.84-.29,18.38Z"/>
  <path class="st0" d="M1181.03,427.42c-1,.63-2.59-1.43-2.9-2.24-1.01-2.65,3.49-8.03,4.51-9.53.15,4.35-.08,7.96-1.61,11.77Z"/>
  <path class="st0" d="M921.34,422.87c-3.64.67.91-15.49,1.74-16.05,1.38-.98,4.93.05,6.29,1.22-3.77,9.63-8.97,9.45-8.03,14.83Z"/>
  <path class="st0" d="M872.15,413.24c-3.12-2.37-3.36-5.82-3.53-9.06,6.62-6.98,12.64-13.64,21.23-18.5-3.4,10.75-9.55,19.1-17.7,27.56Z"/>
  <path class="st0" d="M1346.32,128.04h-5.86v10.65h-5.54v-27.15h13.32c1.9.04,3.37.27,4.39.7,1.03.43,1.89,1.06,2.61,1.9.59.69,1.06,1.45,1.4,2.28s.52,1.79.52,2.85c0,1.29-.33,2.56-.98,3.8-.65,1.25-1.72,2.13-3.22,2.64,1.25.5,2.14,1.22,2.66,2.15.52.93.78,2.34.78,4.25v1.82c0,1.24.05,2.08.15,2.52.15.7.49,1.22,1.03,1.55v.68h-6.24c-.17-.6-.29-1.09-.37-1.46-.15-.76-.23-1.54-.24-2.34l-.04-2.52c-.02-1.73-.34-2.88-.95-3.46-.61-.58-1.75-.87-3.42-.87ZM1349.76,123.1c1.13-.52,1.7-1.53,1.7-3.06,0-1.65-.55-2.75-1.64-3.32-.61-.32-1.54-.48-2.76-.48h-6.59v7.29h6.43c1.28,0,2.24-.15,2.87-.44Z"/>
</svg>