<?xml version="1.0" encoding="UTF-8"?>
<svg id="katman_1" xmlns="http://www.w3.org/2000/svg" version="1.1" viewBox="0 0 1728 624">
  <!-- Generator: Adobe Illustrator 30.2.1, SVG Export Plug-In . SVG Version: 2.1.1 Build 1)  -->
  <defs>
    <style>
      .st0 {
        fill: #fff;
      }
    </style>
  </defs>
  <path class="st0" d="M556.31,305.99c-30.71-9.24-54.5,2.77-77.06,19.69-3.55-9.23-4.76-30.87,2.29-36.51,27.83-22.29,63.67-23.39,94.93-11.1,16.48,6.48,30.38,24.66,30.53,42.1l.84,97.62,24.33-1.81c1.41,1.69,3.3,15.28.57,18.05-12.9,13.09-50.91,25.31-64.45-2.2-28.18,20.93-60.99,21.42-87.52,2.43-72.84,39.25-45.56-13.32-80.45,5.39-31.09,16.68-68.47,10.58-82.19-24.35-27.59,44.04-83.14,38.56-125.65,18.01l.03-34.11c22.45,11.37,72.75,33.63,86.89,7.64,2.53-4.66-3.49-16.94-8.72-20.03l-56.34-33.36c-12.7-7.52-22.01-26.34-21.74-38.73.35-16.46,12.44-31.79,29.01-38.28,28.48-11.16,58.38-5.56,86.8,7.32l.23,32.89c-23.45-11.92-68.2-26.96-77.1-5.88-1.46,3.46,2.32,13.4,6.15,15.59l39.68,22.72c18.04,10.33,33.04,23.5,42.04,40.55,7.57-8.15,21.38-21.71,34.96-26.65l56.16-20.42c6.08-2.21,5.77-19.74,2.49-25.9-14.14-26.61-64.48-11.12-88.11,8.62-3.33-8.38-4.73-30.38,3.01-36.52,26.31-20.9,63.84-23.53,94.42-10.74,16.29,6.81,30.38,23.85,30.54,43.13l.76,91.57c.03,3.84,12.11,8.9,13.83,6.15,8.29-13.28,4.27-40.17,28.71-49.98l71.2-28.56c8.5-3.41-1.45-31.46-11.08-34.36ZM382.56,424.55c13.43-1.73,22.93-6.77,33.59-13.18l-.97-50.92c-22.97,7.15-70.84,22.37-56.78,50.17,3.11,6.15,16.67,14.89,24.17,13.92ZM536.69,424.55c13.39-1.72,22.92-6.8,33.54-13.22l-.98-50.9c-22.87,7.36-70.88,22.24-56.73,50.25,3.09,6.12,16.67,14.83,24.17,13.87Z"/>
  <path class="st0" d="M1428.22,417.46c-1.93,23.23-24.72,28.97-42.44,30.67l-9.42-19.28c-15.56,8.81-32.78,17.79-49.4,19.62-24.89,2.73-41.92-11.81-52.82-28.67-5.53,18.51-24.75,28.2-42.67,28.29l-9.46-19.17c-15.31,8.43-32.54,17.48-49.24,19.39-22.88,2.62-42.38-9.43-50.79-26.94-8.54-17.79-4.74-42.62,12.39-57.45,23.8-20.6,54.52-24.45,87.01-28.08,3.92-14.23,4.38-40.23-8.82-49.57-26.19-18.53-55.32-6.52-81.78,9.65-16.24-25.89,47.62-43.93,83.96-30.73,14.32,5.2,27.62,20.24,27.76,35.58l1.14,127.92c66.74-7.84-27.02-74.17,133.08-93.64,2.73-13.62,3.26-36.99-7.53-46.94-29.27-27-71.37,2.56-85.34,6.47-1.72.48-1.67-11.2-.32-12.72,16.13-18.07,60.29-29.65,87.72-15.89,17.65,8.86,26.08,22.55,26.14,41.64l.37,122.21,30.45-12.35ZM1224.19,406l-1.1-52.43c-26-2.82-53.61,2.48-73.63,21.46-8.87,8.41-14.06,24.4-11.38,35.66,2.37,9.94,16.9,20.5,29.09,21.72,23.1,2.31,43.64-9.13,57.01-26.4ZM1378.95,405.16l-1.14-52.18c-26.96-1.61-56.25,3.06-76.01,24.49-8.36,9.07-12.06,25.91-8.02,36.32,3.1,7.98,16.99,17.34,27.49,18.51,23.71,2.66,45.64-9.63,57.68-27.15Z"/>
  <path class="st0" d="M986.78,442.68c-6.67,2.14-22.62,3.12-27.49-1.75l-38.32-38.25c-30.18,32.69-69.92,53.66-114.66,42.92-20.46-4.91-39.34-20.8-46.18-35.57-22.26-48.05,13.74-88.49,59.79-111.46l-20.17-27.02c-13.42-17.98-15.76-42.1-6.12-62.16,8.54-17.77,28.19-31.32,50.97-34.11,22.69-2.78,45.5,6.01,57.24,21.65,14.32,19.08,15.77,44.29,3.42,66.05-10.21,17.98-26.46,28.76-48.56,42.67l62.16,64.02c23.54-27.91,22.98-78.88,51.96-58.17-10.66,25.98-21.75,48.57-35.82,74.62l51.79,56.57ZM841.27,288.32c25.06-6.23,47.72-24.81,51.68-49.27,4.39-27.13-18.42-45.06-40.93-44.77-25,.32-47.61,17.85-42.67,46.47,2.94,17.06,18.27,37.06,31.92,47.57ZM905.04,385.25l-68.79-70.99c-17.74,7.89-34.79,17.42-46.83,30.87-15.46,17.26-15.58,41.98-4.41,60.63,9.17,15.3,30.18,25.07,51.88,22.98,28.61-2.75,54.26-20.09,68.16-43.49Z"/>
  <path class="st0" d="M704.4,417.97l40.48-8.62c2.8,2.04,4.29,25.38-2.4,29.07-16.35,9.03-44.82,12.27-63.75,8.08-20.7-4.59-36.54-23.63-37.03-45.12l-2.17-95.44-31.65-4.5,68.37-62,2.42,33.94,56.7,1.14,1.62,29.09-58.92,1.48-.14,87.79c-.02,12.33,13.45,27.86,26.47,25.09Z"/>
  <path class="st0" d="M1533.35,424.68c7.05,12.29-4.32,18.77-18.12,22.15-22.59,5.54-58.16-3.13-58.5-31.93l-1.57-134.09-43.03-.97c-3.98-.09-6.31-14.51-2.67-14.72l45.74-2.55.14-27.54c.07-13.7,5.44-26.89,19.18-31.69l1.49,59.56,40.97,1.09c2.62.07,8.66,3.52,9.77,5.71,1.49,2.92-6.06,9.99-9.86,10.1l-41.4,1.21-.1,124.81c0,5,6.74,18.87,11.36,20.62,9.93,3.75,30.21.64,46.59-1.76Z"/>
  <path class="st0" d="M1070.46,443.08c-25,11.48-59.37,3.73-78.45-9.97-3.94-2.83-2.2-18.8,1.3-16.41,27,14.08,80.12,23.85,88.34-8.76,3-11.9-3.84-29.74-15.52-34.77l-45.29-19.52c-16.76-7.22-29.72-23.58-31.04-39.71-1.49-18.22,8.5-36,25.25-45.41,35.1-19.72,77.43.99,80.11,7.49,1.45,3.52.21,12.66-.8,17.2-21.2-10.99-40.18-19.82-63.89-12.89-10.9,3.19-21.71,16.12-22.42,25.2-.89,11.29,8.15,24.39,18.75,28.93l47.23,20.22c17.05,7.3,28.17,27.6,28.05,44.44-.14,17.87-11.73,34.83-31.6,43.95Z"/>
</svg>