<svg xmlns="http://www.w3.org/2000/svg" xmlns:xlink="http://www.w3.org/1999/xlink" width="2304" zoomAndPan="magnify" viewBox="0 0 1728 623.999998" height="832" preserveAspectRatio="xMidYMid meet" version="1.0"><defs><g/><clipPath id="0fbe08a07e"><rect x="0" width="836" y="0" height="155"/></clipPath></defs><g transform="matrix(1, 0, 0, 1, 446, 234)"><g clip-path="url(#0fbe08a07e)"><g fill="#fffffd" fill-opacity="1"><g transform="translate(1.008409, 122.402749)"><g><path d="M 35.125 1.4375 C 29.53125 1.4375 24.566406 0.617188 20.234375 -1.015625 C 15.898438 -2.660156 12.375 -5.035156 9.65625 -8.140625 C 6.945312 -11.253906 5.238281 -14.984375 4.53125 -19.328125 L 22 -21.703125 C 22.789062 -18.546875 24.304688 -16.160156 26.546875 -14.546875 C 28.785156 -12.929688 31.769531 -12.125 35.5 -12.125 C 39.019531 -12.125 41.796875 -12.796875 43.828125 -14.140625 C 45.859375 -15.484375 46.875 -17.191406 46.875 -19.265625 C 46.875 -21.046875 46.132812 -22.503906 44.65625 -23.640625 C 43.1875 -24.785156 40.984375 -25.671875 38.046875 -26.296875 L 26.171875 -28.65625 C 19.535156 -30.019531 14.5625 -32.335938 11.25 -35.609375 C 7.9375 -38.890625 6.28125 -43.117188 6.28125 -48.296875 C 6.28125 -52.648438 7.46875 -56.421875 9.84375 -59.609375 C 12.226562 -62.804688 15.585938 -65.273438 19.921875 -67.015625 C 24.253906 -68.753906 29.320312 -69.625 35.125 -69.625 C 40.675781 -69.625 45.484375 -68.835938 49.546875 -67.265625 C 53.609375 -65.691406 56.867188 -63.453125 59.328125 -60.546875 C 61.796875 -57.648438 63.363281 -54.234375 64.03125 -50.296875 L 47.4375 -47.984375 C 46.851562 -50.429688 45.554688 -52.429688 43.546875 -53.984375 C 41.535156 -55.546875 38.851562 -56.328125 35.5 -56.328125 C 32.382812 -56.328125 29.820312 -55.671875 27.8125 -54.359375 C 25.800781 -53.054688 24.796875 -51.367188 24.796875 -49.296875 C 24.796875 -47.554688 25.476562 -46.09375 26.84375 -44.90625 C 28.21875 -43.726562 30.457031 -42.828125 33.5625 -42.203125 L 46 -39.71875 C 52.71875 -38.394531 57.703125 -36.195312 60.953125 -33.125 C 64.203125 -30.0625 65.828125 -26.066406 65.828125 -21.140625 C 65.828125 -16.617188 64.519531 -12.671875 61.90625 -9.296875 C 59.300781 -5.921875 55.6875 -3.285156 51.0625 -1.390625 C 46.445312 0.492188 41.132812 1.4375 35.125 1.4375 Z M 35.125 1.4375 "/></g></g></g><g fill="#fffffd" fill-opacity="1"><g transform="translate(71.178158, 122.402749)"><g><path d="M 27.171875 1.3125 C 22.773438 1.3125 18.832031 0.546875 15.34375 -0.984375 C 11.863281 -2.523438 9.128906 -4.816406 7.140625 -7.859375 C 5.160156 -10.910156 4.171875 -14.691406 4.171875 -19.203125 C 4.171875 -23.054688 4.875 -26.269531 6.28125 -28.84375 C 7.6875 -31.414062 9.613281 -33.488281 12.0625 -35.0625 C 14.507812 -36.632812 17.296875 -37.820312 20.421875 -38.625 C 23.546875 -39.4375 26.832031 -40.007812 30.28125 -40.34375 C 34.289062 -40.757812 37.519531 -41.140625 39.96875 -41.484375 C 42.414062 -41.835938 44.195312 -42.390625 45.3125 -43.140625 C 46.4375 -43.890625 47 -45.007812 47 -46.5 L 47 -46.8125 C 47 -48.71875 46.570312 -50.34375 45.71875 -51.6875 C 44.875 -53.03125 43.640625 -54.066406 42.015625 -54.796875 C 40.398438 -55.523438 38.4375 -55.890625 36.125 -55.890625 C 33.757812 -55.890625 31.695312 -55.523438 29.9375 -54.796875 C 28.175781 -54.066406 26.742188 -53.09375 25.640625 -51.875 C 24.546875 -50.65625 23.769531 -49.28125 23.3125 -47.75 L 6.21875 -49.921875 C 7.164062 -54.066406 8.988281 -57.609375 11.6875 -60.546875 C 14.382812 -63.492188 17.820312 -65.742188 22 -67.296875 C 26.1875 -68.847656 30.953125 -69.625 36.296875 -69.625 C 40.191406 -69.625 43.890625 -69.164062 47.390625 -68.25 C 50.898438 -67.34375 54.019531 -65.9375 56.75 -64.03125 C 59.488281 -62.125 61.632812 -59.707031 63.1875 -56.78125 C 64.738281 -53.863281 65.515625 -50.375 65.515625 -46.3125 L 65.515625 0 L 47.796875 0 L 47.796875 -9.578125 L 47.25 -9.578125 C 46.125 -7.421875 44.640625 -5.523438 42.796875 -3.890625 C 40.953125 -2.253906 38.742188 -0.976562 36.171875 -0.0625 C 33.609375 0.851562 30.609375 1.3125 27.171875 1.3125 Z M 32.390625 -11.6875 C 35.328125 -11.6875 37.894531 -12.265625 40.09375 -13.421875 C 42.289062 -14.585938 44.007812 -16.144531 45.25 -18.09375 C 46.5 -20.039062 47.125 -22.234375 47.125 -24.671875 L 47.125 -31.953125 C 46.539062 -31.617188 45.726562 -31.285156 44.6875 -30.953125 C 43.65625 -30.617188 42.472656 -30.328125 41.140625 -30.078125 C 39.816406 -29.835938 38.484375 -29.613281 37.140625 -29.40625 C 35.796875 -29.195312 34.5625 -29.007812 33.4375 -28.84375 C 31.207031 -28.507812 29.21875 -27.976562 27.46875 -27.25 C 25.726562 -26.53125 24.378906 -25.554688 23.421875 -24.328125 C 22.472656 -23.109375 22 -21.585938 22 -19.765625 C 22 -18.023438 22.441406 -16.550781 23.328125 -15.34375 C 24.222656 -14.144531 25.445312 -13.234375 27 -12.609375 C 28.5625 -11.992188 30.359375 -11.6875 32.390625 -11.6875 Z M 32.390625 -11.6875 "/></g></g></g><g fill="#fffffd" fill-opacity="1"><g transform="translate(144.269045, 122.402749)"><g><path d="M 42.828125 -68.625 L 42.828125 -54.390625 L 1.1875 -54.390625 L 1.1875 -68.625 Z M 11.1875 -85.46875 L 29.71875 -85.46875 L 29.71875 -20.328125 C 29.71875 -18.128906 30.203125 -16.519531 31.171875 -15.5 C 32.148438 -14.488281 33.78125 -13.984375 36.0625 -13.984375 C 36.882812 -13.984375 37.945312 -14.054688 39.25 -14.203125 C 40.5625 -14.347656 41.566406 -14.484375 42.265625 -14.609375 L 44.328125 -0.5 C 42.460938 -0.0390625 40.515625 0.28125 38.484375 0.46875 C 36.453125 0.65625 34.484375 0.75 32.578125 0.75 C 25.523438 0.75 20.195312 -0.875 16.59375 -4.125 C 12.988281 -7.382812 11.1875 -12.144531 11.1875 -18.40625 Z M 11.1875 -85.46875 "/></g></g></g><g fill="#fffffd" fill-opacity="1"><g transform="translate(190.945295, 122.402749)"><g><path d="M 24.4375 -20.015625 L 24.4375 -42.265625 L 27.109375 -42.265625 L 49.859375 -68.625 L 71.421875 -68.625 L 41.46875 -34.1875 L 37.109375 -34.1875 Z M 7.640625 0 L 7.640625 -92.625 L 26.171875 -92.625 L 26.171875 0 Z M 50.90625 0 L 30.09375 -30.03125 L 42.453125 -43.203125 L 72.734375 0 Z M 50.90625 0 "/></g></g></g><g fill="#fffffd" fill-opacity="1"><g transform="translate(263.911877, 122.402749)"><g><path d="M 7.640625 0 L 7.640625 -68.625 L 26.171875 -68.625 L 26.171875 0 Z M 16.90625 -77.515625 C 14.039062 -77.515625 11.601562 -78.445312 9.59375 -80.3125 C 7.582031 -82.175781 6.578125 -84.457031 6.578125 -87.15625 C 6.578125 -89.84375 7.582031 -92.117188 9.59375 -93.984375 C 11.601562 -95.859375 14.039062 -96.796875 16.90625 -96.796875 C 19.757812 -96.796875 22.179688 -95.859375 24.171875 -93.984375 C 26.160156 -92.117188 27.15625 -89.84375 27.15625 -87.15625 C 27.15625 -84.457031 26.160156 -82.175781 24.171875 -80.3125 C 22.179688 -78.445312 19.757812 -77.515625 16.90625 -77.515625 Z M 16.90625 -77.515625 "/></g></g></g><g fill="#fffffd" fill-opacity="1"><g transform="translate(297.722628, 122.402749)"><g><path d="M 7.640625 0 L 7.640625 -68.625 L 25.609375 -68.625 L 25.609375 -56.75 L 26.234375 -56.75 C 27.472656 -60.9375 29.539062 -64.097656 32.4375 -66.234375 C 35.34375 -68.367188 38.785156 -69.4375 42.765625 -69.4375 C 43.765625 -69.4375 44.800781 -69.394531 45.875 -69.3125 C 46.957031 -69.226562 47.890625 -69.101562 48.671875 -68.9375 L 48.671875 -52.53125 C 47.890625 -52.78125 46.71875 -52.976562 45.15625 -53.125 C 43.601562 -53.269531 42.101562 -53.34375 40.65625 -53.34375 C 37.914062 -53.34375 35.4375 -52.738281 33.21875 -51.53125 C 31.007812 -50.332031 29.28125 -48.632812 28.03125 -46.4375 C 26.789062 -44.238281 26.171875 -41.648438 26.171875 -38.671875 L 26.171875 0 Z M 7.640625 0 "/></g></g></g><g fill="#fffffd" fill-opacity="1"><g transform="translate(348.625221, 122.402749)"><g><path d="M 27.171875 1.3125 C 22.773438 1.3125 18.832031 0.546875 15.34375 -0.984375 C 11.863281 -2.523438 9.128906 -4.816406 7.140625 -7.859375 C 5.160156 -10.910156 4.171875 -14.691406 4.171875 -19.203125 C 4.171875 -23.054688 4.875 -26.269531 6.28125 -28.84375 C 7.6875 -31.414062 9.613281 -33.488281 12.0625 -35.0625 C 14.507812 -36.632812 17.296875 -37.820312 20.421875 -38.625 C 23.546875 -39.4375 26.832031 -40.007812 30.28125 -40.34375 C 34.289062 -40.757812 37.519531 -41.140625 39.96875 -41.484375 C 42.414062 -41.835938 44.195312 -42.390625 45.3125 -43.140625 C 46.4375 -43.890625 47 -45.007812 47 -46.5 L 47 -46.8125 C 47 -48.71875 46.570312 -50.34375 45.71875 -51.6875 C 44.875 -53.03125 43.640625 -54.066406 42.015625 -54.796875 C 40.398438 -55.523438 38.4375 -55.890625 36.125 -55.890625 C 33.757812 -55.890625 31.695312 -55.523438 29.9375 -54.796875 C 28.175781 -54.066406 26.742188 -53.09375 25.640625 -51.875 C 24.546875 -50.65625 23.769531 -49.28125 23.3125 -47.75 L 6.21875 -49.921875 C 7.164062 -54.066406 8.988281 -57.609375 11.6875 -60.546875 C 14.382812 -63.492188 17.820312 -65.742188 22 -67.296875 C 26.1875 -68.847656 30.953125 -69.625 36.296875 -69.625 C 40.191406 -69.625 43.890625 -69.164062 47.390625 -68.25 C 50.898438 -67.34375 54.019531 -65.9375 56.75 -64.03125 C 59.488281 -62.125 61.632812 -59.707031 63.1875 -56.78125 C 64.738281 -53.863281 65.515625 -50.375 65.515625 -46.3125 L 65.515625 0 L 47.796875 0 L 47.796875 -9.578125 L 47.25 -9.578125 C 46.125 -7.421875 44.640625 -5.523438 42.796875 -3.890625 C 40.953125 -2.253906 38.742188 -0.976562 36.171875 -0.0625 C 33.609375 0.851562 30.609375 1.3125 27.171875 1.3125 Z M 32.390625 -11.6875 C 35.328125 -11.6875 37.894531 -12.265625 40.09375 -13.421875 C 42.289062 -14.585938 44.007812 -16.144531 45.25 -18.09375 C 46.5 -20.039062 47.125 -22.234375 47.125 -24.671875 L 47.125 -31.953125 C 46.539062 -31.617188 45.726562 -31.285156 44.6875 -30.953125 C 43.65625 -30.617188 42.472656 -30.328125 41.140625 -30.078125 C 39.816406 -29.835938 38.484375 -29.613281 37.140625 -29.40625 C 35.796875 -29.195312 34.5625 -29.007812 33.4375 -28.84375 C 31.207031 -28.507812 29.21875 -27.976562 27.46875 -27.25 C 25.726562 -26.53125 24.378906 -25.554688 23.421875 -24.328125 C 22.472656 -23.109375 22 -21.585938 22 -19.765625 C 22 -18.023438 22.441406 -16.550781 23.328125 -15.34375 C 24.222656 -14.144531 25.445312 -13.234375 27 -12.609375 C 28.5625 -11.992188 30.359375 -11.6875 32.390625 -11.6875 Z M 32.390625 -11.6875 "/></g></g></g><g fill="#fffffd" fill-opacity="1"><g transform="translate(421.716108, 122.402749)"><g><path d="M 26.171875 -92.625 L 26.171875 0 L 7.640625 0 L 7.640625 -92.625 Z M 26.171875 -92.625 "/></g></g></g><g fill="#fffffd" fill-opacity="1"><g transform="translate(455.526859, 122.402749)"><g><path d="M 27.171875 1.3125 C 22.773438 1.3125 18.832031 0.546875 15.34375 -0.984375 C 11.863281 -2.523438 9.128906 -4.816406 7.140625 -7.859375 C 5.160156 -10.910156 4.171875 -14.691406 4.171875 -19.203125 C 4.171875 -23.054688 4.875 -26.269531 6.28125 -28.84375 C 7.6875 -31.414062 9.613281 -33.488281 12.0625 -35.0625 C 14.507812 -36.632812 17.296875 -37.820312 20.421875 -38.625 C 23.546875 -39.4375 26.832031 -40.007812 30.28125 -40.34375 C 34.289062 -40.757812 37.519531 -41.140625 39.96875 -41.484375 C 42.414062 -41.835938 44.195312 -42.390625 45.3125 -43.140625 C 46.4375 -43.890625 47 -45.007812 47 -46.5 L 47 -46.8125 C 47 -48.71875 46.570312 -50.34375 45.71875 -51.6875 C 44.875 -53.03125 43.640625 -54.066406 42.015625 -54.796875 C 40.398438 -55.523438 38.4375 -55.890625 36.125 -55.890625 C 33.757812 -55.890625 31.695312 -55.523438 29.9375 -54.796875 C 28.175781 -54.066406 26.742188 -53.09375 25.640625 -51.875 C 24.546875 -50.65625 23.769531 -49.28125 23.3125 -47.75 L 6.21875 -49.921875 C 7.164062 -54.066406 8.988281 -57.609375 11.6875 -60.546875 C 14.382812 -63.492188 17.820312 -65.742188 22 -67.296875 C 26.1875 -68.847656 30.953125 -69.625 36.296875 -69.625 C 40.191406 -69.625 43.890625 -69.164062 47.390625 -68.25 C 50.898438 -67.34375 54.019531 -65.9375 56.75 -64.03125 C 59.488281 -62.125 61.632812 -59.707031 63.1875 -56.78125 C 64.738281 -53.863281 65.515625 -50.375 65.515625 -46.3125 L 65.515625 0 L 47.796875 0 L 47.796875 -9.578125 L 47.25 -9.578125 C 46.125 -7.421875 44.640625 -5.523438 42.796875 -3.890625 C 40.953125 -2.253906 38.742188 -0.976562 36.171875 -0.0625 C 33.609375 0.851562 30.609375 1.3125 27.171875 1.3125 Z M 32.390625 -11.6875 C 35.328125 -11.6875 37.894531 -12.265625 40.09375 -13.421875 C 42.289062 -14.585938 44.007812 -16.144531 45.25 -18.09375 C 46.5 -20.039062 47.125 -22.234375 47.125 -24.671875 L 47.125 -31.953125 C 46.539062 -31.617188 45.726562 -31.285156 44.6875 -30.953125 C 43.65625 -30.617188 42.472656 -30.328125 41.140625 -30.078125 C 39.816406 -29.835938 38.484375 -29.613281 37.140625 -29.40625 C 35.796875 -29.195312 34.5625 -29.007812 33.4375 -28.84375 C 31.207031 -28.507812 29.21875 -27.976562 27.46875 -27.25 C 25.726562 -26.53125 24.378906 -25.554688 23.421875 -24.328125 C 22.472656 -23.109375 22 -21.585938 22 -19.765625 C 22 -18.023438 22.441406 -16.550781 23.328125 -15.34375 C 24.222656 -14.144531 25.445312 -13.234375 27 -12.609375 C 28.5625 -11.992188 30.359375 -11.6875 32.390625 -11.6875 Z M 32.390625 -11.6875 "/></g></g></g><g fill="#fffffd" fill-opacity="1"><g transform="translate(528.617746, 122.402749)"><g><path d="M 20.015625 1.1875 C 16.992188 1.1875 14.445312 0.160156 12.375 -1.890625 C 10.300781 -3.941406 9.265625 -6.484375 9.265625 -9.515625 C 9.265625 -12.492188 10.300781 -15.007812 12.375 -17.0625 C 14.445312 -19.113281 16.992188 -20.140625 20.015625 -20.140625 C 23.003906 -20.140625 25.53125 -19.113281 27.59375 -17.0625 C 29.664062 -15.007812 30.703125 -12.492188 30.703125 -9.515625 C 30.703125 -6.484375 29.664062 -3.941406 27.59375 -1.890625 C 25.53125 0.160156 23.003906 1.1875 20.015625 1.1875 Z M 20.015625 1.1875 "/></g></g></g><g fill="#fffffd" fill-opacity="1"><g transform="translate(568.581567, 122.402749)"><g><path d="M 38.484375 1.375 C 31.597656 1.375 25.628906 -0.101562 20.578125 -3.0625 C 15.523438 -6.03125 11.617188 -10.175781 8.859375 -15.5 C 6.097656 -20.832031 4.71875 -27.019531 4.71875 -34.0625 C 4.71875 -41.15625 6.097656 -47.375 8.859375 -52.71875 C 11.617188 -58.0625 15.523438 -62.210938 20.578125 -65.171875 C 25.628906 -68.140625 31.597656 -69.625 38.484375 -69.625 C 42.671875 -69.625 46.515625 -69.070312 50.015625 -67.96875 C 53.515625 -66.875 56.609375 -65.289062 59.296875 -63.21875 C 61.992188 -61.144531 64.203125 -58.644531 65.921875 -55.71875 C 67.640625 -52.800781 68.789062 -49.519531 69.375 -45.875 L 51.96875 -43.390625 C 51.59375 -45.171875 51.03125 -46.765625 50.28125 -48.171875 C 49.539062 -49.585938 48.609375 -50.800781 47.484375 -51.8125 C 46.367188 -52.832031 45.078125 -53.609375 43.609375 -54.140625 C 42.140625 -54.679688 40.492188 -54.953125 38.671875 -54.953125 C 35.390625 -54.953125 32.640625 -54.082031 30.421875 -52.34375 C 28.210938 -50.601562 26.523438 -48.164062 25.359375 -45.03125 C 24.203125 -41.90625 23.625 -38.269531 23.625 -34.125 C 23.625 -30.019531 24.203125 -26.40625 25.359375 -23.28125 C 26.523438 -20.15625 28.210938 -17.707031 30.421875 -15.9375 C 32.640625 -14.175781 35.390625 -13.296875 38.671875 -13.296875 C 40.492188 -13.296875 42.140625 -13.578125 43.609375 -14.140625 C 45.078125 -14.703125 46.378906 -15.5 47.515625 -16.53125 C 48.660156 -17.570312 49.613281 -18.828125 50.375 -20.296875 C 51.144531 -21.765625 51.695312 -23.429688 52.03125 -25.296875 L 69.4375 -22.75 C 68.894531 -19.0625 67.765625 -15.742188 66.046875 -12.796875 C 64.328125 -9.859375 62.117188 -7.320312 59.421875 -5.1875 C 56.734375 -3.050781 53.617188 -1.421875 50.078125 -0.296875 C 46.535156 0.816406 42.671875 1.375 38.484375 1.375 Z M 38.484375 1.375 "/></g></g></g><g fill="#fffffd" fill-opacity="1"><g transform="translate(642.542608, 122.402749)"><g><path d="M 38.609375 1.375 C 31.679688 1.375 25.679688 -0.101562 20.609375 -3.0625 C 15.535156 -6.03125 11.617188 -10.175781 8.859375 -15.5 C 6.097656 -20.832031 4.71875 -27.019531 4.71875 -34.0625 C 4.71875 -41.195312 6.097656 -47.425781 8.859375 -52.75 C 11.617188 -58.070312 15.535156 -62.210938 20.609375 -65.171875 C 25.679688 -68.140625 31.679688 -69.625 38.609375 -69.625 C 45.484375 -69.625 51.457031 -68.140625 56.53125 -65.171875 C 61.613281 -62.210938 65.53125 -58.070312 68.28125 -52.75 C 71.039062 -47.425781 72.421875 -41.195312 72.421875 -34.0625 C 72.421875 -27.019531 71.039062 -20.832031 68.28125 -15.5 C 65.53125 -10.175781 61.613281 -6.03125 56.53125 -3.0625 C 51.457031 -0.101562 45.484375 1.375 38.609375 1.375 Z M 38.609375 -13.296875 C 41.835938 -13.296875 44.5625 -14.1875 46.78125 -15.96875 C 49 -17.757812 50.6875 -20.21875 51.84375 -23.34375 C 53 -26.46875 53.578125 -30.0625 53.578125 -34.125 C 53.578125 -38.226562 53 -41.832031 51.84375 -44.9375 C 50.6875 -48.050781 49 -50.5 46.78125 -52.28125 C 44.5625 -54.0625 41.835938 -54.953125 38.609375 -54.953125 C 35.367188 -54.953125 32.628906 -54.0625 30.390625 -52.28125 C 28.160156 -50.5 26.472656 -48.050781 25.328125 -44.9375 C 24.191406 -41.832031 23.625 -38.226562 23.625 -34.125 C 23.625 -30.0625 24.191406 -26.46875 25.328125 -23.34375 C 26.472656 -20.21875 28.148438 -17.757812 30.359375 -15.96875 C 32.578125 -14.1875 35.328125 -13.296875 38.609375 -13.296875 Z M 38.609375 -13.296875 "/></g></g></g><g fill="#fffffd" fill-opacity="1"><g transform="translate(719.673369, 122.402749)"><g><path d="M 7.640625 0 L 7.640625 -68.625 L 24.984375 -68.625 L 25.734375 -51.90625 L 24.4375 -51.90625 C 25.507812 -56.050781 27.09375 -59.4375 29.1875 -62.0625 C 31.28125 -64.695312 33.734375 -66.632812 36.546875 -67.875 C 39.367188 -69.125 42.332031 -69.75 45.4375 -69.75 C 50.414062 -69.75 54.507812 -68.191406 57.71875 -65.078125 C 60.925781 -61.972656 63.195312 -57.289062 64.53125 -51.03125 L 62.40625 -51.03125 C 63.363281 -55.257812 64.992188 -58.75 67.296875 -61.5 C 69.597656 -64.257812 72.332031 -66.320312 75.5 -67.6875 C 78.664062 -69.0625 82.03125 -69.75 85.59375 -69.75 C 89.820312 -69.75 93.601562 -68.828125 96.9375 -66.984375 C 100.28125 -65.140625 102.914062 -62.460938 104.84375 -58.953125 C 106.769531 -55.453125 107.734375 -51.175781 107.734375 -46.125 L 107.734375 0 L 89.140625 0 L 89.140625 -42.578125 C 89.140625 -46.515625 88.082031 -49.445312 85.96875 -51.375 C 83.851562 -53.300781 81.242188 -54.265625 78.140625 -54.265625 C 75.773438 -54.265625 73.734375 -53.753906 72.015625 -52.734375 C 70.296875 -51.722656 68.96875 -50.304688 68.03125 -48.484375 C 67.101562 -46.660156 66.640625 -44.503906 66.640625 -42.015625 L 66.640625 0 L 48.671875 0 L 48.671875 -43.140625 C 48.671875 -46.535156 47.664062 -49.238281 45.65625 -51.25 C 43.644531 -53.257812 41.046875 -54.265625 37.859375 -54.265625 C 35.660156 -54.265625 33.679688 -53.765625 31.921875 -52.765625 C 30.160156 -51.773438 28.757812 -50.316406 27.71875 -48.390625 C 26.6875 -46.460938 26.171875 -44.09375 26.171875 -41.28125 L 26.171875 0 Z M 7.640625 0 "/></g></g></g></g></g></svg>