<svg xmlns="http://www.w3.org/2000/svg" xmlns:xlink="http://www.w3.org/1999/xlink" width="591" zoomAndPan="magnify" viewBox="0 0 443.25 443.249984" height="591" preserveAspectRatio="xMidYMid meet" version="1.0"><defs><g/><clipPath id="dbdbaa2491"><rect x="0" width="228" y="0" height="43"/></clipPath></defs><g transform="matrix(1, 0, 0, 1, 107, 200)"><g clip-path="url(#dbdbaa2491)"><g fill="#fffffd" fill-opacity="1"><g transform="translate(0.622597, 33.350245)"><g><path d="M 9.5625 0.390625 C 8.039062 0.390625 6.691406 0.164062 5.515625 -0.28125 C 4.335938 -0.726562 3.378906 -1.375 2.640625 -2.21875 C 1.898438 -3.0625 1.429688 -4.078125 1.234375 -5.265625 L 6 -5.90625 C 6.207031 -5.050781 6.613281 -4.398438 7.21875 -3.953125 C 7.832031 -3.515625 8.648438 -3.296875 9.671875 -3.296875 C 10.628906 -3.296875 11.382812 -3.476562 11.9375 -3.84375 C 12.488281 -4.21875 12.765625 -4.6875 12.765625 -5.25 C 12.765625 -5.738281 12.5625 -6.132812 12.15625 -6.4375 C 11.757812 -6.75 11.160156 -6.992188 10.359375 -7.171875 L 7.125 -7.8125 C 5.320312 -8.175781 3.96875 -8.804688 3.0625 -9.703125 C 2.15625 -10.597656 1.703125 -11.75 1.703125 -13.15625 C 1.703125 -14.34375 2.023438 -15.367188 2.671875 -16.234375 C 3.328125 -17.109375 4.242188 -17.78125 5.421875 -18.25 C 6.609375 -18.726562 7.988281 -18.96875 9.5625 -18.96875 C 11.082031 -18.96875 12.394531 -18.753906 13.5 -18.328125 C 14.601562 -17.898438 15.488281 -17.289062 16.15625 -16.5 C 16.832031 -15.707031 17.265625 -14.773438 17.453125 -13.703125 L 12.921875 -13.078125 C 12.765625 -13.742188 12.410156 -14.285156 11.859375 -14.703125 C 11.316406 -15.128906 10.585938 -15.34375 9.671875 -15.34375 C 8.828125 -15.34375 8.128906 -15.164062 7.578125 -14.8125 C 7.035156 -14.457031 6.765625 -14 6.765625 -13.4375 C 6.765625 -12.957031 6.945312 -12.554688 7.3125 -12.234375 C 7.6875 -11.910156 8.296875 -11.664062 9.140625 -11.5 L 12.53125 -10.828125 C 14.363281 -10.460938 15.722656 -9.863281 16.609375 -9.03125 C 17.492188 -8.195312 17.9375 -7.109375 17.9375 -5.765625 C 17.9375 -4.523438 17.578125 -3.445312 16.859375 -2.53125 C 16.148438 -1.613281 15.164062 -0.894531 13.90625 -0.375 C 12.65625 0.132812 11.207031 0.390625 9.5625 0.390625 Z M 9.5625 0.390625 "/></g></g></g><g fill="#fffffd" fill-opacity="1"><g transform="translate(19.743491, 33.350245)"><g><path d="M 7.40625 0.359375 C 6.207031 0.359375 5.132812 0.148438 4.1875 -0.265625 C 3.238281 -0.679688 2.492188 -1.304688 1.953125 -2.140625 C 1.410156 -2.972656 1.140625 -4.003906 1.140625 -5.234375 C 1.140625 -6.285156 1.328125 -7.160156 1.703125 -7.859375 C 2.085938 -8.554688 2.613281 -9.117188 3.28125 -9.546875 C 3.945312 -9.984375 4.707031 -10.3125 5.5625 -10.53125 C 6.414062 -10.75 7.3125 -10.90625 8.25 -11 C 9.34375 -11.101562 10.222656 -11.203125 10.890625 -11.296875 C 11.554688 -11.398438 12.039062 -11.550781 12.34375 -11.75 C 12.644531 -11.957031 12.796875 -12.265625 12.796875 -12.671875 L 12.796875 -12.75 C 12.796875 -13.269531 12.679688 -13.710938 12.453125 -14.078125 C 12.222656 -14.453125 11.882812 -14.738281 11.4375 -14.9375 C 11 -15.132812 10.46875 -15.234375 9.84375 -15.234375 C 9.195312 -15.234375 8.632812 -15.132812 8.15625 -14.9375 C 7.675781 -14.738281 7.285156 -14.472656 6.984375 -14.140625 C 6.679688 -13.804688 6.46875 -13.429688 6.34375 -13.015625 L 1.6875 -13.59375 C 1.945312 -14.726562 2.441406 -15.695312 3.171875 -16.5 C 3.910156 -17.300781 4.847656 -17.910156 5.984375 -18.328125 C 7.128906 -18.753906 8.429688 -18.96875 9.890625 -18.96875 C 10.953125 -18.96875 11.957031 -18.84375 12.90625 -18.59375 C 13.863281 -18.34375 14.710938 -17.957031 15.453125 -17.4375 C 16.203125 -16.925781 16.789062 -16.269531 17.21875 -15.46875 C 17.644531 -14.675781 17.859375 -13.726562 17.859375 -12.625 L 17.859375 0 L 13.03125 0 L 13.03125 -2.609375 L 12.875 -2.609375 C 12.570312 -2.023438 12.164062 -1.507812 11.65625 -1.0625 C 11.15625 -0.613281 10.554688 -0.265625 9.859375 -0.015625 C 9.160156 0.234375 8.34375 0.359375 7.40625 0.359375 Z M 8.828125 -3.1875 C 9.628906 -3.1875 10.328125 -3.34375 10.921875 -3.65625 C 11.523438 -3.96875 11.992188 -4.390625 12.328125 -4.921875 C 12.671875 -5.453125 12.84375 -6.050781 12.84375 -6.71875 L 12.84375 -8.703125 C 12.675781 -8.609375 12.453125 -8.515625 12.171875 -8.421875 C 11.890625 -8.335938 11.566406 -8.257812 11.203125 -8.1875 C 10.847656 -8.125 10.484375 -8.0625 10.109375 -8 C 9.742188 -7.945312 9.410156 -7.898438 9.109375 -7.859375 C 8.503906 -7.765625 7.960938 -7.617188 7.484375 -7.421875 C 7.015625 -7.222656 6.648438 -6.957031 6.390625 -6.625 C 6.128906 -6.289062 6 -5.878906 6 -5.390625 C 6 -4.910156 6.117188 -4.503906 6.359375 -4.171875 C 6.597656 -3.847656 6.929688 -3.601562 7.359375 -3.4375 C 7.785156 -3.269531 8.273438 -3.1875 8.828125 -3.1875 Z M 8.828125 -3.1875 "/></g></g></g><g fill="#fffffd" fill-opacity="1"><g transform="translate(39.66038, 33.350245)"><g><path d="M 11.671875 -18.703125 L 11.671875 -14.8125 L 0.328125 -14.8125 L 0.328125 -18.703125 Z M 3.046875 -23.28125 L 8.09375 -23.28125 L 8.09375 -5.53125 C 8.09375 -4.9375 8.222656 -4.5 8.484375 -4.21875 C 8.753906 -3.945312 9.203125 -3.8125 9.828125 -3.8125 C 10.046875 -3.8125 10.332031 -3.828125 10.6875 -3.859375 C 11.050781 -3.898438 11.328125 -3.941406 11.515625 -3.984375 L 12.078125 -0.140625 C 11.566406 -0.015625 11.035156 0.0703125 10.484375 0.125 C 9.929688 0.175781 9.394531 0.203125 8.875 0.203125 C 6.957031 0.203125 5.503906 -0.238281 4.515625 -1.125 C 3.535156 -2.007812 3.046875 -3.304688 3.046875 -5.015625 Z M 3.046875 -23.28125 "/></g></g></g><g fill="#fffffd" fill-opacity="1"><g transform="translate(52.379417, 33.350245)"><g><path d="M 6.65625 -5.453125 L 6.65625 -11.515625 L 7.390625 -11.515625 L 13.578125 -18.703125 L 19.453125 -18.703125 L 11.296875 -9.3125 L 10.109375 -9.3125 Z M 2.078125 0 L 2.078125 -25.234375 L 7.125 -25.234375 L 7.125 0 Z M 13.875 0 L 8.203125 -8.1875 L 11.5625 -11.765625 L 19.8125 0 Z M 13.875 0 "/></g></g></g><g fill="#fffffd" fill-opacity="1"><g transform="translate(72.262433, 33.350245)"><g><path d="M 2.078125 0 L 2.078125 -18.703125 L 7.125 -18.703125 L 7.125 0 Z M 4.609375 -21.125 C 3.828125 -21.125 3.160156 -21.375 2.609375 -21.875 C 2.066406 -22.382812 1.796875 -23.007812 1.796875 -23.75 C 1.796875 -24.476562 2.066406 -25.097656 2.609375 -25.609375 C 3.160156 -26.117188 3.828125 -26.375 4.609375 -26.375 C 5.390625 -26.375 6.050781 -26.117188 6.59375 -25.609375 C 7.132812 -25.097656 7.40625 -24.476562 7.40625 -23.75 C 7.40625 -23.007812 7.132812 -22.382812 6.59375 -21.875 C 6.050781 -21.375 5.390625 -21.125 4.609375 -21.125 Z M 4.609375 -21.125 "/></g></g></g><g fill="#fffffd" fill-opacity="1"><g transform="translate(81.475688, 33.350245)"><g><path d="M 2.078125 0 L 2.078125 -18.703125 L 6.984375 -18.703125 L 6.984375 -15.46875 L 7.140625 -15.46875 C 7.484375 -16.601562 8.050781 -17.460938 8.84375 -18.046875 C 9.632812 -18.628906 10.570312 -18.921875 11.65625 -18.921875 C 11.925781 -18.921875 12.207031 -18.90625 12.5 -18.875 C 12.789062 -18.851562 13.046875 -18.820312 13.265625 -18.78125 L 13.265625 -14.3125 C 13.046875 -14.375 12.722656 -14.425781 12.296875 -14.46875 C 11.878906 -14.507812 11.472656 -14.53125 11.078125 -14.53125 C 10.328125 -14.53125 9.648438 -14.363281 9.046875 -14.03125 C 8.441406 -13.707031 7.96875 -13.242188 7.625 -12.640625 C 7.289062 -12.046875 7.125 -11.34375 7.125 -10.53125 L 7.125 0 Z M 2.078125 0 "/></g></g></g><g fill="#fffffd" fill-opacity="1"><g transform="translate(95.346382, 33.350245)"><g><path d="M 7.40625 0.359375 C 6.207031 0.359375 5.132812 0.148438 4.1875 -0.265625 C 3.238281 -0.679688 2.492188 -1.304688 1.953125 -2.140625 C 1.410156 -2.972656 1.140625 -4.003906 1.140625 -5.234375 C 1.140625 -6.285156 1.328125 -7.160156 1.703125 -7.859375 C 2.085938 -8.554688 2.613281 -9.117188 3.28125 -9.546875 C 3.945312 -9.984375 4.707031 -10.3125 5.5625 -10.53125 C 6.414062 -10.75 7.3125 -10.90625 8.25 -11 C 9.34375 -11.101562 10.222656 -11.203125 10.890625 -11.296875 C 11.554688 -11.398438 12.039062 -11.550781 12.34375 -11.75 C 12.644531 -11.957031 12.796875 -12.265625 12.796875 -12.671875 L 12.796875 -12.75 C 12.796875 -13.269531 12.679688 -13.710938 12.453125 -14.078125 C 12.222656 -14.453125 11.882812 -14.738281 11.4375 -14.9375 C 11 -15.132812 10.46875 -15.234375 9.84375 -15.234375 C 9.195312 -15.234375 8.632812 -15.132812 8.15625 -14.9375 C 7.675781 -14.738281 7.285156 -14.472656 6.984375 -14.140625 C 6.679688 -13.804688 6.46875 -13.429688 6.34375 -13.015625 L 1.6875 -13.59375 C 1.945312 -14.726562 2.441406 -15.695312 3.171875 -16.5 C 3.910156 -17.300781 4.847656 -17.910156 5.984375 -18.328125 C 7.128906 -18.753906 8.429688 -18.96875 9.890625 -18.96875 C 10.953125 -18.96875 11.957031 -18.84375 12.90625 -18.59375 C 13.863281 -18.34375 14.710938 -17.957031 15.453125 -17.4375 C 16.203125 -16.925781 16.789062 -16.269531 17.21875 -15.46875 C 17.644531 -14.675781 17.859375 -13.726562 17.859375 -12.625 L 17.859375 0 L 13.03125 0 L 13.03125 -2.609375 L 12.875 -2.609375 C 12.570312 -2.023438 12.164062 -1.507812 11.65625 -1.0625 C 11.15625 -0.613281 10.554688 -0.265625 9.859375 -0.015625 C 9.160156 0.234375 8.34375 0.359375 7.40625 0.359375 Z M 8.828125 -3.1875 C 9.628906 -3.1875 10.328125 -3.34375 10.921875 -3.65625 C 11.523438 -3.96875 11.992188 -4.390625 12.328125 -4.921875 C 12.671875 -5.453125 12.84375 -6.050781 12.84375 -6.71875 L 12.84375 -8.703125 C 12.675781 -8.609375 12.453125 -8.515625 12.171875 -8.421875 C 11.890625 -8.335938 11.566406 -8.257812 11.203125 -8.1875 C 10.847656 -8.125 10.484375 -8.0625 10.109375 -8 C 9.742188 -7.945312 9.410156 -7.898438 9.109375 -7.859375 C 8.503906 -7.765625 7.960938 -7.617188 7.484375 -7.421875 C 7.015625 -7.222656 6.648438 -6.957031 6.390625 -6.625 C 6.128906 -6.289062 6 -5.878906 6 -5.390625 C 6 -4.910156 6.117188 -4.503906 6.359375 -4.171875 C 6.597656 -3.847656 6.929688 -3.601562 7.359375 -3.4375 C 7.785156 -3.269531 8.273438 -3.1875 8.828125 -3.1875 Z M 8.828125 -3.1875 "/></g></g></g><g fill="#fffffd" fill-opacity="1"><g transform="translate(115.263271, 33.350245)"><g><path d="M 7.125 -25.234375 L 7.125 0 L 2.078125 0 L 2.078125 -25.234375 Z M 7.125 -25.234375 "/></g></g></g><g fill="#fffffd" fill-opacity="1"><g transform="translate(124.476525, 33.350245)"><g><path d="M 7.40625 0.359375 C 6.207031 0.359375 5.132812 0.148438 4.1875 -0.265625 C 3.238281 -0.679688 2.492188 -1.304688 1.953125 -2.140625 C 1.410156 -2.972656 1.140625 -4.003906 1.140625 -5.234375 C 1.140625 -6.285156 1.328125 -7.160156 1.703125 -7.859375 C 2.085938 -8.554688 2.613281 -9.117188 3.28125 -9.546875 C 3.945312 -9.984375 4.707031 -10.3125 5.5625 -10.53125 C 6.414062 -10.75 7.3125 -10.90625 8.25 -11 C 9.34375 -11.101562 10.222656 -11.203125 10.890625 -11.296875 C 11.554688 -11.398438 12.039062 -11.550781 12.34375 -11.75 C 12.644531 -11.957031 12.796875 -12.265625 12.796875 -12.671875 L 12.796875 -12.75 C 12.796875 -13.269531 12.679688 -13.710938 12.453125 -14.078125 C 12.222656 -14.453125 11.882812 -14.738281 11.4375 -14.9375 C 11 -15.132812 10.46875 -15.234375 9.84375 -15.234375 C 9.195312 -15.234375 8.632812 -15.132812 8.15625 -14.9375 C 7.675781 -14.738281 7.285156 -14.472656 6.984375 -14.140625 C 6.679688 -13.804688 6.46875 -13.429688 6.34375 -13.015625 L 1.6875 -13.59375 C 1.945312 -14.726562 2.441406 -15.695312 3.171875 -16.5 C 3.910156 -17.300781 4.847656 -17.910156 5.984375 -18.328125 C 7.128906 -18.753906 8.429688 -18.96875 9.890625 -18.96875 C 10.953125 -18.96875 11.957031 -18.84375 12.90625 -18.59375 C 13.863281 -18.34375 14.710938 -17.957031 15.453125 -17.4375 C 16.203125 -16.925781 16.789062 -16.269531 17.21875 -15.46875 C 17.644531 -14.675781 17.859375 -13.726562 17.859375 -12.625 L 17.859375 0 L 13.03125 0 L 13.03125 -2.609375 L 12.875 -2.609375 C 12.570312 -2.023438 12.164062 -1.507812 11.65625 -1.0625 C 11.15625 -0.613281 10.554688 -0.265625 9.859375 -0.015625 C 9.160156 0.234375 8.34375 0.359375 7.40625 0.359375 Z M 8.828125 -3.1875 C 9.628906 -3.1875 10.328125 -3.34375 10.921875 -3.65625 C 11.523438 -3.96875 11.992188 -4.390625 12.328125 -4.921875 C 12.671875 -5.453125 12.84375 -6.050781 12.84375 -6.71875 L 12.84375 -8.703125 C 12.675781 -8.609375 12.453125 -8.515625 12.171875 -8.421875 C 11.890625 -8.335938 11.566406 -8.257812 11.203125 -8.1875 C 10.847656 -8.125 10.484375 -8.0625 10.109375 -8 C 9.742188 -7.945312 9.410156 -7.898438 9.109375 -7.859375 C 8.503906 -7.765625 7.960938 -7.617188 7.484375 -7.421875 C 7.015625 -7.222656 6.648438 -6.957031 6.390625 -6.625 C 6.128906 -6.289062 6 -5.878906 6 -5.390625 C 6 -4.910156 6.117188 -4.503906 6.359375 -4.171875 C 6.597656 -3.847656 6.929688 -3.601562 7.359375 -3.4375 C 7.785156 -3.269531 8.273438 -3.1875 8.828125 -3.1875 Z M 8.828125 -3.1875 "/></g></g></g><g fill="#fffffd" fill-opacity="1"><g transform="translate(144.393414, 33.350245)"><g><path d="M 5.453125 0.328125 C 4.628906 0.328125 3.9375 0.046875 3.375 -0.515625 C 2.8125 -1.078125 2.53125 -1.769531 2.53125 -2.59375 C 2.53125 -3.40625 2.8125 -4.085938 3.375 -4.640625 C 3.9375 -5.203125 4.628906 -5.484375 5.453125 -5.484375 C 6.265625 -5.484375 6.953125 -5.203125 7.515625 -4.640625 C 8.078125 -4.085938 8.359375 -3.40625 8.359375 -2.59375 C 8.359375 -1.769531 8.078125 -1.078125 7.515625 -0.515625 C 6.953125 0.046875 6.265625 0.328125 5.453125 0.328125 Z M 5.453125 0.328125 "/></g></g></g><g fill="#fffffd" fill-opacity="1"><g transform="translate(155.283349, 33.350245)"><g><path d="M 10.484375 0.375 C 8.609375 0.375 6.984375 -0.0234375 5.609375 -0.828125 C 4.234375 -1.640625 3.164062 -2.769531 2.40625 -4.21875 C 1.65625 -5.675781 1.28125 -7.363281 1.28125 -9.28125 C 1.28125 -11.207031 1.65625 -12.898438 2.40625 -14.359375 C 3.164062 -15.816406 4.234375 -16.945312 5.609375 -17.75 C 6.984375 -18.5625 8.609375 -18.96875 10.484375 -18.96875 C 11.617188 -18.96875 12.664062 -18.816406 13.625 -18.515625 C 14.582031 -18.222656 15.425781 -17.789062 16.15625 -17.21875 C 16.894531 -16.65625 17.5 -15.972656 17.96875 -15.171875 C 18.4375 -14.378906 18.75 -13.488281 18.90625 -12.5 L 14.15625 -11.828125 C 14.050781 -12.304688 13.894531 -12.738281 13.6875 -13.125 C 13.488281 -13.507812 13.238281 -13.835938 12.9375 -14.109375 C 12.632812 -14.390625 12.28125 -14.601562 11.875 -14.75 C 11.476562 -14.894531 11.03125 -14.96875 10.53125 -14.96875 C 9.644531 -14.96875 8.898438 -14.726562 8.296875 -14.25 C 7.691406 -13.78125 7.226562 -13.117188 6.90625 -12.265625 C 6.59375 -11.421875 6.4375 -10.429688 6.4375 -9.296875 C 6.4375 -8.179688 6.59375 -7.195312 6.90625 -6.34375 C 7.226562 -5.488281 7.691406 -4.820312 8.296875 -4.34375 C 8.898438 -3.863281 9.644531 -3.625 10.53125 -3.625 C 11.03125 -3.625 11.476562 -3.695312 11.875 -3.84375 C 12.28125 -4 12.640625 -4.21875 12.953125 -4.5 C 13.265625 -4.78125 13.523438 -5.117188 13.734375 -5.515625 C 13.941406 -5.921875 14.085938 -6.378906 14.171875 -6.890625 L 18.921875 -6.203125 C 18.773438 -5.191406 18.46875 -4.285156 18 -3.484375 C 17.53125 -2.679688 16.925781 -1.988281 16.1875 -1.40625 C 15.457031 -0.832031 14.609375 -0.390625 13.640625 -0.078125 C 12.671875 0.222656 11.617188 0.375 10.484375 0.375 Z M 10.484375 0.375 "/></g></g></g><g fill="#fffffd" fill-opacity="1"><g transform="translate(175.43735, 33.350245)"><g><path d="M 10.515625 0.375 C 8.628906 0.375 6.992188 -0.0234375 5.609375 -0.828125 C 4.234375 -1.640625 3.164062 -2.769531 2.40625 -4.21875 C 1.65625 -5.675781 1.28125 -7.363281 1.28125 -9.28125 C 1.28125 -11.21875 1.65625 -12.910156 2.40625 -14.359375 C 3.164062 -15.816406 4.234375 -16.945312 5.609375 -17.75 C 6.992188 -18.5625 8.628906 -18.96875 10.515625 -18.96875 C 12.390625 -18.96875 14.019531 -18.5625 15.40625 -17.75 C 16.789062 -16.945312 17.859375 -15.816406 18.609375 -14.359375 C 19.359375 -12.910156 19.734375 -11.21875 19.734375 -9.28125 C 19.734375 -7.363281 19.359375 -5.675781 18.609375 -4.21875 C 17.859375 -2.769531 16.789062 -1.640625 15.40625 -0.828125 C 14.019531 -0.0234375 12.390625 0.375 10.515625 0.375 Z M 10.515625 -3.625 C 11.398438 -3.625 12.144531 -3.863281 12.75 -4.34375 C 13.351562 -4.832031 13.8125 -5.503906 14.125 -6.359375 C 14.4375 -7.210938 14.59375 -8.191406 14.59375 -9.296875 C 14.59375 -10.410156 14.4375 -11.390625 14.125 -12.234375 C 13.8125 -13.085938 13.351562 -13.753906 12.75 -14.234375 C 12.144531 -14.722656 11.398438 -14.96875 10.515625 -14.96875 C 9.640625 -14.96875 8.894531 -14.722656 8.28125 -14.234375 C 7.675781 -13.753906 7.21875 -13.085938 6.90625 -12.234375 C 6.59375 -11.390625 6.4375 -10.410156 6.4375 -9.296875 C 6.4375 -8.191406 6.59375 -7.210938 6.90625 -6.359375 C 7.21875 -5.503906 7.675781 -4.832031 8.28125 -4.34375 C 8.882812 -3.863281 9.628906 -3.625 10.515625 -3.625 Z M 10.515625 -3.625 "/></g></g></g><g fill="#fffffd" fill-opacity="1"><g transform="translate(196.455084, 33.350245)"><g><path d="M 2.078125 0 L 2.078125 -18.703125 L 6.8125 -18.703125 L 7.015625 -14.140625 L 6.65625 -14.140625 C 6.945312 -15.273438 7.378906 -16.195312 7.953125 -16.90625 C 8.523438 -17.625 9.191406 -18.148438 9.953125 -18.484375 C 10.722656 -18.828125 11.53125 -19 12.375 -19 C 13.726562 -19 14.84375 -18.578125 15.71875 -17.734375 C 16.59375 -16.890625 17.210938 -15.613281 17.578125 -13.90625 L 17 -13.90625 C 17.257812 -15.0625 17.703125 -16.015625 18.328125 -16.765625 C 18.960938 -17.515625 19.707031 -18.070312 20.5625 -18.4375 C 21.425781 -18.8125 22.347656 -19 23.328125 -19 C 24.472656 -19 25.5 -18.75 26.40625 -18.25 C 27.320312 -17.75 28.039062 -17.019531 28.5625 -16.0625 C 29.09375 -15.113281 29.359375 -13.945312 29.359375 -12.5625 L 29.359375 0 L 24.28125 0 L 24.28125 -11.609375 C 24.28125 -12.679688 23.992188 -13.476562 23.421875 -14 C 22.847656 -14.519531 22.140625 -14.78125 21.296875 -14.78125 C 20.648438 -14.78125 20.09375 -14.640625 19.625 -14.359375 C 19.15625 -14.085938 18.789062 -13.703125 18.53125 -13.203125 C 18.28125 -12.710938 18.15625 -12.128906 18.15625 -11.453125 L 18.15625 0 L 13.265625 0 L 13.265625 -11.75 C 13.265625 -12.675781 12.988281 -13.410156 12.4375 -13.953125 C 11.894531 -14.503906 11.1875 -14.78125 10.3125 -14.78125 C 9.71875 -14.78125 9.179688 -14.644531 8.703125 -14.375 C 8.222656 -14.101562 7.835938 -13.703125 7.546875 -13.171875 C 7.265625 -12.648438 7.125 -12.007812 7.125 -11.25 L 7.125 0 Z M 2.078125 0 "/></g></g></g></g></g></svg>