<?xml version="1.0" encoding="UTF-8"?>
<svg id="katman_1" xmlns="http://www.w3.org/2000/svg" version="1.1" viewBox="0 0 1728 624">
  <!-- Generator: Adobe Illustrator 30.2.1, SVG Export Plug-In . SVG Version: 2.1.1 Build 1)  -->
  <defs>
    <style>
      .st0 {
        fill: #fff;
      }
    </style>
  </defs>
  <path class="st0" d="M1075.81,421.27l-72.35,162.67-59.54-65.11-5.21,9.66-80.95-88.33-43.88-47.6,4.83-11.86,94.84,103.27,30.48,33.62,10.01-21.67-131.84-142.68-.03-31.18c-.01-12.76-2.19-23.89-6.5-36.23l26.82,28.91,9.23-31.07,68.66-226.04,41.49-.13,73.22,239.83,33.65,109.83-55.91.07-22.98-75.21-97.18.11-8.2,28.18,86.92,94.3,24.8-54.74,7.31,20.79,41.86.15-34.51,76.72,7.96,8.57,38.2-85.1c6.17-.29,11.2-.25,18.8.26ZM967.81,256.81l-25.29-84.78-25.35,84.86,50.64-.08Z"/>
  <polygon class="st0" points="613.15 404.65 576.5 404.81 502.23 304.73 476.42 270.44 476.3 404.68 431.92 404.69 431.87 184.66 468.33 184.61 568.02 319.83 568.2 184.62 613.15 184.57 613.15 404.65"/>
  <polygon class="st0" points="1611.95 404.92 1580.08 361.65 1512.04 270.29 1511.89 404.72 1467.01 404.64 1467.05 355.03 1466.95 296.05 1467.2 241.06 1467.17 184.7 1503.93 184.61 1545.64 242.06 1603.44 320.73 1603.61 184.62 1648.67 184.6 1648.67 404.59 1611.95 404.92"/>
  <path class="st0" d="M1450.85,379.42c-7.84,20.74-31.56,26.07-51.43,26l-74.64-.27c-12.91-.05-25.63-3.75-35.56-11.84s-15.06-21.16-15.08-34.37l-.2-120.77c-.04-21.1,7.33-41.78,28.48-49.12,7.38-2.56,15.28-4.33,23.29-4.32l78.52.1c8.35.01,16.48,1.97,24.12,4.78,20.26,7.45,27.24,27.14,27.25,47.56l.08,115.79c0,9.32-1.7,18.18-4.83,26.47ZM1410.2,354.59l-.03-44.6-.07-75.84c0-3.69-4.17-6.39-7.4-6.39l-75.04-.13c-4.21,0-8.22,2.54-8.22,7.6l-.08,118.74c0,5.26,3.25,8.62,8.37,8.61l74.93-.12c4.22,0,7.56-3.29,7.56-7.85Z"/>
  <path class="st0" d="M805.22,374.63c-7.29,22.99-27.9,30.99-50.59,30.99h-116.61s.04-42.94.04-42.94l117.5-.03c4.37-.55,7.38-3.21,7.38-7.6l-.06-36.89c0-4.71-3.69-7.28-8.23-7.29l-79.98-.25c-13.31-.04-26.41-4.69-35.93-13.64-7.07-6.65-10.67-16.28-11.99-25.96-2.2-16.19-2.21-32.56.38-48.63,3.99-24.79,22.39-35.75,46.1-37.79l122.09-.04.13,43.36-116.64.13c-4.44-.01-7.9,3.1-7.91,7.59l-.07,25.18c-.01,4.58,3.84,6.95,7.95,6.96l81.82.19c11.52.03,22.74,3.84,31.5,10.68,18.39,14.36,16.07,41.93,16.42,62.38.2,11.54.16,22.73-3.28,33.58Z"/>
  <path class="st0" d="M256.64,381.04c-8.88,19.22-30.24,24.59-50.05,24.57l-114.48-.11.05-42.82,116.43-.04c4.75-.2,8.13-3.05,8.13-7.66v-36.95c0-3.66-3.12-7.17-7.14-7.17h-73.85c-22.15,0-43.03-5.8-51.68-28.03-3.84-9.87-4.57-20.33-4.68-31.03-.21-20.29.29-45.1,19.03-57.83,9.46-6.42,20.14-8.74,31.59-9.32l119.48-.06.17,43.35h-117.84c-3.73.38-6.64,3.31-6.64,7.08l-.02,26.12c0,3.56,3.17,6.69,6.71,6.69l74.79-.1c21.55-.03,42.65,5.14,50.89,27.25,3.18,8.53,4.85,17.75,4.84,27.05l-.07,34.06c-.02,8.72-2.11,17.28-5.66,24.96Z"/>
  <polygon class="st0" points="418.89 310.76 319.42 310.89 319.32 362.68 418.7 362.65 418.83 404.75 274.5 404.73 274.48 184.61 419.41 184.59 419.46 227.93 319.41 227.97 319.37 267.81 418.52 267.82 418.89 310.76"/>
  <path class="st0" d="M1098.62,170.72l17.55-39.76-111.71,18.11-13.38-43.31,147.72-24.01,9.14-20.09-161.68,26.12c-1.44-3.04-2.18-5.41-2.55-8.41l162.86-26.24,80.63-13.06-35.33,79.05,20.45-2.81-24.64,54.23-18.85-.04,22.72-50.63-12.6,1.7-21.6,49.17h-58.71Z"/>
  <polygon class="st0" points="1150.9 404.59 1106.37 404.58 1106.31 228.01 1043.95 227.92 1043.96 184.62 1210.46 184.59 1210.78 227.95 1150.93 228.02 1150.9 404.59"/>
  <path class="st0" d="M709.41,170.68l-15.97-16.8-46.14,7.75,9.92,11.69c-11.97,2.38-21.95,7.81-29.07,17.51-.9-6.67-2.1-11.03-4.61-14.84-3.38-5.13-10.17-3.1-14.11-6.02-6.63-4.91-11.71-12.56-17.79-18.37l86.52-13.91-5.9-7.74,221.89-35.19-2.27,9.21-212.77,33.71,14.57,16.14,191.91-30.99-14.09,47.83-62.22,9.93c-3.51-4.83-8.27-9.87-14.67-9.88l-85.23-.04Z"/>
  <polygon class="st0" points="1260.46 404.57 1216.27 404.66 1216.24 184.62 1260.69 184.65 1260.46 404.57"/>
  <polygon class="st0" points="1092.47 314.73 1070.02 365.24 1046.32 286.99 1066.64 241.66 1092.38 241.53 1092.47 314.73"/>
  <path class="st0" d="M345.31,499.23l-.52-20.93-8.83,14.41c-.47.77-1.64,2.1-2.32,2.59-.82.58-3.4-.4-4.08-1.41l-9.74-14.58-.72,19.74-8.26.05.11-36.73,7.43.09,14,22.33,13.3-22.03c2.1-.37,5.06-.47,7.66-.39l.11,36.75-8.15.12Z"/>
  <path class="st0" d="M603.22,479.77c1.97,3.07,5.92,6.84,4.66,11.33-3.38,12.09-22.74,7.48-34.05,8.14l.11-36.92c10.7.96,26.92-3.4,31.63,6.22,1.84,3.76-.46,8.1-2.35,11.22ZM594.36,477.1c1.61-.02,3.54-3.14,3.29-4.45-.22-1.13-2.18-3.58-3.4-3.6l-11.47-.2-.14,8.41,11.71-.15ZM595.8,492.33c1.59-.03,3.8-3.26,3.53-4.71-.23-1.25-2.35-3.73-3.7-3.75l-12.92-.14.13,8.86,12.97-.26Z"/>
  <path class="st0" d="M1475.84,479.78c1.97,3.75,5.98,6.79,4.61,11.72-.97,3.51-4.7,7.53-9.71,7.59l-24.31.32.05-37.06c10.9.91,26.42-3.21,31.64,6.02,1.87,3.32-.62,8.57-2.29,11.41ZM1467.19,477.06c1.37-.04,3.4-3.22,3.12-4.45s-2.29-3.53-3.6-3.56l-11.62-.2.12,8.52,11.98-.31ZM1467.95,492.43c1.99,0,4.23-2.82,3.92-4.73-.23-1.39-2.45-3.76-3.99-3.79l-12.61-.22-.16,8.75,12.84-.02Z"/>
  <path class="st0" d="M565.22,499.31l-7.41-.28-18.13-21.43-.43,21.63-8.53-.11-.04-36.45c1.54-.46,6.61-1.04,7.95.54l17.42,20.5.47-21.16,8.56-.03.14,36.79Z"/>
  <path class="st0" d="M207.48,499.18l-19.42.1.06-36.84c6.96-.13,13.65-.25,20.43.17,10.28.63,17.06,8.82,17.18,18,.13,10.07-7.19,18.52-18.25,18.58ZM211.38,490.52c4.36-2.09,5.54-7.02,5.27-10.84-.24-3.46-2.55-7.94-6.55-9.29s-8.14-1.15-13.06-.74l-.11,22.12c4.81.51,9.96.9,14.44-1.25Z"/>
  <path class="st0" d="M1549.2,499.02c-6.98.47-13.16.34-20.14.29v-36.97c7.9-.04,14.46-.3,21.12.47,9.93,1.15,15.95,9,16.08,17.85.13,9.49-6.3,17.64-17.06,18.37ZM1550.76,491.03c5.32-2.03,6.73-6.89,6.3-11.45-.31-3.28-2.59-8.02-6.71-9.21s-8.49-1.1-12.63-.79l.06,22.45c4.36.2,9.11.47,12.98-1Z"/>
  <path class="st0" d="M268.6,499.18l-19.1.11.03-36.99c7.34-.08,14.14-.24,20.89.38,10.47.96,16.84,9.42,16.56,18.9s-7.39,17.53-18.37,17.59ZM271.62,490.85c5.08-1.9,6.38-6.98,6.16-11.25-.18-3.41-2.55-7.91-6.65-9.22-3.91-1.26-8.18-1.07-12.82-.75l-.05,22.12c4.1.49,9.14.68,13.36-.89Z"/>
  <path class="st0" d="M1297.14,499.96c-11.81-.59-19.56-9.66-19.06-20.26.53-11.1,9.96-18.53,21.41-17.97s19.27,9.1,19.01,19.92c-.27,10.99-9.27,18.91-21.36,18.31ZM1307.73,487.69c3.77-6.02,2.04-13.86-3.65-17.08-5.78-3.28-12.67-1.1-15.52,4.02-2.98,5.36-1.65,12.03,2.94,15.49,4.87,3.67,12.66,3.27,16.23-2.43Z"/>
  <path class="st0" d="M1225.85,499.25l-6.87-9.42c-1.21-1.52-6.13-.99-8.23-.75l-.41,10.2-8.46-.16.06-36.79,19.52.18c6.06.06,11.03,4.66,12.2,9.66,1.47,6.27-.9,11.56-6.52,15.35l7.71,11.75h-9ZM1220.63,481.47c3.14-.13,5.09-4.17,4.8-6.6-.26-2.16-2.8-5.35-5.05-5.39l-9.84-.18.07,12.58,10.01-.41Z"/>
  <path class="st0" d="M1354.69,464.88c7.72,4.53,10.18,13.71,8.01,21.64-2.22,8.12-10.05,13.28-18.97,13.45-9.97.19-18.32-5.61-20.23-14.9-1.88-9.16,2.68-18.72,12-21.95,6.18-2.14,13.11-1.81,19.19,1.76ZM1354.49,479.04c-.93-6.35-5.75-10.07-11.29-9.95-5.48.12-10.08,3.89-11.06,9.74-1.28,7.68,4.04,13.69,11.09,13.71,7.19.02,12.43-5.48,11.25-13.49Z"/>
  <path class="st0" d="M795.4,264.02c-24.82-13-38.78-9.43-64.43-10.24l-11.57-12.13h55.71s20.28,22.37,20.28,22.37Z"/>
  <path class="st0" d="M1192.19,483.69l-16.75.24-.13,8.21,19.87.23-.21,6.95-28.7.08.03-36.9,27.79-.2c.12,2.03.09,4.68-.04,6.92l-18.6.08-.16,7.69,16.74.3.17,6.38Z"/>
  <path class="st0" d="M1633.81,491.66l-16.45-.32-4.01,6.85c-1.09,1.86-6.51,1.2-9.06.87l16.25-36.41c2.85-.37,6.24-.35,9.34.09l16.75,36.86-9.38-.39-3.45-7.56ZM1631.06,484.58l-5.92-13.21-5.55,13.14,11.47.07Z"/>
  <path class="st0" d="M514.14,491.55l-16.9-.19-3.77,7.86-8.73-.13,16.18-36.73,9.33.13,16.28,36.29c-2.88.39-6.28.5-9.31.39l-3.06-7.61ZM511.27,484.44l-5.82-13.09-5.61,13.16,11.44-.07Z"/>
  <path class="st0" d="M1250.2,488.99l-.48,10.25-8.52-.09.05-36.69c10.55.02,31.56-3.42,32.49,12.07.38,6.38-3.61,12.51-10.43,13.8-3.87.73-7.15.64-13.12.66ZM1261.99,480.89c1.77-.55,3.07-4.59,2.84-6.19-.97-6.77-9.39-5.26-14.86-5.45v12.47c4.07.31,7.44.57,12.02-.84Z"/>
  <path class="st0" d="M639.32,462.55l8.67-.16-.09,22.7c-.04,9.38-7.42,14.69-16.2,14.9-9.08.22-17.46-5.2-17.54-14.94l-.2-22.6,8.66-.07.26,21.32c.05,4.36,2.66,7.93,6.48,8.55,3.33.55,9.41-.53,9.5-5.15l.46-24.55Z"/>
  <path class="st0" d="M1511.85,462.66l8.55-.2.05,22.6c.02,9.51-7.79,15.03-16.76,15.04-8.99,0-16.89-5.53-16.94-15.13l-.12-22.55,8.68.06.18,21.58c.04,5.02,3.38,8.17,7.69,8.4,4.85.26,8.56-3.1,8.58-8.45l.08-21.34Z"/>
  <path class="st0" d="M446.25,497.96c-7.93,3.53-16.58,2.33-24.17-1.62.19-2.25,1.41-5.08,2.7-6.99,4.8,3.3,17.88,5.68,19,.08,1.39-6.95-23.4-2.17-21.5-17.59,1.43-11.6,19.23-12.14,28.02-7.11-.49,1.95-1.52,4.68-2.37,6.46-5.11-2.59-16.78-4.25-16.89,1.41-.02,1.08,1.83,3.11,3.01,3.43l10.95,2.92c4.1,1.1,7.35,5.14,7.53,8.58.22,4.13-1.87,8.46-6.28,10.42Z"/>
  <path class="st0" d="M1598.28,462.81c2.71-.5,5.98-.44,8.9-.02l-15.81,36.55-8.7.16-15.87-36.81,9.37-.23,11.01,25.87,11.09-25.53Z"/>
  <path class="st0" d="M1153.59,462.87c2.5-.5,6.24-.5,8.99-.19l-15.52,36.04c-2.66.58-6.06.6-9.23.23l-15.5-36.33,8.97-.21,11.41,25.68,10.88-25.23Z"/>
  <path class="st0" d="M1082.72,404.68l-7.69-24.72,17.21-38.08c-.09,14.02,1.09,27.29-.56,40.93-.91,7.56-6.2,14.59-8.96,21.86Z"/>
  <path class="st0" d="M1396.81,492.24c1.38,1.19,1.18,5.07.44,7.15l-27.03-.04.11-36.77,8.69-.21.08,29.74,17.72.13Z"/>
  <path class="st0" d="M683.04,492.17c.2,1.68.2,4.86.05,7.1l-26.78.13.03-36.73,8.69-.3.15,29.74,17.86.06Z"/>
  <polygon class="st0" points="474.89 499.13 466.17 499.15 466.1 469.47 454.91 469.28 454.75 462.34 486.62 462.28 486.65 469.19 474.89 469.44 474.89 499.13"/>
  <polygon class="st0" points="1103.78 492.29 1103.75 499.36 1076.93 499.4 1076.85 462.38 1085.51 462.34 1085.69 491.99 1103.78 492.29"/>
  <polygon class="st0" points="302.13 498.98 293.24 499.18 293.28 462.77 302.05 462.57 302.13 498.98"/>
  <path class="st0" d="M1118.13,483.43c.12,5.52.06,10.22-.19,15.88h-8.73s-.12-36.68-.12-36.68l8.58-.26.45,21.06Z"/>
  <polygon class="st0" points="240.85 499.05 232.11 499.14 231.99 462.63 240.75 462.25 240.85 499.05"/>
  <polygon class="st0" points="415.26 499.1 406.6 499.07 406.52 462.64 415.18 462.47 415.26 499.1"/>
  <path class="st0" d="M701.16,253.79l-15.52-.02c-.41-4.43-.53-7.87-.31-11.83,2.59-.84,5.8.11,7.28,1.84l8.55,10.01Z"/>
  <path class="st0" d="M377.81,479.89c3.35-2.27,7.13-.77,8.74,2.37,1.08,2.1.54,6.05-2.16,7.66-2.41,1.43-6.22.9-8.12-1.76-1.44-2.03-1.26-6.36,1.55-8.27Z"/>
  <path class="st0" d="M1419.86,478.98c3.34-.89,6.62,1.71,7.16,4.14.72,3.29-1.02,6.55-3.46,7.24-3.45.97-6.68-.87-7.45-3.12-1.19-3.48-.31-7.17,3.75-8.25Z"/>
</svg>