<?xml version="1.0" encoding="UTF-8"?>
<svg id="katman_1" xmlns="http://www.w3.org/2000/svg" version="1.1" viewBox="0 0 1728 624">
  <!-- Generator: Adobe Illustrator 30.2.1, SVG Export Plug-In . SVG Version: 2.1.1 Build 1)  -->
  <defs>
    <style>
      .st0 {
        fill: #fff;
      }
    </style>
  </defs>
  <path class="st0" d="M776.21,223.28c27.26-18.74,51.56-30.16,85.52-29.96l-7.2-4.05c22.06-2.46,33.09,9.22,54.42,6.32-15.82-10.91-36.02-15.04-55.15-18.2,17.23-5.15,35.25-4.84,52.81-.3,13.89,3.59,26.69,8.72,40.41,13.03,4.83,1.52,10.27-2.24,14.68-4.6-14.27-2.29-27.03-6.31-40.11-11.61-19.08-7.73-38.96-10.49-59.4-8.39-4.14.43-7.74.61-12.06.65,25.81-14.68,46.79-15.47,76.04-13.12,17.62,1.42,35.3,1.93,53.02-2.15,2.6,29.07-4.48,59.27-18.73,84.59-23.48,4.19-45.97,10.06-68.34,17.76-23.68,8.96-44.06,23.74-59.41,43.97-12.62-.2-24.74-1.9-36.6-5.07l-5.16-47.27-14.47.17-3.05,5.94c-4.73,9.23-17.23,4.35-24.62.84-8.82-4.19-11.18-3.15-20.29-5.25,20.8-6.25,29.56-10.87,47.68-23.32Z"/>
  <path class="st0" d="M1090.45,598.04l-.22,7.96c-55.87-.47-116.49-5.79-158.68-46.2-6.31-6.04-11.61-12.53-17.18-19.12-5.08-6-10.77-9.98-18.38-11.96-19.31-5.04-35.87-15.63-49.29-30.42-21.2-24.11-33.95-56.71-36.5-88.61l244.72-.26,76.76,1.43c-3.69.33-7.09.66-10.72.74l-37.72.84c-3.01,26.1-11.76,50.73-26.73,71.89-13.83,20.17-32.47,35.71-55.11,44.79-8.65,3.05-16.81,4.63-26.68,6.14,30.87,37.69,65.08,62.88,115.73,62.79ZM1007.91,495.37c18.8-22.53,26.88-52.96,28.9-82.67h-178.5c1.3,27.03,9.59,58.99,26.61,80.47,14.41,18.56,35.46,28.91,58.82,29.65,25.72.82,47.43-7.75,64.17-27.44Z"/>
  <path class="st0" d="M1131.54,375.19l-38.94,1.12-224.09.42-58.41-.32c3.5-43.61,25-85.19,62.94-108.23,22.56-13.21,47.7-19.6,73.88-19.47,17.53.08,34.19,2.47,50.56,8.44,25.49,9.3,47.01,25.88,61.94,48.57,13.38,20.32,21.29,43.33,23.75,67.81l37.19.77,11.19.89ZM1036.88,373.21c-1.13-18.62-4.52-35.27-10.55-51.33-5.64-13.93-13.03-26.25-23.68-36.73-11.49-11.22-25.69-18.37-41.63-20.64-27.39-3.91-54.34,3.27-73.07,24.29-19.73,21.33-28.65,56.29-29.69,84.47l178.61-.06Z"/>
  <path class="st0" d="M616.74,447.34l9.87-.34c12.63,40.01,44.26,76.83,89.76,74.46,11.28-.59,21.77-4.07,30.55-11.19,20.01-16.22,20.35-43.93,8.22-64.91-8.6-14.88-25.65-23.44-40.01-32.52l-108.02-1.15c-3.78-.04-7-.47-10.79-.85l13.36-.41,75.93-1.11,98.71-.18c23.7,19.96,26.96,57.47,13.37,84.13-7.46,14.63-19.34,25.71-33.8,33.38-18.39,9.75-39.29,12.83-60.03,10.05-10.94-1.46-20.97-4.45-31.4-7.61-7.85-2.37-20.87-7.38-27.79-3.08-4.2,2.61-5.21,7.13-5.79,11.85l-9.19-.05-12.96-90.46Z"/>
  <path class="st0" d="M632.28,376.22l-35.33-1.03,9.51-.85,48.96-1.02c-5.44-5.12-10.86-9.93-15.14-16.04-14.1-20.15-14.78-49.56-3.53-71.05,6.04-11.54,15.48-20.64,26.79-26.96,14.34-8.01,30.14-10.83,46.58-10.31,14.14.44,27.38,4.14,40.37,9.42,6.78,2.76,18.43,6.16,23.66-.46,2.2-2.79,3.48-5.57,4.92-9.09h8.44s9.15,89.14,9.15,89.14l-10.38.13c-6.34-26.87-23.89-56.24-50.06-67.37-20.75-8.83-53.48-8.25-65.65,12.97-6.72,11.71-7.57,25.93-1.56,37.83,4.68,9.27,12,15.91,19.7,22.57,6.88,5.1,13.54,9.81,20.89,14.3l29.73,18.16-107.06-.33Z"/>
  <path class="st0" d="M910.48,144.75c-24.94-2.33-42.89,3.17-65.99,11.49,15.43-16.66,35.49-24.97,57.31-29.5l28.46-6.05c13.56-3.09,26.2-7.67,38.5-14.54,5.15,12.14,8.05,24.06,9.73,37.01-11.83,2.77-23.66,3.26-35.94,3.43l-32.06-1.84Z"/>
  <path class="st0" d="M836.79,147.89c8.15-17.23,24.85-31.14,41.75-40.16,16.01,4.75,32.08-3.94,37.41-19.74l11.59-7.16c5.8-4.18,10.88-8.95,16.25-14.13,8.81,9.62,15.58,20.1,21.49,31.98-15.23,8.38-31.36,14.01-48.44,17.21-11.55,2.16-22.4,4.22-33.75,7.17-16.93,5.24-31.47,13.67-46.3,24.83Z"/>
  <path class="st0" d="M828.02,75.02c-14.98,20.16-20.36,39.21-24.23,64.64-5.32-16.44-5.21-33.5-1.35-50.16,2.57-11.2,6.19-21.36,10.09-32.13,4.92-12.55,8.17-25.06,9.27-38.65,12.44-1.31,24.21-.8,36.7,1.18-3.93,10.66-8.8,20.45-14.48,30.2l-16,24.92Z"/>
  <path class="st0" d="M798.13,76.65c-8.52,23.42-7.76,41.14-5.62,66.17-10.55-17.17-14.7-36.12-14.81-55.77l1.82-26.16c1.09-10.59.93-20.85-.38-31.73,11.07-4.87,22.48-7.46,34.61-9.53-1.62,11.44-3.79,22.06-6.9,32.87l-8.73,24.15Z"/>
  <path class="st0" d="M856.47,82c-20.02,16.71-31.24,33.36-40.65,57.23-1.16-9.99.42-19.05,3.08-28.29,8.47-29.42,36.68-59.64,43.5-79.58l3.51-10.26c9.39,1.75,17.86,4.42,26.26,8.31l9.72,4.51-9.48,13.27c-5.53-.37-11.04-.45-16.4,1.6-13.47,5.14-21.13,18.89-19.54,33.22Z"/>
  <path class="st0" d="M782.96,149.23c-19.15-17.98-26.62-39.59-31.71-64.96-2.09-11.62-4.55-22.6-7.44-34.11,8.81-6.99,17.76-12.79,27.76-17.74,3.67,27.23-4.08,48.93-.4,75.95,1.95,14.31,6.32,27.51,11.78,40.86Z"/>
  <path class="st0" d="M773.56,156.79c-18.53-10.14-33.48-28.77-42.55-47.37-4.81-9.86-9.59-19.17-15-28.99,6.07-9.02,12.98-17.5,21.7-25.03,3.41,12.94,5.66,25.14,8.22,37.86,1.92,13.72,6.33,26.12,12.57,38.44,4.24,8.73,9.59,16.07,15.06,25.09Z"/>
  <path class="st0" d="M768.5,167.43c-25.39-6.2-45.31-23.94-61.51-43.24l-8.32-9.38c2.95-9.53,7.06-18.78,13.06-27.7l13.63,27.27c6,12,12.71,23.03,21.78,32.96,6.85,6.98,13.66,13.09,21.36,20.09Z"/>
  <path class="st0" d="M765.16,178.21c-27.29.7-44.72-9.56-67.02-23.22l-7.58-4.64c.78-9.39,2.58-18.14,5.34-28.01,21.84,24.22,28.19,35.2,57.73,50.07l11.53,5.8Z"/>
  <path class="st0" d="M765.4,189.76c-24.99,8.13-49.02,2.66-73.51-6.02-1.6-8.34-2.3-15.83-2.05-25.04l16.26,10.3c12.41,7.86,25.35,13.85,39.78,16.79l19.5,3.97Z"/>
  <path class="st0" d="M768.73,200.62c-19.01,13.91-46.83,15.59-68.87,13.66-2.7-7.41-4.76-14.21-6.49-21.92l15.29,4.96c19.52,5.9,39.24,6.33,60.07,3.3Z"/>
  <path class="st0" d="M714.61,241.4c-4.17-6.27-7.75-12.27-11.29-19.28,15.84,1.42,31.22,1.18,46.54-2.9,8.54-2.28,16.36-5.42,24.68-8.17-17.3,17.69-35.95,25.18-59.94,30.35Z"/>
  <path class="st0" d="M917.91,77.91c-1.08-12.25-6.57-22.51-17.49-27.86l8.3-12.33c11.02,6.4,20.76,14.05,29.71,23.59-6.43,6.04-12.75,11.15-20.51,16.6Z"/>
  <path class="st0" d="M869.66,103.56c-17.65,9.73-30.56,22.78-42.71,38.27,3.67-16.64,11.72-31.31,23.34-43.31,2.55-2.87,5.06-5.28,8.31-7.91,3.01,5.2,6,8.98,11.07,12.95Z"/>
  <path class="st0" d="M876.37,577.64l-8.33-9.28-.25,11.96c0,.38.15,1.44.45,1.64l2.12,1.44-8.41-.02,2.52-1.48.06-26.86c0-1.23-.97-2.43-1.98-3.35l7.13-.24c6.44-.22,17.61-.54,17.61,8.39,0,3.59-2.07,6.77-6.03,7.7-3.01.71-6.26.58-9.98.75l8.17,8.49c2.63,2.73,5.67,4.55,9.11,6.46-4.91.37-9-2.01-12.19-5.57ZM884.33,559.81c-.03-3.23-2.33-6.53-6.16-6.94-3.39-.37-6.69-.29-10.47-.25l.09,14.5c6.26-.02,16.61,1.21,16.54-7.31Z"/>
  <path class="st0" d="M778.27,583.58c-4.55.08-8.16-1.55-10.63-5.04-3.81-5.38-4.4-12.54-1.81-18.6,1.9-4.46,5.59-7.55,9.81-8.14,4.72-.66,9.51.52,12.43,4.46,4.79,6.47,4.71,15.27.45,21.95-2.25,3.53-5.74,5.29-10.25,5.37ZM785.9,577.63c3.3-6.28,3.14-13.77.19-19.85-1.65-3.4-5.01-5.26-8.41-5.14-10.21.37-12.33,15.98-7.81,24.84,1.57,3.08,4.72,5.13,7.79,5.21s6.48-1.72,8.23-5.06Z"/>
  <path class="st0" d="M756.27,581.54c-6.99,4.28-15.83,2.33-20.47-4.43-.92-1.34-.18-4.68.6-6.2,1.13,2.37,1.93,4.66,3.14,6.74,2.91,5,9.51,6.73,14.16,3.58,1.28-.87,2.62-2.71,2.73-3.92s-1.28-3.74-2.56-4.46l-14.43-8.18c-1.81-1.02-3.15-3.72-3.26-5.58s1.32-4.36,3.21-5.38c6.37-3.4,13.97-2.6,19.26,2.47.49,2.13.35,4.84-.08,7.2l-2.51-5.31c-2.49-5.27-9.32-6.91-14.36-4.12-1.6.89-2.86,2.94-2.8,4.62.21,6.51,19.72,9.37,20.4,17.6.15,1.79-1.03,4.14-3.03,5.37Z"/>
  <path class="st0" d="M848.23,572.08l-14.58-.19-4.17,9.63,1.57,1.95-6.03-.12c.57-.47,2.43-1.3,2.78-2.09l13.7-30.42c5.4,9.96,8.79,19.39,13.33,28.97.78,1.64,1.89,2.43,3.56,3.65h-7.52c.4-.57,1.32-1.93,1.1-2.46l-3.73-8.92ZM847.4,570.57l-6.51-14.88-6.74,15.07,13.25-.19Z"/>
  <path class="st0" d="M917.59,571.98l-14.62-.05-4.22,9.82,1.88,1.78-6.52-.15c1.7-.99,2.95-1.71,3.68-3.31l13.26-29.27,13.53,29.7c.52,1.14,1.79,1.8,3.51,2.91l-8.23.09,1.84-1.84-4.1-9.68ZM916.97,570.78l-6.74-15.17-6.65,15.14,13.39.03Z"/>
  <path class="st0" d="M820.14,580.3c.07.58-.37,2.42-.88,3.42l-22.76-.09c.87-.98,1.8-2.3,1.8-3.27v-25.39c-.01-1.16-.94-2.42-2.02-3.48l7.04.12c-1.03,1.19-1.83,2.54-1.83,4l.03,26.87c4.1-.17,15.42,1.84,18.63-2.2Z"/>
  <path class="st0" d="M666.02,397.73c-.26,7.05-11,5.13-16.71,5.23l1.3-1.35.08-15.65c0-.93-.75-2.39-1.28-3.2,5.02.1,15.23-1.97,16.34,4.52.38,2.22-1.15,4.14-3.47,5.41,2.03,1.16,3.83,2.78,3.74,5.05ZM660.13,392.25c2.1-.11,3.52-2.85,3.38-4.52-.44-5.08-7.13-4.29-10.84-3.99l.11,8.88,7.35-.38ZM660.12,402.01c2.83-.02,3.81-3.05,3.57-4.83-.26-2.01-2.12-3.65-4.39-3.66l-6.6-.03.04,8.59,7.37-.06Z"/>
  <path class="st0" d="M1080.8,397.74c.02,7.43-12.68,4.84-16.91,5.25.6-.79,1.43-1.97,1.43-2.45v-14.48c0-.96-.62-2.37-1.03-3.31,4.59.14,15.11-1.93,16.08,4.33.38,2.44-1.13,4.53-3.37,5.7,2.15,1.29,3.79,2.84,3.8,4.96ZM1074.85,392.27c1.61-.07,3.42-2.67,3.47-4.02s-1.3-3.95-2.88-4.26c-2.84-.56-5.42-.46-8.06-.21l.08,8.8,7.41-.31ZM1074.94,402.09c2.62-.44,3.79-2.95,3.5-4.98-.21-1.43-2.12-3.52-3.82-3.55l-7.24-.11.08,8.77c2.7.14,4.99.29,7.49-.13Z"/>
  <path class="st0" d="M856.72,402.99l-4.44-.05c.7-.93,1.44-2.23,1.42-2.93l-.15-6.49-10.68-.05c-.38,2.79-.49,6.02.55,9.32l-4.44.25c.58-.66,1.55-2,1.55-2.76v-14.36c0-.8-.71-2.27-1.11-3.08l4.01-.02c-.91,3.45-.87,6.14-.79,9.63l10.87-.03.17-6.38c.03-.94-.9-2.24-1.56-3.1l4.91-.13c-.63,1.12-1.36,2.36-1.36,3.13l.08,14.02c0,.66.54,1.96.94,3.03Z"/>
  <path class="st0" d="M707.45,393.42l-6.35.09.05,8.5,6.46.02c2.16,0,3.63-.15,5.83-1.07l-.17,1.37c-.05.41-1.42.74-1.86.74l-13.82-.07c.38-.46,1.35-1.82,1.35-2.51l.02-14.94c0-.78-.82-2.06-1.34-2.88l13.18-.19c.59,0,1.9.09,1.98.55l.3,1.93c-1.4-.78-2.77-1.44-4.06-1.43l-7.96.07.02,8.84,6.65.15c1.09.02,2.49-.52,3.97-1.2l-.08,2.93c-1.23-.5-2.72-.94-4.17-.92Z"/>
  <path class="st0" d="M1028.67,382.82l4.93.04c-1.04,1.1-1.87,2.04-1.88,3.08l-.1,10.75c-.04,4.19-3.54,6.71-7.44,6.51-3.59-.18-6.83-2.46-6.88-6.49l-.14-11.3c0-.56-.6-1.76-1.04-2.69l4.26.02c-.44.81-1.2,2.13-1.19,2.73l.26,11.5c.07,3.16,2.69,4.86,5.1,5.19,2.74.37,5.51-1.71,5.72-5.13,0-.02,1.39-15.63-1.59-14.2Z"/>
  <path class="st0" d="M759.35,395.7h-8.93c-1.05,2.6-2.17,4.2-2.08,6.91l-3.08.09c3.78-4.08,6.06-13.9,10.08-20.4l7.56,17.03c.55,1.24,1.37,2.34,2.24,3.56-1.14-.04-3.19-.18-3.6-.29-.65-2.57-1.3-4.48-2.18-6.9ZM758.77,394.76l-4.03-9.12-3.97,9.14,8-.02Z"/>
  <path class="st0" d="M798.84,385.21c-3.37,3.99-3.45,9.45-1.1,13.65,1.17,2.1,3.62,3.52,6.08,3.46,2.12-.06,3.82-2.38,5.89-4.3-.16,4.5-5.03,5.37-8.71,4.84-6.25-.92-8.49-8.83-6-14.89,1.19-2.9,3.72-4.69,6.39-5.23s6.19.61,7.82,2.76c.58.77.41,2.91.18,3.82l-1.77-2.76c-.81-1.27-2.43-2.71-3.77-2.97s-3.91.33-5,1.62Z"/>
  <path class="st0" d="M933.43,383.43c-5.7.33-8.13,9.86-4.32,16.05,1.2,1.95,3.85,3.09,6.02,2.83,1.79-.21,3.94-2.35,4.96-4.03.11-.04.91.09.88.29-.8,4.42-7.27,5.4-10.69,3.89s-5.28-5.26-5.28-9.45,1.53-7.43,4.77-9.32,7.75-1.38,10.48,1.69c.72.8.55,3.29.26,4.5l-2.49-4.46c-.62-1.11-3.28-2.06-4.59-1.98Z"/>
  <path class="st0" d="M985.95,401.37c-.06-.31.05.35.12.61.09.34-1.13,1.11-1.56,1.11l-14.17-.08c.36-.4,1.42-1.78,1.42-2.45v-14.56c0-.96-.78-2.07-1.52-3.13l4.89-.09c-.78,1.47-1.31,2.55-1.31,3.81l.08,15.42h6.35c2.02,0,3.59-.18,5.7-.63Z"/>
</svg>