<svg xmlns="http://www.w3.org/2000/svg" xmlns:xlink="http://www.w3.org/1999/xlink" width="2304" zoomAndPan="magnify" viewBox="0 0 1728 623.999998" height="832" preserveAspectRatio="xMidYMid meet" version="1.0"><defs><g/><clipPath id="61f0c01816"><rect x="0" width="1023" y="0" height="154"/></clipPath></defs><g transform="matrix(1, 0, 0, 1, 353, 235)"><g clip-path="url(#61f0c01816)"><g fill="#fffffd" fill-opacity="1"><g transform="translate(0.900641, 121.784021)"><g><path d="M 7.515625 24.71875 L 10.84375 10.65625 L 14.421875 11.15625 C 16.679688 11.644531 18.660156 11.722656 20.359375 11.390625 C 22.066406 11.066406 23.441406 10.296875 24.484375 9.078125 C 25.535156 7.867188 26.226562 6.195312 26.5625 4.0625 L 27.359375 0.125 L 1.65625 -68.046875 L 21.140625 -68.046875 L 32.609375 -33.09375 C 34.003906 -28.738281 35.160156 -24.375 36.078125 -20 C 37.003906 -15.625 38.023438 -11.09375 39.140625 -6.40625 L 34.703125 -6.40625 C 35.804688 -11.09375 36.910156 -15.632812 38.015625 -20.03125 C 39.128906 -24.425781 40.382812 -28.78125 41.78125 -33.09375 L 53.6875 -68.046875 L 72.96875 -68.046875 L 43.8125 8.5625 C 42.414062 12.21875 40.660156 15.359375 38.546875 17.984375 C 36.429688 20.617188 33.832031 22.632812 30.75 24.03125 C 27.664062 25.425781 23.945312 26.125 19.59375 26.125 C 17.25 26.125 15.019531 25.988281 12.90625 25.71875 C 10.789062 25.457031 8.992188 25.125 7.515625 24.71875 Z M 7.515625 24.71875 "/></g></g></g><g fill="#fffffd" fill-opacity="1"><g transform="translate(75.520539, 121.784021)"><g><path d="M 26.9375 1.296875 C 22.582031 1.296875 18.675781 0.535156 15.21875 -0.984375 C 11.769531 -2.503906 9.054688 -4.773438 7.078125 -7.796875 C 5.109375 -10.816406 4.125 -14.566406 4.125 -19.046875 C 4.125 -22.867188 4.820312 -26.050781 6.21875 -28.59375 C 7.613281 -31.144531 9.523438 -33.195312 11.953125 -34.75 C 14.378906 -36.3125 17.144531 -37.492188 20.25 -38.296875 C 23.351562 -39.097656 26.609375 -39.664062 30.015625 -40 C 33.992188 -40.40625 37.195312 -40.78125 39.625 -41.125 C 42.050781 -41.476562 43.816406 -42.023438 44.921875 -42.765625 C 46.035156 -43.503906 46.59375 -44.613281 46.59375 -46.09375 L 46.59375 -46.40625 C 46.59375 -48.300781 46.171875 -49.914062 45.328125 -51.25 C 44.484375 -52.582031 43.257812 -53.609375 41.65625 -54.328125 C 40.0625 -55.046875 38.113281 -55.40625 35.8125 -55.40625 C 33.46875 -55.40625 31.421875 -55.046875 29.671875 -54.328125 C 27.929688 -53.609375 26.515625 -52.640625 25.421875 -51.421875 C 24.335938 -50.210938 23.566406 -48.847656 23.109375 -47.328125 L 6.15625 -49.484375 C 7.101562 -53.597656 8.910156 -57.113281 11.578125 -60.03125 C 14.253906 -62.945312 17.664062 -65.175781 21.8125 -66.71875 C 25.96875 -68.257812 30.691406 -69.03125 35.984375 -69.03125 C 39.847656 -69.03125 43.515625 -68.578125 46.984375 -67.671875 C 50.460938 -66.765625 53.554688 -65.363281 56.265625 -63.46875 C 58.984375 -61.582031 61.109375 -59.191406 62.640625 -56.296875 C 64.179688 -53.398438 64.953125 -49.941406 64.953125 -45.921875 L 64.953125 0 L 47.390625 0 L 47.390625 -9.484375 L 46.84375 -9.484375 C 45.726562 -7.347656 44.253906 -5.46875 42.421875 -3.84375 C 40.597656 -2.226562 38.410156 -0.96875 35.859375 -0.0625 C 33.316406 0.84375 30.34375 1.296875 26.9375 1.296875 Z M 32.109375 -11.59375 C 35.023438 -11.59375 37.570312 -12.164062 39.75 -13.3125 C 41.925781 -14.457031 43.628906 -15.992188 44.859375 -17.921875 C 46.097656 -19.859375 46.71875 -22.039062 46.71875 -24.46875 L 46.71875 -31.671875 C 46.144531 -31.347656 45.34375 -31.019531 44.3125 -30.6875 C 43.28125 -30.363281 42.109375 -30.078125 40.796875 -29.828125 C 39.484375 -29.578125 38.160156 -29.347656 36.828125 -29.140625 C 35.492188 -28.941406 34.269531 -28.757812 33.15625 -28.59375 C 30.9375 -28.269531 28.960938 -27.75 27.234375 -27.03125 C 25.515625 -26.3125 24.179688 -25.34375 23.234375 -24.125 C 22.285156 -22.914062 21.8125 -21.40625 21.8125 -19.59375 C 21.8125 -17.875 22.253906 -16.414062 23.140625 -15.21875 C 24.023438 -14.03125 25.238281 -13.128906 26.78125 -12.515625 C 28.320312 -11.898438 30.097656 -11.59375 32.109375 -11.59375 Z M 32.109375 -11.59375 "/></g></g></g><g fill="#fffffd" fill-opacity="1"><g transform="translate(147.983781, 121.784021)"><g><path d="M 42.46875 -68.046875 L 42.46875 -53.921875 L 1.171875 -53.921875 L 1.171875 -68.046875 Z M 11.09375 -84.734375 L 29.453125 -84.734375 L 29.453125 -20.15625 C 29.453125 -17.976562 29.9375 -16.382812 30.90625 -15.375 C 31.875 -14.363281 33.488281 -13.859375 35.75 -13.859375 C 36.570312 -13.859375 37.628906 -13.929688 38.921875 -14.078125 C 40.210938 -14.222656 41.207031 -14.359375 41.90625 -14.484375 L 43.9375 -0.5 C 42.09375 -0.0390625 40.160156 0.273438 38.140625 0.453125 C 36.128906 0.640625 34.179688 0.734375 32.296875 0.734375 C 25.304688 0.734375 20.023438 -0.875 16.453125 -4.09375 C 12.878906 -7.320312 11.09375 -12.039062 11.09375 -18.25 Z M 11.09375 -84.734375 "/></g></g></g><g fill="#fffffd" fill-opacity="1"><g transform="translate(194.259215, 121.784021)"><g><path d="M 34.828125 1.421875 C 29.273438 1.421875 24.351562 0.609375 20.0625 -1.015625 C 15.769531 -2.640625 12.273438 -4.992188 9.578125 -8.078125 C 6.890625 -11.160156 5.195312 -14.859375 4.5 -19.171875 L 21.8125 -21.515625 C 22.59375 -18.390625 24.09375 -16.023438 26.3125 -14.421875 C 28.53125 -12.816406 31.488281 -12.015625 35.1875 -12.015625 C 38.675781 -12.015625 41.425781 -12.679688 43.4375 -14.015625 C 45.457031 -15.359375 46.46875 -17.054688 46.46875 -19.109375 C 46.46875 -20.867188 45.738281 -22.3125 44.28125 -23.4375 C 42.820312 -24.570312 40.632812 -25.445312 37.71875 -26.0625 L 25.953125 -28.40625 C 19.367188 -29.769531 14.429688 -32.070312 11.140625 -35.3125 C 7.859375 -38.5625 6.21875 -42.753906 6.21875 -47.890625 C 6.21875 -52.203125 7.398438 -55.9375 9.765625 -59.09375 C 12.128906 -62.257812 15.457031 -64.707031 19.75 -66.4375 C 24.039062 -68.164062 29.066406 -69.03125 34.828125 -69.03125 C 40.328125 -69.03125 45.085938 -68.25 49.109375 -66.6875 C 53.140625 -65.125 56.378906 -62.90625 58.828125 -60.03125 C 61.273438 -57.15625 62.828125 -53.765625 63.484375 -49.859375 L 47.03125 -47.578125 C 46.445312 -50.003906 45.160156 -51.988281 43.171875 -53.53125 C 41.179688 -55.070312 38.519531 -55.84375 35.1875 -55.84375 C 32.101562 -55.84375 29.566406 -55.191406 27.578125 -53.890625 C 25.585938 -52.597656 24.59375 -50.925781 24.59375 -48.875 C 24.59375 -47.144531 25.269531 -45.691406 26.625 -44.515625 C 27.976562 -43.347656 30.195312 -42.457031 33.28125 -41.84375 L 45.609375 -39.375 C 52.265625 -38.0625 57.203125 -35.882812 60.421875 -32.84375 C 63.648438 -29.800781 65.265625 -25.835938 65.265625 -20.953125 C 65.265625 -16.472656 63.96875 -12.554688 61.375 -9.203125 C 58.789062 -5.859375 55.207031 -3.25 50.625 -1.375 C 46.039062 0.488281 40.773438 1.421875 34.828125 1.421875 Z M 34.828125 1.421875 "/></g></g></g><g fill="#fffffd" fill-opacity="1"><g transform="translate(263.826404, 121.784021)"><g><path d="M 26.9375 1.296875 C 22.582031 1.296875 18.675781 0.535156 15.21875 -0.984375 C 11.769531 -2.503906 9.054688 -4.773438 7.078125 -7.796875 C 5.109375 -10.816406 4.125 -14.566406 4.125 -19.046875 C 4.125 -22.867188 4.820312 -26.050781 6.21875 -28.59375 C 7.613281 -31.144531 9.523438 -33.195312 11.953125 -34.75 C 14.378906 -36.3125 17.144531 -37.492188 20.25 -38.296875 C 23.351562 -39.097656 26.609375 -39.664062 30.015625 -40 C 33.992188 -40.40625 37.195312 -40.78125 39.625 -41.125 C 42.050781 -41.476562 43.816406 -42.023438 44.921875 -42.765625 C 46.035156 -43.503906 46.59375 -44.613281 46.59375 -46.09375 L 46.59375 -46.40625 C 46.59375 -48.300781 46.171875 -49.914062 45.328125 -51.25 C 44.484375 -52.582031 43.257812 -53.609375 41.65625 -54.328125 C 40.0625 -55.046875 38.113281 -55.40625 35.8125 -55.40625 C 33.46875 -55.40625 31.421875 -55.046875 29.671875 -54.328125 C 27.929688 -53.609375 26.515625 -52.640625 25.421875 -51.421875 C 24.335938 -50.210938 23.566406 -48.847656 23.109375 -47.328125 L 6.15625 -49.484375 C 7.101562 -53.597656 8.910156 -57.113281 11.578125 -60.03125 C 14.253906 -62.945312 17.664062 -65.175781 21.8125 -66.71875 C 25.96875 -68.257812 30.691406 -69.03125 35.984375 -69.03125 C 39.847656 -69.03125 43.515625 -68.578125 46.984375 -67.671875 C 50.460938 -66.765625 53.554688 -65.363281 56.265625 -63.46875 C 58.984375 -61.582031 61.109375 -59.191406 62.640625 -56.296875 C 64.179688 -53.398438 64.953125 -49.941406 64.953125 -45.921875 L 64.953125 0 L 47.390625 0 L 47.390625 -9.484375 L 46.84375 -9.484375 C 45.726562 -7.347656 44.253906 -5.46875 42.421875 -3.84375 C 40.597656 -2.226562 38.410156 -0.96875 35.859375 -0.0625 C 33.316406 0.84375 30.34375 1.296875 26.9375 1.296875 Z M 32.109375 -11.59375 C 35.023438 -11.59375 37.570312 -12.164062 39.75 -13.3125 C 41.925781 -14.457031 43.628906 -15.992188 44.859375 -17.921875 C 46.097656 -19.859375 46.71875 -22.039062 46.71875 -24.46875 L 46.71875 -31.671875 C 46.144531 -31.347656 45.34375 -31.019531 44.3125 -30.6875 C 43.28125 -30.363281 42.109375 -30.078125 40.796875 -29.828125 C 39.484375 -29.578125 38.160156 -29.347656 36.828125 -29.140625 C 35.492188 -28.941406 34.269531 -28.757812 33.15625 -28.59375 C 30.9375 -28.269531 28.960938 -27.75 27.234375 -27.03125 C 25.515625 -26.3125 24.179688 -25.34375 23.234375 -24.125 C 22.285156 -22.914062 21.8125 -21.40625 21.8125 -19.59375 C 21.8125 -17.875 22.253906 -16.414062 23.140625 -15.21875 C 24.023438 -14.03125 25.238281 -13.128906 26.78125 -12.515625 C 28.320312 -11.898438 30.097656 -11.59375 32.109375 -11.59375 Z M 32.109375 -11.59375 "/></g></g></g><g fill="#fffffd" fill-opacity="1"><g transform="translate(336.289646, 121.784021)"><g><path d="M 42.46875 -68.046875 L 42.46875 -53.921875 L 1.171875 -53.921875 L 1.171875 -68.046875 Z M 11.09375 -84.734375 L 29.453125 -84.734375 L 29.453125 -20.15625 C 29.453125 -17.976562 29.9375 -16.382812 30.90625 -15.375 C 31.875 -14.363281 33.488281 -13.859375 35.75 -13.859375 C 36.570312 -13.859375 37.628906 -13.929688 38.921875 -14.078125 C 40.210938 -14.222656 41.207031 -14.359375 41.90625 -14.484375 L 43.9375 -0.5 C 42.09375 -0.0390625 40.160156 0.273438 38.140625 0.453125 C 36.128906 0.640625 34.179688 0.734375 32.296875 0.734375 C 25.304688 0.734375 20.023438 -0.875 16.453125 -4.09375 C 12.878906 -7.320312 11.09375 -12.039062 11.09375 -18.25 Z M 11.09375 -84.734375 "/></g></g></g><g fill="#fffffd" fill-opacity="1"><g transform="translate(382.56508, 121.784021)"><g><path d="M 24.21875 -19.84375 L 24.21875 -41.90625 L 26.875 -41.90625 L 49.421875 -68.046875 L 70.8125 -68.046875 L 41.109375 -33.890625 L 36.796875 -33.890625 Z M 7.578125 0 L 7.578125 -91.828125 L 25.953125 -91.828125 L 25.953125 0 Z M 50.46875 0 L 29.828125 -29.765625 L 42.09375 -42.828125 L 72.109375 0 Z M 50.46875 0 "/></g></g></g><g fill="#fffffd" fill-opacity="1"><g transform="translate(454.905084, 121.784021)"><g><path d="M 7.578125 0 L 7.578125 -68.046875 L 25.953125 -68.046875 L 25.953125 0 Z M 16.765625 -76.859375 C 13.929688 -76.859375 11.515625 -77.78125 9.515625 -79.625 C 7.523438 -81.476562 6.53125 -83.738281 6.53125 -86.40625 C 6.53125 -89.070312 7.523438 -91.328125 9.515625 -93.171875 C 11.515625 -95.023438 13.929688 -95.953125 16.765625 -95.953125 C 19.597656 -95.953125 22 -95.023438 23.96875 -93.171875 C 25.945312 -91.328125 26.9375 -89.070312 26.9375 -86.40625 C 26.9375 -83.738281 25.945312 -81.476562 23.96875 -79.625 C 22 -77.78125 19.597656 -76.859375 16.765625 -76.859375 Z M 16.765625 -76.859375 "/></g></g></g><g fill="#fffffd" fill-opacity="1"><g transform="translate(488.425496, 121.784021)"><g><path d="M 7.578125 0 L 7.578125 -68.046875 L 25.390625 -68.046875 L 25.390625 -56.265625 L 26.015625 -56.265625 C 27.242188 -60.421875 29.296875 -63.554688 32.171875 -65.671875 C 35.046875 -67.785156 38.457031 -68.84375 42.40625 -68.84375 C 43.382812 -68.84375 44.40625 -68.800781 45.46875 -68.71875 C 46.539062 -68.632812 47.46875 -68.507812 48.25 -68.34375 L 48.25 -52.078125 C 47.46875 -52.328125 46.304688 -52.519531 44.765625 -52.65625 C 43.234375 -52.800781 41.75 -52.875 40.3125 -52.875 C 37.59375 -52.875 35.132812 -52.273438 32.9375 -51.078125 C 30.738281 -49.890625 29.023438 -48.207031 27.796875 -46.03125 C 26.566406 -43.851562 25.953125 -41.285156 25.953125 -38.328125 L 25.953125 0 Z M 7.578125 0 "/></g></g></g><g fill="#fffffd" fill-opacity="1"><g transform="translate(538.89098, 121.784021)"><g><path d="M 26.9375 1.296875 C 22.582031 1.296875 18.675781 0.535156 15.21875 -0.984375 C 11.769531 -2.503906 9.054688 -4.773438 7.078125 -7.796875 C 5.109375 -10.816406 4.125 -14.566406 4.125 -19.046875 C 4.125 -22.867188 4.820312 -26.050781 6.21875 -28.59375 C 7.613281 -31.144531 9.523438 -33.195312 11.953125 -34.75 C 14.378906 -36.3125 17.144531 -37.492188 20.25 -38.296875 C 23.351562 -39.097656 26.609375 -39.664062 30.015625 -40 C 33.992188 -40.40625 37.195312 -40.78125 39.625 -41.125 C 42.050781 -41.476562 43.816406 -42.023438 44.921875 -42.765625 C 46.035156 -43.503906 46.59375 -44.613281 46.59375 -46.09375 L 46.59375 -46.40625 C 46.59375 -48.300781 46.171875 -49.914062 45.328125 -51.25 C 44.484375 -52.582031 43.257812 -53.609375 41.65625 -54.328125 C 40.0625 -55.046875 38.113281 -55.40625 35.8125 -55.40625 C 33.46875 -55.40625 31.421875 -55.046875 29.671875 -54.328125 C 27.929688 -53.609375 26.515625 -52.640625 25.421875 -51.421875 C 24.335938 -50.210938 23.566406 -48.847656 23.109375 -47.328125 L 6.15625 -49.484375 C 7.101562 -53.597656 8.910156 -57.113281 11.578125 -60.03125 C 14.253906 -62.945312 17.664062 -65.175781 21.8125 -66.71875 C 25.96875 -68.257812 30.691406 -69.03125 35.984375 -69.03125 C 39.847656 -69.03125 43.515625 -68.578125 46.984375 -67.671875 C 50.460938 -66.765625 53.554688 -65.363281 56.265625 -63.46875 C 58.984375 -61.582031 61.109375 -59.191406 62.640625 -56.296875 C 64.179688 -53.398438 64.953125 -49.941406 64.953125 -45.921875 L 64.953125 0 L 47.390625 0 L 47.390625 -9.484375 L 46.84375 -9.484375 C 45.726562 -7.347656 44.253906 -5.46875 42.421875 -3.84375 C 40.597656 -2.226562 38.410156 -0.96875 35.859375 -0.0625 C 33.316406 0.84375 30.34375 1.296875 26.9375 1.296875 Z M 32.109375 -11.59375 C 35.023438 -11.59375 37.570312 -12.164062 39.75 -13.3125 C 41.925781 -14.457031 43.628906 -15.992188 44.859375 -17.921875 C 46.097656 -19.859375 46.71875 -22.039062 46.71875 -24.46875 L 46.71875 -31.671875 C 46.144531 -31.347656 45.34375 -31.019531 44.3125 -30.6875 C 43.28125 -30.363281 42.109375 -30.078125 40.796875 -29.828125 C 39.484375 -29.578125 38.160156 -29.347656 36.828125 -29.140625 C 35.492188 -28.941406 34.269531 -28.757812 33.15625 -28.59375 C 30.9375 -28.269531 28.960938 -27.75 27.234375 -27.03125 C 25.515625 -26.3125 24.179688 -25.34375 23.234375 -24.125 C 22.285156 -22.914062 21.8125 -21.40625 21.8125 -19.59375 C 21.8125 -17.875 22.253906 -16.414062 23.140625 -15.21875 C 24.023438 -14.03125 25.238281 -13.128906 26.78125 -12.515625 C 28.320312 -11.898438 30.097656 -11.59375 32.109375 -11.59375 Z M 32.109375 -11.59375 "/></g></g></g><g fill="#fffffd" fill-opacity="1"><g transform="translate(611.354223, 121.784021)"><g><path d="M 25.953125 -91.828125 L 25.953125 0 L 7.578125 0 L 7.578125 -91.828125 Z M 25.953125 -91.828125 "/></g></g></g><g fill="#fffffd" fill-opacity="1"><g transform="translate(644.874634, 121.784021)"><g><path d="M 26.9375 1.296875 C 22.582031 1.296875 18.675781 0.535156 15.21875 -0.984375 C 11.769531 -2.503906 9.054688 -4.773438 7.078125 -7.796875 C 5.109375 -10.816406 4.125 -14.566406 4.125 -19.046875 C 4.125 -22.867188 4.820312 -26.050781 6.21875 -28.59375 C 7.613281 -31.144531 9.523438 -33.195312 11.953125 -34.75 C 14.378906 -36.3125 17.144531 -37.492188 20.25 -38.296875 C 23.351562 -39.097656 26.609375 -39.664062 30.015625 -40 C 33.992188 -40.40625 37.195312 -40.78125 39.625 -41.125 C 42.050781 -41.476562 43.816406 -42.023438 44.921875 -42.765625 C 46.035156 -43.503906 46.59375 -44.613281 46.59375 -46.09375 L 46.59375 -46.40625 C 46.59375 -48.300781 46.171875 -49.914062 45.328125 -51.25 C 44.484375 -52.582031 43.257812 -53.609375 41.65625 -54.328125 C 40.0625 -55.046875 38.113281 -55.40625 35.8125 -55.40625 C 33.46875 -55.40625 31.421875 -55.046875 29.671875 -54.328125 C 27.929688 -53.609375 26.515625 -52.640625 25.421875 -51.421875 C 24.335938 -50.210938 23.566406 -48.847656 23.109375 -47.328125 L 6.15625 -49.484375 C 7.101562 -53.597656 8.910156 -57.113281 11.578125 -60.03125 C 14.253906 -62.945312 17.664062 -65.175781 21.8125 -66.71875 C 25.96875 -68.257812 30.691406 -69.03125 35.984375 -69.03125 C 39.847656 -69.03125 43.515625 -68.578125 46.984375 -67.671875 C 50.460938 -66.765625 53.554688 -65.363281 56.265625 -63.46875 C 58.984375 -61.582031 61.109375 -59.191406 62.640625 -56.296875 C 64.179688 -53.398438 64.953125 -49.941406 64.953125 -45.921875 L 64.953125 0 L 47.390625 0 L 47.390625 -9.484375 L 46.84375 -9.484375 C 45.726562 -7.347656 44.253906 -5.46875 42.421875 -3.84375 C 40.597656 -2.226562 38.410156 -0.96875 35.859375 -0.0625 C 33.316406 0.84375 30.34375 1.296875 26.9375 1.296875 Z M 32.109375 -11.59375 C 35.023438 -11.59375 37.570312 -12.164062 39.75 -13.3125 C 41.925781 -14.457031 43.628906 -15.992188 44.859375 -17.921875 C 46.097656 -19.859375 46.71875 -22.039062 46.71875 -24.46875 L 46.71875 -31.671875 C 46.144531 -31.347656 45.34375 -31.019531 44.3125 -30.6875 C 43.28125 -30.363281 42.109375 -30.078125 40.796875 -29.828125 C 39.484375 -29.578125 38.160156 -29.347656 36.828125 -29.140625 C 35.492188 -28.941406 34.269531 -28.757812 33.15625 -28.59375 C 30.9375 -28.269531 28.960938 -27.75 27.234375 -27.03125 C 25.515625 -26.3125 24.179688 -25.34375 23.234375 -24.125 C 22.285156 -22.914062 21.8125 -21.40625 21.8125 -19.59375 C 21.8125 -17.875 22.253906 -16.414062 23.140625 -15.21875 C 24.023438 -14.03125 25.238281 -13.128906 26.78125 -12.515625 C 28.320312 -11.898438 30.097656 -11.59375 32.109375 -11.59375 Z M 32.109375 -11.59375 "/></g></g></g><g fill="#fffffd" fill-opacity="1"><g transform="translate(717.337877, 121.784021)"><g><path d="M 19.84375 1.171875 C 16.84375 1.171875 14.316406 0.15625 12.265625 -1.875 C 10.210938 -3.914062 9.1875 -6.429688 9.1875 -9.421875 C 9.1875 -12.378906 10.210938 -14.875 12.265625 -16.90625 C 14.316406 -18.945312 16.84375 -19.96875 19.84375 -19.96875 C 22.800781 -19.96875 25.304688 -18.945312 27.359375 -16.90625 C 29.421875 -14.875 30.453125 -12.378906 30.453125 -9.421875 C 30.453125 -6.429688 29.421875 -3.914062 27.359375 -1.875 C 25.304688 0.15625 22.800781 1.171875 19.84375 1.171875 Z M 19.84375 1.171875 "/></g></g></g><g fill="#fffffd" fill-opacity="1"><g transform="translate(756.958522, 121.784021)"><g><path d="M 38.15625 1.359375 C 31.332031 1.359375 25.410156 -0.109375 20.390625 -3.046875 C 15.378906 -5.984375 11.507812 -10.09375 8.78125 -15.375 C 6.050781 -20.65625 4.6875 -26.785156 4.6875 -33.765625 C 4.6875 -40.796875 6.050781 -46.960938 8.78125 -52.265625 C 11.507812 -57.566406 15.378906 -61.6875 20.390625 -64.625 C 25.410156 -67.5625 31.332031 -69.03125 38.15625 -69.03125 C 42.300781 -69.03125 46.109375 -68.484375 49.578125 -67.390625 C 53.054688 -66.304688 56.128906 -64.734375 58.796875 -62.671875 C 61.460938 -60.617188 63.648438 -58.144531 65.359375 -55.25 C 67.066406 -52.351562 68.207031 -49.097656 68.78125 -45.484375 L 51.515625 -43.015625 C 51.148438 -44.785156 50.597656 -46.367188 49.859375 -47.765625 C 49.117188 -49.160156 48.191406 -50.359375 47.078125 -51.359375 C 45.972656 -52.367188 44.691406 -53.140625 43.234375 -53.671875 C 41.773438 -54.210938 40.140625 -54.484375 38.328125 -54.484375 C 35.085938 -54.484375 32.367188 -53.617188 30.171875 -51.890625 C 27.972656 -50.160156 26.296875 -47.742188 25.140625 -44.640625 C 23.992188 -41.546875 23.421875 -37.941406 23.421875 -33.828125 C 23.421875 -29.765625 23.992188 -26.179688 25.140625 -23.078125 C 26.296875 -19.972656 27.972656 -17.546875 30.171875 -15.796875 C 32.367188 -14.054688 35.085938 -13.1875 38.328125 -13.1875 C 40.140625 -13.1875 41.773438 -13.460938 43.234375 -14.015625 C 44.691406 -14.578125 45.984375 -15.367188 47.109375 -16.390625 C 48.242188 -17.421875 49.191406 -18.664062 49.953125 -20.125 C 50.710938 -21.582031 51.253906 -23.234375 51.578125 -25.078125 L 68.84375 -22.5625 C 68.3125 -18.90625 67.191406 -15.613281 65.484375 -12.6875 C 63.773438 -9.769531 61.582031 -7.253906 58.90625 -5.140625 C 56.238281 -3.023438 53.148438 -1.410156 49.640625 -0.296875 C 46.128906 0.804688 42.300781 1.359375 38.15625 1.359375 Z M 38.15625 1.359375 "/></g></g></g><g fill="#fffffd" fill-opacity="1"><g transform="translate(830.284397, 121.784021)"><g><path d="M 38.265625 1.359375 C 31.410156 1.359375 25.460938 -0.109375 20.421875 -3.046875 C 15.390625 -5.984375 11.507812 -10.09375 8.78125 -15.375 C 6.050781 -20.65625 4.6875 -26.785156 4.6875 -33.765625 C 4.6875 -40.835938 6.050781 -47.015625 8.78125 -52.296875 C 11.507812 -57.578125 15.390625 -61.6875 20.421875 -64.625 C 25.460938 -67.5625 31.410156 -69.03125 38.265625 -69.03125 C 45.085938 -69.03125 51.015625 -67.5625 56.046875 -64.625 C 61.085938 -61.6875 64.972656 -57.578125 67.703125 -52.296875 C 70.429688 -47.015625 71.796875 -40.835938 71.796875 -33.765625 C 71.796875 -26.785156 70.429688 -20.65625 67.703125 -15.375 C 64.972656 -10.09375 61.085938 -5.984375 56.046875 -3.046875 C 51.015625 -0.109375 45.085938 1.359375 38.265625 1.359375 Z M 38.265625 -13.1875 C 41.472656 -13.1875 44.175781 -14.066406 46.375 -15.828125 C 48.570312 -17.597656 50.242188 -20.035156 51.390625 -23.140625 C 52.546875 -26.242188 53.125 -29.804688 53.125 -33.828125 C 53.125 -37.898438 52.546875 -41.476562 51.390625 -44.5625 C 50.242188 -47.644531 48.570312 -50.066406 46.375 -51.828125 C 44.175781 -53.597656 41.472656 -54.484375 38.265625 -54.484375 C 35.066406 -54.484375 32.359375 -53.597656 30.140625 -51.828125 C 27.921875 -50.066406 26.242188 -47.644531 25.109375 -44.5625 C 23.984375 -41.476562 23.421875 -37.898438 23.421875 -33.828125 C 23.421875 -29.804688 23.984375 -26.242188 25.109375 -23.140625 C 26.242188 -20.035156 27.910156 -17.597656 30.109375 -15.828125 C 32.304688 -14.066406 35.023438 -13.1875 38.265625 -13.1875 Z M 38.265625 -13.1875 "/></g></g></g><g fill="#fffffd" fill-opacity="1"><g transform="translate(906.752823, 121.784021)"><g><path d="M 7.578125 0 L 7.578125 -68.046875 L 24.78125 -68.046875 L 25.515625 -51.46875 L 24.21875 -51.46875 C 25.289062 -55.570312 26.863281 -58.925781 28.9375 -61.53125 C 31.007812 -64.144531 33.441406 -66.066406 36.234375 -67.296875 C 39.023438 -68.535156 41.960938 -69.15625 45.046875 -69.15625 C 49.984375 -69.15625 54.039062 -67.613281 57.21875 -64.53125 C 60.40625 -61.445312 62.65625 -56.800781 63.96875 -50.59375 L 61.875 -50.59375 C 62.820312 -54.789062 64.4375 -58.253906 66.71875 -60.984375 C 69 -63.710938 71.707031 -65.753906 74.84375 -67.109375 C 77.988281 -68.472656 81.328125 -69.15625 84.859375 -69.15625 C 89.054688 -69.15625 92.804688 -68.238281 96.109375 -66.40625 C 99.421875 -64.570312 102.03125 -61.921875 103.9375 -58.453125 C 105.851562 -54.984375 106.8125 -50.742188 106.8125 -45.734375 L 106.8125 0 L 88.375 0 L 88.375 -42.21875 C 88.375 -46.125 87.328125 -49.03125 85.234375 -50.9375 C 83.140625 -52.84375 80.550781 -53.796875 77.46875 -53.796875 C 75.125 -53.796875 73.097656 -53.289062 71.390625 -52.28125 C 69.691406 -51.28125 68.378906 -49.875 67.453125 -48.0625 C 66.523438 -46.257812 66.0625 -44.125 66.0625 -41.65625 L 66.0625 0 L 48.25 0 L 48.25 -42.765625 C 48.25 -46.140625 47.253906 -48.820312 45.265625 -50.8125 C 43.273438 -52.800781 40.695312 -53.796875 37.53125 -53.796875 C 35.351562 -53.796875 33.390625 -53.300781 31.640625 -52.3125 C 29.898438 -51.332031 28.515625 -49.882812 27.484375 -47.96875 C 26.460938 -46.0625 25.953125 -43.710938 25.953125 -40.921875 L 25.953125 0 Z M 7.578125 0 "/></g></g></g></g></g></svg>