<svg xmlns="http://www.w3.org/2000/svg" xmlns:xlink="http://www.w3.org/1999/xlink" width="1024" zoomAndPan="magnify" viewBox="0 0 768 767.999994" height="1024" preserveAspectRatio="xMidYMid meet" version="1.0"><defs><g/></defs><g fill="#fffffd" fill-opacity="1"><g transform="translate(140.660197, 369.022151)"><g><path d="M 3.59375 11.78125 L 5.171875 5.078125 L 6.875 5.328125 C 7.957031 5.554688 8.90625 5.59375 9.71875 5.4375 C 10.53125 5.28125 11.1875 4.910156 11.6875 4.328125 C 12.1875 3.753906 12.515625 2.957031 12.671875 1.9375 L 13.046875 0.0625 L 0.796875 -32.453125 L 10.078125 -32.453125 L 15.546875 -15.78125 C 16.210938 -13.707031 16.765625 -11.625 17.203125 -9.53125 C 17.648438 -7.445312 18.140625 -5.289062 18.671875 -3.0625 L 16.546875 -3.0625 C 17.078125 -5.289062 17.609375 -7.453125 18.140625 -9.546875 C 18.671875 -11.648438 19.269531 -13.726562 19.9375 -15.78125 L 25.609375 -32.453125 L 34.8125 -32.453125 L 20.90625 4.09375 C 20.238281 5.832031 19.398438 7.328125 18.390625 8.578125 C 17.378906 9.835938 16.140625 10.800781 14.671875 11.46875 C 13.203125 12.132812 11.425781 12.46875 9.34375 12.46875 C 8.226562 12.46875 7.164062 12.398438 6.15625 12.265625 C 5.144531 12.140625 4.289062 11.976562 3.59375 11.78125 Z M 3.59375 11.78125 "/></g></g></g><g fill="#fffffd" fill-opacity="1"><g transform="translate(176.256516, 369.022151)"><g><path d="M 12.84375 0.625 C 10.769531 0.625 8.910156 0.257812 7.265625 -0.46875 C 5.617188 -1.195312 4.320312 -2.28125 3.375 -3.71875 C 2.4375 -5.15625 1.96875 -6.941406 1.96875 -9.078125 C 1.96875 -10.898438 2.300781 -12.421875 2.96875 -13.640625 C 3.632812 -14.859375 4.546875 -15.835938 5.703125 -16.578125 C 6.859375 -17.328125 8.175781 -17.890625 9.65625 -18.265625 C 11.132812 -18.648438 12.6875 -18.921875 14.3125 -19.078125 C 16.21875 -19.273438 17.75 -19.457031 18.90625 -19.625 C 20.0625 -19.789062 20.898438 -20.050781 21.421875 -20.40625 C 21.953125 -20.757812 22.21875 -21.285156 22.21875 -21.984375 L 22.21875 -22.140625 C 22.21875 -23.035156 22.015625 -23.800781 21.609375 -24.4375 C 21.210938 -25.070312 20.628906 -25.5625 19.859375 -25.90625 C 19.097656 -26.25 18.171875 -26.421875 17.078125 -26.421875 C 15.960938 -26.421875 14.988281 -26.25 14.15625 -25.90625 C 13.320312 -25.5625 12.644531 -25.097656 12.125 -24.515625 C 11.601562 -23.941406 11.238281 -23.296875 11.03125 -22.578125 L 2.9375 -23.609375 C 3.382812 -25.566406 4.242188 -27.238281 5.515625 -28.625 C 6.796875 -30.019531 8.425781 -31.082031 10.40625 -31.8125 C 12.382812 -32.550781 14.640625 -32.921875 17.171875 -32.921875 C 19.015625 -32.921875 20.765625 -32.703125 22.421875 -32.265625 C 24.078125 -31.835938 25.550781 -31.171875 26.84375 -30.265625 C 28.132812 -29.367188 29.144531 -28.226562 29.875 -26.84375 C 30.613281 -25.46875 30.984375 -23.820312 30.984375 -21.90625 L 30.984375 0 L 22.609375 0 L 22.609375 -4.53125 L 22.34375 -4.53125 C 21.8125 -3.507812 21.109375 -2.609375 20.234375 -1.828125 C 19.367188 -1.054688 18.328125 -0.453125 17.109375 -0.015625 C 15.890625 0.410156 14.46875 0.625 12.84375 0.625 Z M 15.3125 -5.53125 C 16.707031 -5.53125 17.921875 -5.800781 18.953125 -6.34375 C 19.992188 -6.894531 20.804688 -7.628906 21.390625 -8.546875 C 21.984375 -9.472656 22.28125 -10.515625 22.28125 -11.671875 L 22.28125 -15.109375 C 22.007812 -14.953125 21.628906 -14.796875 21.140625 -14.640625 C 20.648438 -14.484375 20.085938 -14.34375 19.453125 -14.21875 C 18.828125 -14.101562 18.195312 -13.992188 17.5625 -13.890625 C 16.925781 -13.796875 16.34375 -13.710938 15.8125 -13.640625 C 14.757812 -13.484375 13.820312 -13.234375 13 -12.890625 C 12.175781 -12.546875 11.535156 -12.082031 11.078125 -11.5 C 10.628906 -10.925781 10.40625 -10.207031 10.40625 -9.34375 C 10.40625 -8.519531 10.613281 -7.820312 11.03125 -7.25 C 11.457031 -6.6875 12.035156 -6.257812 12.765625 -5.96875 C 13.503906 -5.675781 14.351562 -5.53125 15.3125 -5.53125 Z M 15.3125 -5.53125 "/></g></g></g><g fill="#fffffd" fill-opacity="1"><g transform="translate(210.824034, 369.022151)"><g><path d="M 20.25 -32.453125 L 20.25 -25.71875 L 0.5625 -25.71875 L 0.5625 -32.453125 Z M 5.296875 -40.421875 L 14.046875 -40.421875 L 14.046875 -9.609375 C 14.046875 -8.566406 14.273438 -7.804688 14.734375 -7.328125 C 15.203125 -6.847656 15.972656 -6.609375 17.046875 -6.609375 C 17.441406 -6.609375 17.945312 -6.640625 18.5625 -6.703125 C 19.175781 -6.773438 19.648438 -6.84375 19.984375 -6.90625 L 20.953125 -0.234375 C 20.078125 -0.015625 19.15625 0.132812 18.1875 0.21875 C 17.226562 0.3125 16.300781 0.359375 15.40625 0.359375 C 12.070312 0.359375 9.550781 -0.410156 7.84375 -1.953125 C 6.144531 -3.492188 5.296875 -5.742188 5.296875 -8.703125 Z M 5.296875 -40.421875 "/></g></g></g><g fill="#fffffd" fill-opacity="1"><g transform="translate(232.899046, 369.022151)"><g><path d="M 16.609375 0.671875 C 13.960938 0.671875 11.613281 0.285156 9.5625 -0.484375 C 7.519531 -1.253906 5.851562 -2.375 4.5625 -3.84375 C 3.28125 -5.320312 2.472656 -7.085938 2.140625 -9.140625 L 10.40625 -10.265625 C 10.78125 -8.773438 11.492188 -7.644531 12.546875 -6.875 C 13.609375 -6.113281 15.019531 -5.734375 16.78125 -5.734375 C 18.445312 -5.734375 19.757812 -6.050781 20.71875 -6.6875 C 21.6875 -7.320312 22.171875 -8.128906 22.171875 -9.109375 C 22.171875 -9.953125 21.820312 -10.644531 21.125 -11.1875 C 20.425781 -11.726562 19.378906 -12.144531 17.984375 -12.4375 L 12.375 -13.546875 C 9.238281 -14.191406 6.882812 -15.289062 5.3125 -16.84375 C 3.75 -18.394531 2.96875 -20.394531 2.96875 -22.84375 C 2.96875 -24.894531 3.53125 -26.675781 4.65625 -28.1875 C 5.78125 -29.695312 7.367188 -30.863281 9.421875 -31.6875 C 11.472656 -32.507812 13.867188 -32.921875 16.609375 -32.921875 C 19.234375 -32.921875 21.503906 -32.546875 23.421875 -31.796875 C 25.347656 -31.054688 26.894531 -30 28.0625 -28.625 C 29.226562 -27.257812 29.96875 -25.644531 30.28125 -23.78125 L 22.421875 -22.6875 C 22.148438 -23.84375 21.539062 -24.789062 20.59375 -25.53125 C 19.644531 -26.269531 18.375 -26.640625 16.78125 -26.640625 C 15.3125 -26.640625 14.101562 -26.328125 13.15625 -25.703125 C 12.207031 -25.085938 11.734375 -24.289062 11.734375 -23.3125 C 11.734375 -22.488281 12.054688 -21.796875 12.703125 -21.234375 C 13.347656 -20.679688 14.40625 -20.253906 15.875 -19.953125 L 21.75 -18.78125 C 24.925781 -18.15625 27.28125 -17.117188 28.8125 -15.671875 C 30.351562 -14.222656 31.125 -12.332031 31.125 -10 C 31.125 -7.863281 30.503906 -5.992188 29.265625 -4.390625 C 28.035156 -2.796875 26.328125 -1.550781 24.140625 -0.65625 C 21.960938 0.226562 19.453125 0.671875 16.609375 0.671875 Z M 16.609375 0.671875 "/></g></g></g><g fill="#fffffd" fill-opacity="1"><g transform="translate(266.085045, 369.022151)"><g><path d="M 12.84375 0.625 C 10.769531 0.625 8.910156 0.257812 7.265625 -0.46875 C 5.617188 -1.195312 4.320312 -2.28125 3.375 -3.71875 C 2.4375 -5.15625 1.96875 -6.941406 1.96875 -9.078125 C 1.96875 -10.898438 2.300781 -12.421875 2.96875 -13.640625 C 3.632812 -14.859375 4.546875 -15.835938 5.703125 -16.578125 C 6.859375 -17.328125 8.175781 -17.890625 9.65625 -18.265625 C 11.132812 -18.648438 12.6875 -18.921875 14.3125 -19.078125 C 16.21875 -19.273438 17.75 -19.457031 18.90625 -19.625 C 20.0625 -19.789062 20.898438 -20.050781 21.421875 -20.40625 C 21.953125 -20.757812 22.21875 -21.285156 22.21875 -21.984375 L 22.21875 -22.140625 C 22.21875 -23.035156 22.015625 -23.800781 21.609375 -24.4375 C 21.210938 -25.070312 20.628906 -25.5625 19.859375 -25.90625 C 19.097656 -26.25 18.171875 -26.421875 17.078125 -26.421875 C 15.960938 -26.421875 14.988281 -26.25 14.15625 -25.90625 C 13.320312 -25.5625 12.644531 -25.097656 12.125 -24.515625 C 11.601562 -23.941406 11.238281 -23.296875 11.03125 -22.578125 L 2.9375 -23.609375 C 3.382812 -25.566406 4.242188 -27.238281 5.515625 -28.625 C 6.796875 -30.019531 8.425781 -31.082031 10.40625 -31.8125 C 12.382812 -32.550781 14.640625 -32.921875 17.171875 -32.921875 C 19.015625 -32.921875 20.765625 -32.703125 22.421875 -32.265625 C 24.078125 -31.835938 25.550781 -31.171875 26.84375 -30.265625 C 28.132812 -29.367188 29.144531 -28.226562 29.875 -26.84375 C 30.613281 -25.46875 30.984375 -23.820312 30.984375 -21.90625 L 30.984375 0 L 22.609375 0 L 22.609375 -4.53125 L 22.34375 -4.53125 C 21.8125 -3.507812 21.109375 -2.609375 20.234375 -1.828125 C 19.367188 -1.054688 18.328125 -0.453125 17.109375 -0.015625 C 15.890625 0.410156 14.46875 0.625 12.84375 0.625 Z M 15.3125 -5.53125 C 16.707031 -5.53125 17.921875 -5.800781 18.953125 -6.34375 C 19.992188 -6.894531 20.804688 -7.628906 21.390625 -8.546875 C 21.984375 -9.472656 22.28125 -10.515625 22.28125 -11.671875 L 22.28125 -15.109375 C 22.007812 -14.953125 21.628906 -14.796875 21.140625 -14.640625 C 20.648438 -14.484375 20.085938 -14.34375 19.453125 -14.21875 C 18.828125 -14.101562 18.195312 -13.992188 17.5625 -13.890625 C 16.925781 -13.796875 16.34375 -13.710938 15.8125 -13.640625 C 14.757812 -13.484375 13.820312 -13.234375 13 -12.890625 C 12.175781 -12.546875 11.535156 -12.082031 11.078125 -11.5 C 10.628906 -10.925781 10.40625 -10.207031 10.40625 -9.34375 C 10.40625 -8.519531 10.613281 -7.820312 11.03125 -7.25 C 11.457031 -6.6875 12.035156 -6.257812 12.765625 -5.96875 C 13.503906 -5.675781 14.351562 -5.53125 15.3125 -5.53125 Z M 15.3125 -5.53125 "/></g></g></g><g fill="#fffffd" fill-opacity="1"><g transform="translate(300.652563, 369.022151)"><g><path d="M 20.25 -32.453125 L 20.25 -25.71875 L 0.5625 -25.71875 L 0.5625 -32.453125 Z M 5.296875 -40.421875 L 14.046875 -40.421875 L 14.046875 -9.609375 C 14.046875 -8.566406 14.273438 -7.804688 14.734375 -7.328125 C 15.203125 -6.847656 15.972656 -6.609375 17.046875 -6.609375 C 17.441406 -6.609375 17.945312 -6.640625 18.5625 -6.703125 C 19.175781 -6.773438 19.648438 -6.84375 19.984375 -6.90625 L 20.953125 -0.234375 C 20.078125 -0.015625 19.15625 0.132812 18.1875 0.21875 C 17.226562 0.3125 16.300781 0.359375 15.40625 0.359375 C 12.070312 0.359375 9.550781 -0.410156 7.84375 -1.953125 C 6.144531 -3.492188 5.296875 -5.742188 5.296875 -8.703125 Z M 5.296875 -40.421875 "/></g></g></g><g fill="#fffffd" fill-opacity="1"><g transform="translate(322.727575, 369.022151)"><g><path d="M 11.546875 -9.46875 L 11.546875 -19.984375 L 12.8125 -19.984375 L 23.578125 -32.453125 L 33.78125 -32.453125 L 19.609375 -16.171875 L 17.546875 -16.171875 Z M 3.609375 0 L 3.609375 -43.796875 L 12.375 -43.796875 L 12.375 0 Z M 24.078125 0 L 14.234375 -14.203125 L 20.078125 -20.4375 L 34.390625 0 Z M 24.078125 0 "/></g></g></g><g fill="#fffffd" fill-opacity="1"><g transform="translate(357.236305, 369.022151)"><g><path d="M 3.609375 0 L 3.609375 -32.453125 L 12.375 -32.453125 L 12.375 0 Z M 8 -36.65625 C 6.644531 -36.65625 5.488281 -37.09375 4.53125 -37.96875 C 3.582031 -38.851562 3.109375 -39.9375 3.109375 -41.21875 C 3.109375 -42.488281 3.582031 -43.5625 4.53125 -44.4375 C 5.488281 -45.320312 6.644531 -45.765625 8 -45.765625 C 9.351562 -45.765625 10.5 -45.320312 11.4375 -44.4375 C 12.375 -43.5625 12.84375 -42.488281 12.84375 -41.21875 C 12.84375 -39.9375 12.375 -38.851562 11.4375 -37.96875 C 10.5 -37.09375 9.351562 -36.65625 8 -36.65625 Z M 8 -36.65625 "/></g></g></g><g fill="#fffffd" fill-opacity="1"><g transform="translate(373.226722, 369.022151)"><g><path d="M 3.609375 0 L 3.609375 -32.453125 L 12.109375 -32.453125 L 12.109375 -26.84375 L 12.40625 -26.84375 C 12.988281 -28.820312 13.96875 -30.3125 15.34375 -31.3125 C 16.71875 -32.320312 18.34375 -32.828125 20.21875 -32.828125 C 20.695312 -32.828125 21.1875 -32.804688 21.6875 -32.765625 C 22.195312 -32.734375 22.640625 -32.675781 23.015625 -32.59375 L 23.015625 -24.84375 C 22.640625 -24.957031 22.082031 -25.046875 21.34375 -25.109375 C 20.613281 -25.179688 19.90625 -25.21875 19.21875 -25.21875 C 17.925781 -25.21875 16.753906 -24.929688 15.703125 -24.359375 C 14.660156 -23.796875 13.84375 -22.992188 13.25 -21.953125 C 12.664062 -20.921875 12.375 -19.695312 12.375 -18.28125 L 12.375 0 Z M 3.609375 0 "/></g></g></g><g fill="#fffffd" fill-opacity="1"><g transform="translate(397.300535, 369.022151)"><g><path d="M 12.84375 0.625 C 10.769531 0.625 8.910156 0.257812 7.265625 -0.46875 C 5.617188 -1.195312 4.320312 -2.28125 3.375 -3.71875 C 2.4375 -5.15625 1.96875 -6.941406 1.96875 -9.078125 C 1.96875 -10.898438 2.300781 -12.421875 2.96875 -13.640625 C 3.632812 -14.859375 4.546875 -15.835938 5.703125 -16.578125 C 6.859375 -17.328125 8.175781 -17.890625 9.65625 -18.265625 C 11.132812 -18.648438 12.6875 -18.921875 14.3125 -19.078125 C 16.21875 -19.273438 17.75 -19.457031 18.90625 -19.625 C 20.0625 -19.789062 20.898438 -20.050781 21.421875 -20.40625 C 21.953125 -20.757812 22.21875 -21.285156 22.21875 -21.984375 L 22.21875 -22.140625 C 22.21875 -23.035156 22.015625 -23.800781 21.609375 -24.4375 C 21.210938 -25.070312 20.628906 -25.5625 19.859375 -25.90625 C 19.097656 -26.25 18.171875 -26.421875 17.078125 -26.421875 C 15.960938 -26.421875 14.988281 -26.25 14.15625 -25.90625 C 13.320312 -25.5625 12.644531 -25.097656 12.125 -24.515625 C 11.601562 -23.941406 11.238281 -23.296875 11.03125 -22.578125 L 2.9375 -23.609375 C 3.382812 -25.566406 4.242188 -27.238281 5.515625 -28.625 C 6.796875 -30.019531 8.425781 -31.082031 10.40625 -31.8125 C 12.382812 -32.550781 14.640625 -32.921875 17.171875 -32.921875 C 19.015625 -32.921875 20.765625 -32.703125 22.421875 -32.265625 C 24.078125 -31.835938 25.550781 -31.171875 26.84375 -30.265625 C 28.132812 -29.367188 29.144531 -28.226562 29.875 -26.84375 C 30.613281 -25.46875 30.984375 -23.820312 30.984375 -21.90625 L 30.984375 0 L 22.609375 0 L 22.609375 -4.53125 L 22.34375 -4.53125 C 21.8125 -3.507812 21.109375 -2.609375 20.234375 -1.828125 C 19.367188 -1.054688 18.328125 -0.453125 17.109375 -0.015625 C 15.890625 0.410156 14.46875 0.625 12.84375 0.625 Z M 15.3125 -5.53125 C 16.707031 -5.53125 17.921875 -5.800781 18.953125 -6.34375 C 19.992188 -6.894531 20.804688 -7.628906 21.390625 -8.546875 C 21.984375 -9.472656 22.28125 -10.515625 22.28125 -11.671875 L 22.28125 -15.109375 C 22.007812 -14.953125 21.628906 -14.796875 21.140625 -14.640625 C 20.648438 -14.484375 20.085938 -14.34375 19.453125 -14.21875 C 18.828125 -14.101562 18.195312 -13.992188 17.5625 -13.890625 C 16.925781 -13.796875 16.34375 -13.710938 15.8125 -13.640625 C 14.757812 -13.484375 13.820312 -13.234375 13 -12.890625 C 12.175781 -12.546875 11.535156 -12.082031 11.078125 -11.5 C 10.628906 -10.925781 10.40625 -10.207031 10.40625 -9.34375 C 10.40625 -8.519531 10.613281 -7.820312 11.03125 -7.25 C 11.457031 -6.6875 12.035156 -6.257812 12.765625 -5.96875 C 13.503906 -5.675781 14.351562 -5.53125 15.3125 -5.53125 Z M 15.3125 -5.53125 "/></g></g></g><g fill="#fffffd" fill-opacity="1"><g transform="translate(431.868053, 369.022151)"><g><path d="M 12.375 -43.796875 L 12.375 0 L 3.609375 0 L 3.609375 -43.796875 Z M 12.375 -43.796875 "/></g></g></g><g fill="#fffffd" fill-opacity="1"><g transform="translate(447.85847, 369.022151)"><g><path d="M 12.84375 0.625 C 10.769531 0.625 8.910156 0.257812 7.265625 -0.46875 C 5.617188 -1.195312 4.320312 -2.28125 3.375 -3.71875 C 2.4375 -5.15625 1.96875 -6.941406 1.96875 -9.078125 C 1.96875 -10.898438 2.300781 -12.421875 2.96875 -13.640625 C 3.632812 -14.859375 4.546875 -15.835938 5.703125 -16.578125 C 6.859375 -17.328125 8.175781 -17.890625 9.65625 -18.265625 C 11.132812 -18.648438 12.6875 -18.921875 14.3125 -19.078125 C 16.21875 -19.273438 17.75 -19.457031 18.90625 -19.625 C 20.0625 -19.789062 20.898438 -20.050781 21.421875 -20.40625 C 21.953125 -20.757812 22.21875 -21.285156 22.21875 -21.984375 L 22.21875 -22.140625 C 22.21875 -23.035156 22.015625 -23.800781 21.609375 -24.4375 C 21.210938 -25.070312 20.628906 -25.5625 19.859375 -25.90625 C 19.097656 -26.25 18.171875 -26.421875 17.078125 -26.421875 C 15.960938 -26.421875 14.988281 -26.25 14.15625 -25.90625 C 13.320312 -25.5625 12.644531 -25.097656 12.125 -24.515625 C 11.601562 -23.941406 11.238281 -23.296875 11.03125 -22.578125 L 2.9375 -23.609375 C 3.382812 -25.566406 4.242188 -27.238281 5.515625 -28.625 C 6.796875 -30.019531 8.425781 -31.082031 10.40625 -31.8125 C 12.382812 -32.550781 14.640625 -32.921875 17.171875 -32.921875 C 19.015625 -32.921875 20.765625 -32.703125 22.421875 -32.265625 C 24.078125 -31.835938 25.550781 -31.171875 26.84375 -30.265625 C 28.132812 -29.367188 29.144531 -28.226562 29.875 -26.84375 C 30.613281 -25.46875 30.984375 -23.820312 30.984375 -21.90625 L 30.984375 0 L 22.609375 0 L 22.609375 -4.53125 L 22.34375 -4.53125 C 21.8125 -3.507812 21.109375 -2.609375 20.234375 -1.828125 C 19.367188 -1.054688 18.328125 -0.453125 17.109375 -0.015625 C 15.890625 0.410156 14.46875 0.625 12.84375 0.625 Z M 15.3125 -5.53125 C 16.707031 -5.53125 17.921875 -5.800781 18.953125 -6.34375 C 19.992188 -6.894531 20.804688 -7.628906 21.390625 -8.546875 C 21.984375 -9.472656 22.28125 -10.515625 22.28125 -11.671875 L 22.28125 -15.109375 C 22.007812 -14.953125 21.628906 -14.796875 21.140625 -14.640625 C 20.648438 -14.484375 20.085938 -14.34375 19.453125 -14.21875 C 18.828125 -14.101562 18.195312 -13.992188 17.5625 -13.890625 C 16.925781 -13.796875 16.34375 -13.710938 15.8125 -13.640625 C 14.757812 -13.484375 13.820312 -13.234375 13 -12.890625 C 12.175781 -12.546875 11.535156 -12.082031 11.078125 -11.5 C 10.628906 -10.925781 10.40625 -10.207031 10.40625 -9.34375 C 10.40625 -8.519531 10.613281 -7.820312 11.03125 -7.25 C 11.457031 -6.6875 12.035156 -6.257812 12.765625 -5.96875 C 13.503906 -5.675781 14.351562 -5.53125 15.3125 -5.53125 Z M 15.3125 -5.53125 "/></g></g></g><g fill="#fffffd" fill-opacity="1"><g transform="translate(482.425989, 369.022151)"><g><path d="M 9.46875 0.5625 C 8.03125 0.5625 6.820312 0.078125 5.84375 -0.890625 C 4.863281 -1.867188 4.375 -3.070312 4.375 -4.5 C 4.375 -5.90625 4.863281 -7.09375 5.84375 -8.0625 C 6.820312 -9.039062 8.03125 -9.53125 9.46875 -9.53125 C 10.875 -9.53125 12.066406 -9.039062 13.046875 -8.0625 C 14.023438 -7.09375 14.515625 -5.90625 14.515625 -4.5 C 14.515625 -3.070312 14.023438 -1.867188 13.046875 -0.890625 C 12.066406 0.078125 10.875 0.5625 9.46875 0.5625 Z M 9.46875 0.5625 "/></g></g></g><g fill="#fffffd" fill-opacity="1"><g transform="translate(501.326432, 369.022151)"><g><path d="M 18.203125 0.640625 C 14.941406 0.640625 12.113281 -0.0546875 9.71875 -1.453125 C 7.332031 -2.859375 5.488281 -4.816406 4.1875 -7.328125 C 2.882812 -9.847656 2.234375 -12.773438 2.234375 -16.109375 C 2.234375 -19.460938 2.882812 -22.398438 4.1875 -24.921875 C 5.488281 -27.453125 7.332031 -29.414062 9.71875 -30.8125 C 12.113281 -32.21875 14.941406 -32.921875 18.203125 -32.921875 C 20.179688 -32.921875 22 -32.660156 23.65625 -32.140625 C 25.3125 -31.617188 26.773438 -30.867188 28.046875 -29.890625 C 29.316406 -28.910156 30.359375 -27.726562 31.171875 -26.34375 C 31.984375 -24.96875 32.53125 -23.414062 32.8125 -21.6875 L 24.578125 -20.515625 C 24.398438 -21.359375 24.132812 -22.113281 23.78125 -22.78125 C 23.425781 -23.445312 22.984375 -24.019531 22.453125 -24.5 C 21.929688 -24.976562 21.320312 -25.34375 20.625 -25.59375 C 19.925781 -25.851562 19.144531 -25.984375 18.28125 -25.984375 C 16.738281 -25.984375 15.441406 -25.570312 14.390625 -24.75 C 13.335938 -23.925781 12.535156 -22.773438 11.984375 -21.296875 C 11.441406 -19.816406 11.171875 -18.097656 11.171875 -16.140625 C 11.171875 -14.203125 11.441406 -12.492188 11.984375 -11.015625 C 12.535156 -9.535156 13.335938 -8.378906 14.390625 -7.546875 C 15.441406 -6.710938 16.738281 -6.296875 18.28125 -6.296875 C 19.144531 -6.296875 19.925781 -6.425781 20.625 -6.6875 C 21.320312 -6.945312 21.9375 -7.320312 22.46875 -7.8125 C 23.007812 -8.300781 23.460938 -8.894531 23.828125 -9.59375 C 24.191406 -10.289062 24.453125 -11.082031 24.609375 -11.96875 L 32.828125 -10.765625 C 32.578125 -9.015625 32.046875 -7.441406 31.234375 -6.046875 C 30.421875 -4.660156 29.375 -3.460938 28.09375 -2.453125 C 26.820312 -1.441406 25.347656 -0.671875 23.671875 -0.140625 C 22.003906 0.378906 20.179688 0.640625 18.203125 0.640625 Z M 18.203125 0.640625 "/></g></g></g><g fill="#fffffd" fill-opacity="1"><g transform="translate(536.305457, 369.022151)"><g><path d="M 18.25 0.640625 C 14.976562 0.640625 12.140625 -0.0546875 9.734375 -1.453125 C 7.335938 -2.859375 5.488281 -4.816406 4.1875 -7.328125 C 2.882812 -9.847656 2.234375 -12.773438 2.234375 -16.109375 C 2.234375 -19.484375 2.882812 -22.425781 4.1875 -24.9375 C 5.488281 -27.457031 7.335938 -29.414062 9.734375 -30.8125 C 12.140625 -32.21875 14.976562 -32.921875 18.25 -32.921875 C 21.507812 -32.921875 24.335938 -32.21875 26.734375 -30.8125 C 29.140625 -29.414062 30.992188 -27.457031 32.296875 -24.9375 C 33.597656 -22.425781 34.25 -19.484375 34.25 -16.109375 C 34.25 -12.773438 33.597656 -9.847656 32.296875 -7.328125 C 30.992188 -4.816406 29.140625 -2.859375 26.734375 -1.453125 C 24.335938 -0.0546875 21.507812 0.640625 18.25 0.640625 Z M 18.25 -6.296875 C 19.78125 -6.296875 21.066406 -6.710938 22.109375 -7.546875 C 23.160156 -8.390625 23.960938 -9.550781 24.515625 -11.03125 C 25.066406 -12.507812 25.34375 -14.210938 25.34375 -16.140625 C 25.34375 -18.078125 25.066406 -19.78125 24.515625 -21.25 C 23.960938 -22.71875 23.160156 -23.875 22.109375 -24.71875 C 21.066406 -25.5625 19.78125 -25.984375 18.25 -25.984375 C 16.726562 -25.984375 15.4375 -25.5625 14.375 -24.71875 C 13.3125 -23.875 12.507812 -22.71875 11.96875 -21.25 C 11.4375 -19.78125 11.171875 -18.078125 11.171875 -16.140625 C 11.171875 -14.210938 11.4375 -12.507812 11.96875 -11.03125 C 12.507812 -9.550781 13.304688 -8.390625 14.359375 -7.546875 C 15.410156 -6.710938 16.707031 -6.296875 18.25 -6.296875 Z M 18.25 -6.296875 "/></g></g></g><g fill="#fffffd" fill-opacity="1"><g transform="translate(572.783589, 369.022151)"><g><path d="M 3.609375 0 L 3.609375 -32.453125 L 11.8125 -32.453125 L 12.171875 -24.546875 L 11.546875 -24.546875 C 12.054688 -26.503906 12.804688 -28.101562 13.796875 -29.34375 C 14.785156 -30.59375 15.945312 -31.507812 17.28125 -32.09375 C 18.613281 -32.6875 20.015625 -32.984375 21.484375 -32.984375 C 23.835938 -32.984375 25.773438 -32.25 27.296875 -30.78125 C 28.816406 -29.3125 29.890625 -27.097656 30.515625 -24.140625 L 29.515625 -24.140625 C 29.960938 -26.128906 30.726562 -27.773438 31.8125 -29.078125 C 32.90625 -30.390625 34.203125 -31.367188 35.703125 -32.015625 C 37.203125 -32.660156 38.796875 -32.984375 40.484375 -32.984375 C 42.484375 -32.984375 44.269531 -32.546875 45.84375 -31.671875 C 47.414062 -30.796875 48.65625 -29.53125 49.5625 -27.875 C 50.476562 -26.21875 50.9375 -24.195312 50.9375 -21.8125 L 50.9375 0 L 42.15625 0 L 42.15625 -20.140625 C 42.15625 -21.992188 41.65625 -23.375 40.65625 -24.28125 C 39.65625 -25.195312 38.421875 -25.65625 36.953125 -25.65625 C 35.835938 -25.65625 34.867188 -25.414062 34.046875 -24.9375 C 33.234375 -24.457031 32.609375 -23.785156 32.171875 -22.921875 C 31.734375 -22.066406 31.515625 -21.050781 31.515625 -19.875 L 31.515625 0 L 23.015625 0 L 23.015625 -20.40625 C 23.015625 -22.007812 22.539062 -23.285156 21.59375 -24.234375 C 20.644531 -25.179688 19.414062 -25.65625 17.90625 -25.65625 C 16.863281 -25.65625 15.925781 -25.421875 15.09375 -24.953125 C 14.257812 -24.484375 13.597656 -23.789062 13.109375 -22.875 C 12.617188 -21.96875 12.375 -20.847656 12.375 -19.515625 L 12.375 0 Z M 3.609375 0 "/></g></g></g></svg>